<svg width="169" height="48" viewBox="0 0 169 48" fill="none" xmlns="http://www.w3.org/2000/svg">
<path d="M1.12 43V31.48H10.456V43H8.528V33.288H3.048V43H1.12ZM12.6821 43V34.36H14.6101V37.768H18.4901V34.36H20.4181V43H18.4901V39.576H14.6101V43H12.6821ZM22.4913 38.712V37.2H27.2913V38.712H22.4913ZM29.37 43V31.48H33.938C34.7167 31.48 35.354 31.6373 35.85 31.952C36.3513 32.2613 36.722 32.6587 36.962 33.144C37.2073 33.6293 37.33 34.1307 37.33 34.648C37.33 35.2827 37.178 35.8213 36.874 36.264C36.5753 36.7067 36.1673 37.0053 35.65 37.16V36.76C36.3753 36.9253 36.9247 37.2693 37.298 37.792C37.6767 38.3147 37.866 38.9093 37.866 39.576C37.866 40.2587 37.7353 40.856 37.474 41.368C37.2127 41.88 36.8233 42.28 36.306 42.568C35.794 42.856 35.1593 43 34.402 43H29.37ZM31.322 41.184H34.162C34.498 41.184 34.7993 41.1173 35.066 40.984C35.3327 40.8453 35.5407 40.6533 35.69 40.408C35.8447 40.1573 35.922 39.8613 35.922 39.52C35.922 39.2107 35.8553 38.9333 35.722 38.688C35.5887 38.4427 35.394 38.248 35.138 38.104C34.882 37.9547 34.5753 37.88 34.218 37.88H31.322V41.184ZM31.322 36.08H33.914C34.1913 36.08 34.4393 36.0267 34.658 35.92C34.8767 35.8133 35.05 35.656 35.178 35.448C35.306 35.24 35.37 34.984 35.37 34.68C35.37 34.28 35.242 33.9467 34.986 33.68C34.73 33.4133 34.3727 33.28 33.914 33.28H31.322V36.08ZM43.2158 43.24C42.3251 43.24 41.5651 43.0427 40.9358 42.648C40.3064 42.248 39.8238 41.704 39.4878 41.016C39.1571 40.328 38.9891 39.5493 38.9838 38.68C38.9891 37.7947 39.1624 37.0107 39.5038 36.328C39.8504 35.64 40.3411 35.1013 40.9758 34.712C41.6104 34.3173 42.3651 34.12 43.2398 34.12C44.2211 34.12 45.0504 34.368 45.7278 34.864C46.4104 35.3547 46.8558 36.0267 47.0638 36.88L45.1438 37.4C44.9944 36.936 44.7464 36.576 44.3998 36.32C44.0531 36.0587 43.6584 35.928 43.2158 35.928C42.7144 35.928 42.3011 36.048 41.9758 36.288C41.6504 36.5227 41.4104 36.848 41.2558 37.264C41.1011 37.68 41.0238 38.152 41.0238 38.68C41.0238 39.5013 41.2078 40.1653 41.5758 40.672C41.9438 41.1787 42.4904 41.432 43.2158 41.432C43.7278 41.432 44.1304 41.3147 44.4238 41.08C44.7224 40.8453 44.9464 40.5067 45.0958 40.064L47.0638 40.504C46.7971 41.384 46.3304 42.0613 45.6638 42.536C44.9971 43.0053 44.1811 43.24 43.2158 43.24ZM49.3069 41.96V39.984H51.2829V41.96H49.3069ZM49.3229 37.376V35.4H51.2989V37.376H49.3229ZM61.1064 43.24C60.2157 43.24 59.4557 43.0427 58.8264 42.648C58.197 42.248 57.7144 41.704 57.3784 41.016C57.0477 40.328 56.8797 39.5493 56.8744 38.68C56.8797 37.7947 57.053 37.0107 57.3944 36.328C57.741 35.64 58.2317 35.1013 58.8664 34.712C59.501 34.3173 60.2557 34.12 61.1304 34.12C62.1117 34.12 62.941 34.368 63.6184 34.864C64.301 35.3547 64.7464 36.0267 64.9544 36.88L63.0344 37.4C62.885 36.936 62.637 36.576 62.2904 36.32C61.9437 36.0587 61.549 35.928 61.1064 35.928C60.605 35.928 60.1917 36.048 59.8664 36.288C59.541 36.5227 59.301 36.848 59.1464 37.264C58.9917 37.68 58.9144 38.152 58.9144 38.68C58.9144 39.5013 59.0984 40.1653 59.4664 40.672C59.8344 41.1787 60.381 41.432 61.1064 41.432C61.6184 41.432 62.021 41.3147 62.3144 41.08C62.613 40.8453 62.837 40.5067 62.9864 40.064L64.9544 40.504C64.6877 41.384 64.221 42.0613 63.5544 42.536C62.8877 43.0053 62.0717 43.24 61.1064 43.24ZM73.9046 43.24C73.0886 43.24 72.3686 43.0667 71.7446 42.72C71.1206 42.368 70.6326 41.88 70.2806 41.256C69.934 40.632 69.7606 39.912 69.7606 39.096V35.384C69.7606 34.568 69.934 33.848 70.2806 33.224C70.6326 32.6 71.1206 32.1147 71.7446 31.768C72.3686 31.416 73.0886 31.24 73.9046 31.24C74.7206 31.24 75.438 31.416 76.0566 31.768C76.6806 32.1147 77.1686 32.6 77.5206 33.224C77.8726 33.848 78.0486 34.568 78.0486 35.384V39.096C78.0486 39.912 77.8726 40.632 77.5206 41.256C77.1686 41.88 76.6806 42.368 76.0566 42.72C75.438 43.0667 74.7206 43.24 73.9046 43.24ZM73.9046 41.408C74.31 41.408 74.678 41.312 75.0086 41.12C75.3393 40.9227 75.6006 40.6613 75.7926 40.336C75.9846 40.0053 76.0806 39.6373 76.0806 39.232V35.24C76.0806 34.8293 75.9846 34.4613 75.7926 34.136C75.6006 33.8053 75.3393 33.544 75.0086 33.352C74.678 33.1547 74.31 33.056 73.9046 33.056C73.4993 33.056 73.1313 33.1547 72.8006 33.352C72.47 33.544 72.2086 33.8053 72.0166 34.136C71.8246 34.4613 71.7286 34.8293 71.7286 35.24V39.232C71.7286 39.6373 71.8246 40.0053 72.0166 40.336C72.2086 40.6613 72.47 40.9227 72.8006 41.12C73.1313 41.312 73.4993 41.408 73.9046 41.408ZM84.0119 31.256C84.7639 31.256 85.4385 31.4347 86.0359 31.792C86.6385 32.144 87.1159 32.6347 87.4679 33.264C87.8199 33.8933 87.9959 34.616 87.9959 35.432V38.936C87.9959 39.8107 87.8199 40.5707 87.4679 41.216C87.1212 41.8613 86.6305 42.36 85.9959 42.712C85.3665 43.064 84.6332 43.24 83.7959 43.24C83.2145 43.24 82.6625 43.144 82.1399 42.952C81.6172 42.7547 81.1532 42.4427 80.7479 42.016L82.1399 40.664C82.3425 40.904 82.5879 41.0933 82.8759 41.232C83.1692 41.3707 83.4759 41.44 83.7959 41.44C84.2439 41.44 84.6359 41.336 84.9719 41.128C85.3079 40.9147 85.5665 40.6373 85.7479 40.296C85.9345 39.9547 86.0279 39.5893 86.0279 39.2V37.288L86.3799 37.672C86.0492 38.056 85.6519 38.3573 85.1879 38.576C84.7239 38.7893 84.2385 38.896 83.7319 38.896C83.0065 38.896 82.3665 38.7333 81.8119 38.408C81.2572 38.0773 80.8199 37.6293 80.4999 37.064C80.1799 36.4933 80.0199 35.8453 80.0199 35.12C80.0199 34.4 80.2012 33.7493 80.5639 33.168C80.9319 32.5813 81.4172 32.1173 82.0199 31.776C82.6225 31.4293 83.2865 31.256 84.0119 31.256ZM84.0119 33.104C83.6385 33.104 83.2972 33.1947 82.9879 33.376C82.6785 33.552 82.4305 33.7947 82.2439 34.104C82.0625 34.408 81.9719 34.7467 81.9719 35.12C81.9719 35.4933 82.0625 35.8347 82.2439 36.144C82.4252 36.4533 82.6679 36.7013 82.9719 36.888C83.2812 37.0693 83.6225 37.16 83.9959 37.16C84.3692 37.16 84.7105 37.0693 85.0199 36.888C85.3292 36.7013 85.5745 36.4533 85.7559 36.144C85.9372 35.8347 86.0279 35.4933 86.0279 35.12C86.0279 34.7573 85.9372 34.424 85.7559 34.12C85.5799 33.8107 85.3372 33.5653 85.0279 33.384C84.7239 33.1973 84.3852 33.104 84.0119 33.104ZM90.8694 41.96V39.984H92.8454V41.96H90.8694ZM90.8854 37.376V35.4H92.8614V37.376H90.8854ZM99.8578 43.24C99.0418 43.24 98.3218 43.0667 97.6978 42.72C97.0738 42.368 96.5858 41.88 96.2338 41.256C95.8871 40.632 95.7138 39.912 95.7138 39.096V35.384C95.7138 34.568 95.8871 33.848 96.2338 33.224C96.5858 32.6 97.0738 32.1147 97.6978 31.768C98.3218 31.416 99.0418 31.24 99.8578 31.24C100.674 31.24 101.391 31.416 102.01 31.768C102.634 32.1147 103.122 32.6 103.474 33.224C103.826 33.848 104.002 34.568 104.002 35.384V39.096C104.002 39.912 103.826 40.632 103.474 41.256C103.122 41.88 102.634 42.368 102.01 42.72C101.391 43.0667 100.674 43.24 99.8578 43.24ZM99.8578 41.408C100.263 41.408 100.631 41.312 100.962 41.12C101.292 40.9227 101.554 40.6613 101.746 40.336C101.938 40.0053 102.034 39.6373 102.034 39.232V35.24C102.034 34.8293 101.938 34.4613 101.746 34.136C101.554 33.8053 101.292 33.544 100.962 33.352C100.631 33.1547 100.263 33.056 99.8578 33.056C99.4524 33.056 99.0844 33.1547 98.7538 33.352C98.4231 33.544 98.1618 33.8053 97.9698 34.136C97.7778 34.4613 97.6818 34.8293 97.6818 35.24V39.232C97.6818 39.6373 97.7778 40.0053 97.9698 40.336C98.1618 40.6613 98.4231 40.9227 98.7538 41.12C99.0844 41.312 99.4524 41.408 99.8578 41.408ZM110.389 43.24C109.573 43.24 108.853 43.0667 108.229 42.72C107.605 42.368 107.117 41.88 106.765 41.256C106.418 40.632 106.245 39.912 106.245 39.096V35.384C106.245 34.568 106.418 33.848 106.765 33.224C107.117 32.6 107.605 32.1147 108.229 31.768C108.853 31.416 109.573 31.24 110.389 31.24C111.205 31.24 111.922 31.416 112.541 31.768C113.165 32.1147 113.653 32.6 114.005 33.224C114.357 33.848 114.533 34.568 114.533 35.384V39.096C114.533 39.912 114.357 40.632 114.005 41.256C113.653 41.88 113.165 42.368 112.541 42.72C111.922 43.0667 111.205 43.24 110.389 43.24ZM110.389 41.408C110.794 41.408 111.162 41.312 111.493 41.12C111.824 40.9227 112.085 40.6613 112.277 40.336C112.469 40.0053 112.565 39.6373 112.565 39.232V35.24C112.565 34.8293 112.469 34.4613 112.277 34.136C112.085 33.8053 111.824 33.544 111.493 33.352C111.162 33.1547 110.794 33.056 110.389 33.056C109.984 33.056 109.616 33.1547 109.285 33.352C108.954 33.544 108.693 33.8053 108.501 34.136C108.309 34.4613 108.213 34.8293 108.213 35.24V39.232C108.213 39.6373 108.309 40.0053 108.501 40.336C108.693 40.6613 108.954 40.9227 109.285 41.12C109.616 41.312 109.984 41.408 110.389 41.408ZM116.616 37.992V36.48H121.416V37.992H116.616ZM123.175 42.984V41.304L128.103 36.912C128.487 36.5707 128.754 36.248 128.903 35.944C129.052 35.64 129.127 35.3467 129.127 35.064C129.127 34.68 129.044 34.3387 128.879 34.04C128.714 33.736 128.484 33.496 128.191 33.32C127.903 33.144 127.57 33.056 127.191 33.056C126.791 33.056 126.436 33.1493 126.127 33.336C125.823 33.5173 125.586 33.76 125.415 34.064C125.244 34.368 125.164 34.696 125.175 35.048H123.191C123.191 34.28 123.362 33.6107 123.703 33.04C124.05 32.4693 124.524 32.0267 125.127 31.712C125.735 31.3973 126.436 31.24 127.231 31.24C127.967 31.24 128.628 31.4053 129.215 31.736C129.802 32.0613 130.263 32.5147 130.599 33.096C130.935 33.672 131.103 34.336 131.103 35.088C131.103 35.6373 131.028 36.0987 130.879 36.472C130.73 36.8453 130.506 37.1893 130.207 37.504C129.914 37.8187 129.548 38.168 129.111 38.552L125.615 41.648L125.439 41.168H131.103V42.984H123.175ZM137.17 43.24C136.354 43.24 135.634 43.0667 135.01 42.72C134.386 42.368 133.898 41.88 133.546 41.256C133.2 40.632 133.026 39.912 133.026 39.096V35.384C133.026 34.568 133.2 33.848 133.546 33.224C133.898 32.6 134.386 32.1147 135.01 31.768C135.634 31.416 136.354 31.24 137.17 31.24C137.986 31.24 138.704 31.416 139.322 31.768C139.946 32.1147 140.434 32.6 140.786 33.224C141.138 33.848 141.314 34.568 141.314 35.384V39.096C141.314 39.912 141.138 40.632 140.786 41.256C140.434 41.88 139.946 42.368 139.322 42.72C138.704 43.0667 137.986 43.24 137.17 43.24ZM137.17 41.408C137.576 41.408 137.944 41.312 138.274 41.12C138.605 40.9227 138.866 40.6613 139.058 40.336C139.25 40.0053 139.346 39.6373 139.346 39.232V35.24C139.346 34.8293 139.25 34.4613 139.058 34.136C138.866 33.8053 138.605 33.544 138.274 33.352C137.944 33.1547 137.576 33.056 137.17 33.056C136.765 33.056 136.397 33.1547 136.066 33.352C135.736 33.544 135.474 33.8053 135.282 34.136C135.09 34.4613 134.994 34.8293 134.994 35.24V39.232C134.994 39.6373 135.09 40.0053 135.282 40.336C135.474 40.6613 135.736 40.9227 136.066 41.12C136.397 41.312 136.765 41.408 137.17 41.408ZM144.198 41.96V39.984H146.174V41.96H144.198ZM144.214 37.376V35.4H146.19V37.376H144.214ZM153.186 43.24C152.37 43.24 151.65 43.0667 151.026 42.72C150.402 42.368 149.914 41.88 149.562 41.256C149.215 40.632 149.042 39.912 149.042 39.096V35.384C149.042 34.568 149.215 33.848 149.562 33.224C149.914 32.6 150.402 32.1147 151.026 31.768C151.65 31.416 152.37 31.24 153.186 31.24C154.002 31.24 154.719 31.416 155.338 31.768C155.962 32.1147 156.45 32.6 156.802 33.224C157.154 33.848 157.33 34.568 157.33 35.384V39.096C157.33 39.912 157.154 40.632 156.802 41.256C156.45 41.88 155.962 42.368 155.338 42.72C154.719 43.0667 154.002 43.24 153.186 43.24ZM153.186 41.408C153.591 41.408 153.959 41.312 154.29 41.12C154.621 40.9227 154.882 40.6613 155.074 40.336C155.266 40.0053 155.362 39.6373 155.362 39.232V35.24C155.362 34.8293 155.266 34.4613 155.074 34.136C154.882 33.8053 154.621 33.544 154.29 33.352C153.959 33.1547 153.591 33.056 153.186 33.056C152.781 33.056 152.413 33.1547 152.082 33.352C151.751 33.544 151.49 33.8053 151.298 34.136C151.106 34.4613 151.01 34.8293 151.01 35.24V39.232C151.01 39.6373 151.106 40.0053 151.298 40.336C151.49 40.6613 151.751 40.9227 152.082 41.12C152.413 41.312 152.781 41.408 153.186 41.408ZM163.717 43.24C162.901 43.24 162.181 43.0667 161.557 42.72C160.933 42.368 160.445 41.88 160.093 41.256C159.746 40.632 159.573 39.912 159.573 39.096V35.384C159.573 34.568 159.746 33.848 160.093 33.224C160.445 32.6 160.933 32.1147 161.557 31.768C162.181 31.416 162.901 31.24 163.717 31.24C164.533 31.24 165.25 31.416 165.869 31.768C166.493 32.1147 166.981 32.6 167.333 33.224C167.685 33.848 167.861 34.568 167.861 35.384V39.096C167.861 39.912 167.685 40.632 167.333 41.256C166.981 41.88 166.493 42.368 165.869 42.72C165.25 43.0667 164.533 43.24 163.717 43.24ZM163.717 41.408C164.122 41.408 164.49 41.312 164.821 41.12C165.152 40.9227 165.413 40.6613 165.605 40.336C165.797 40.0053 165.893 39.6373 165.893 39.232V35.24C165.893 34.8293 165.797 34.4613 165.605 34.136C165.413 33.8053 165.152 33.544 164.821 33.352C164.49 33.1547 164.122 33.056 163.717 33.056C163.312 33.056 162.944 33.1547 162.613 33.352C162.282 33.544 162.021 33.8053 161.829 34.136C161.637 34.4613 161.541 34.8293 161.541 35.24V39.232C161.541 39.6373 161.637 40.0053 161.829 40.336C162.021 40.6613 162.282 40.9227 162.613 41.12C162.944 41.312 163.312 41.408 163.717 41.408Z" fill="#333333"/>
<path d="M0.98 17V6.92H4.963C5.061 6.92 5.17767 6.92467 5.313 6.934C5.44833 6.93867 5.579 6.95267 5.705 6.976C6.251 7.06 6.70833 7.24667 7.077 7.536C7.45033 7.82533 7.73033 8.19167 7.917 8.635C8.10367 9.07367 8.197 9.56133 8.197 10.098C8.197 10.63 8.10133 11.1177 7.91 11.561C7.72333 11.9997 7.44333 12.366 7.07 12.66C6.70133 12.9493 6.24633 13.136 5.705 13.22C5.579 13.2387 5.44833 13.2527 5.313 13.262C5.17767 13.2713 5.061 13.276 4.963 13.276H2.226V17H0.98ZM2.226 12.093H4.921C5.00967 12.093 5.11 12.0883 5.222 12.079C5.33867 12.0697 5.44833 12.0533 5.551 12.03C5.873 11.9553 6.13433 11.82 6.335 11.624C6.54033 11.4233 6.68967 11.19 6.783 10.924C6.87633 10.6533 6.923 10.378 6.923 10.098C6.923 9.818 6.87633 9.545 6.783 9.279C6.68967 9.00833 6.54033 8.77267 6.335 8.572C6.13433 8.37133 5.873 8.236 5.551 8.166C5.44833 8.138 5.33867 8.12167 5.222 8.117C5.11 8.10767 5.00967 8.103 4.921 8.103H2.226V12.093ZM12.8693 17.21C12.1273 17.21 11.4786 17.0467 10.9233 16.72C10.3726 16.3887 9.94328 15.929 9.63528 15.341C9.32728 14.7483 9.17328 14.0577 9.17328 13.269C9.17328 12.443 9.32495 11.729 9.62828 11.127C9.93161 10.5203 10.3539 10.0537 10.8953 9.727C11.4413 9.39567 12.0806 9.23 12.8133 9.23C13.5739 9.23 14.2203 9.405 14.7523 9.755C15.2889 10.105 15.6903 10.6043 15.9563 11.253C16.2269 11.9017 16.3436 12.674 16.3063 13.57H15.0463V13.122C15.0323 12.1933 14.8433 11.5003 14.4793 11.043C14.1153 10.581 13.5739 10.35 12.8553 10.35C12.0853 10.35 11.4996 10.5973 11.0983 11.092C10.6969 11.5867 10.4963 12.296 10.4963 13.22C10.4963 14.1113 10.6969 14.802 11.0983 15.292C11.4996 15.782 12.0713 16.027 12.8133 16.027C13.3126 16.027 13.7466 15.9127 14.1153 15.684C14.4839 15.4553 14.7733 15.1263 14.9833 14.697L16.1803 15.11C15.8863 15.7773 15.4429 16.2953 14.8503 16.664C14.2623 17.028 13.6019 17.21 12.8693 17.21ZM10.0763 13.57V12.569H15.6623V13.57H10.0763ZM16.7513 17L19.8033 13.22L16.8983 9.44H18.2843L21.0913 13.15V9.44H22.2253V13.15L25.0323 9.44H26.4183L23.5133 13.22L26.5653 17H25.1163L22.2253 13.29V17H21.0913V13.29L18.2003 17H16.7513ZM33.8692 9.44V17H32.6652V11.428L28.7032 17H27.6742V9.44H28.8782V14.935L32.8472 9.44H33.8692ZM35.8226 17V9.44H36.8936L39.7636 15.306L42.6336 9.44H43.7046V17H42.5006V12.037L40.0926 17H39.4346L37.0266 12.037V17H35.8226ZM51.9344 17.21C51.2251 17.21 50.6278 17.035 50.1424 16.685C49.6571 16.3303 49.2884 15.852 49.0364 15.25C48.7891 14.6433 48.6654 13.9643 48.6654 13.213C48.6654 12.4523 48.7891 11.771 49.0364 11.169C49.2884 10.567 49.6571 10.0933 50.1424 9.748C50.6324 9.40267 51.2321 9.23 51.9414 9.23C52.6414 9.23 53.2434 9.405 53.7474 9.755C54.2561 10.1003 54.6458 10.574 54.9164 11.176C55.1871 11.778 55.3224 12.457 55.3224 13.213C55.3224 13.969 55.1871 14.648 54.9164 15.25C54.6458 15.852 54.2561 16.3303 53.7474 16.685C53.2434 17.035 52.6391 17.21 51.9344 17.21ZM48.4554 20.36V9.44H49.5684V15.005H49.7084V20.36H48.4554ZM51.7804 16.069C52.2798 16.069 52.6928 15.943 53.0194 15.691C53.3461 15.439 53.5911 15.0983 53.7544 14.669C53.9178 14.235 53.9994 13.7497 53.9994 13.213C53.9994 12.681 53.9178 12.2003 53.7544 11.771C53.5958 11.3417 53.3484 11.001 53.0124 10.749C52.6811 10.497 52.2588 10.371 51.7454 10.371C51.2554 10.371 50.8494 10.4923 50.5274 10.735C50.2054 10.973 49.9651 11.3067 49.8064 11.736C49.6478 12.1607 49.5684 12.653 49.5684 13.213C49.5684 13.7637 49.6454 14.256 49.7994 14.69C49.9581 15.1193 50.2008 15.4577 50.5274 15.705C50.8541 15.9477 51.2718 16.069 51.7804 16.069ZM59.006 17.21C58.4413 17.21 57.9676 17.1073 57.585 16.902C57.207 16.692 56.92 16.4167 56.724 16.076C56.5326 15.7353 56.437 15.362 56.437 14.956C56.437 14.5593 56.5116 14.2163 56.661 13.927C56.815 13.633 57.0296 13.3903 57.305 13.199C57.5803 13.003 57.9093 12.849 58.292 12.737C58.6513 12.639 59.0526 12.555 59.496 12.485C59.944 12.4103 60.3966 12.3427 60.854 12.282C61.3113 12.2213 61.7383 12.163 62.135 12.107L61.687 12.366C61.701 11.694 61.5656 11.197 61.281 10.875C61.001 10.553 60.5156 10.392 59.825 10.392C59.3676 10.392 58.9663 10.497 58.621 10.707C58.2803 10.9123 58.04 11.2483 57.9 11.715L56.717 11.358C56.899 10.6953 57.2513 10.175 57.774 9.797C58.2966 9.419 58.985 9.23 59.839 9.23C60.525 9.23 61.113 9.35367 61.603 9.601C62.0976 9.84367 62.4523 10.2123 62.667 10.707C62.7743 10.9403 62.842 11.1947 62.87 11.47C62.898 11.7407 62.912 12.0253 62.912 12.324V17H61.806V15.187L62.065 15.355C61.7803 15.9663 61.3813 16.4283 60.868 16.741C60.3593 17.0537 59.7386 17.21 59.006 17.21ZM59.195 16.167C59.643 16.167 60.0303 16.0877 60.357 15.929C60.6883 15.7657 60.9543 15.5533 61.155 15.292C61.3556 15.026 61.4863 14.7367 61.547 14.424C61.617 14.1907 61.6543 13.9317 61.659 13.647C61.6683 13.3577 61.673 13.136 61.673 12.982L62.107 13.171C61.701 13.227 61.302 13.2807 60.91 13.332C60.518 13.3833 60.147 13.4393 59.797 13.5C59.447 13.556 59.132 13.6237 58.852 13.703C58.6466 13.7683 58.453 13.8523 58.271 13.955C58.0936 14.0577 57.949 14.1907 57.837 14.354C57.7296 14.5127 57.676 14.711 57.676 14.949C57.676 15.1543 57.7273 15.3503 57.83 15.537C57.9373 15.7237 58.1006 15.8753 58.32 15.992C58.544 16.1087 58.8356 16.167 59.195 16.167ZM67.805 17.217C67.091 17.2123 66.482 17.0583 65.978 16.755C65.474 16.447 65.082 15.9967 64.802 15.404C64.522 14.8113 64.3656 14.0857 64.333 13.227C64.3143 12.8303 64.319 12.394 64.347 11.918C64.3796 11.442 64.431 10.9847 64.501 10.546C64.5756 10.1073 64.669 9.74567 64.781 9.461C64.907 9.12033 65.0843 8.80533 65.313 8.516C65.5463 8.222 65.8076 7.97933 66.097 7.788C66.391 7.58733 66.72 7.431 67.084 7.319C67.448 7.207 67.8283 7.12067 68.225 7.06C68.6263 6.99467 69.0276 6.93867 69.429 6.892C69.8303 6.84067 70.213 6.78 70.577 6.71L70.703 7.83C70.4463 7.886 70.143 7.935 69.793 7.977C69.443 8.01433 69.079 8.05867 68.701 8.11C68.3276 8.16133 67.9683 8.23367 67.623 8.327C67.2823 8.41567 66.9883 8.53933 66.741 8.698C66.377 8.91733 66.097 9.24633 65.901 9.685C65.7096 10.119 65.593 10.6067 65.551 11.148C65.8403 10.7 66.216 10.371 66.678 10.161C67.14 9.951 67.6323 9.846 68.155 9.846C68.8316 9.846 69.415 10.0047 69.905 10.322C70.395 10.6347 70.7706 11.0663 71.032 11.617C71.298 12.1677 71.431 12.7953 71.431 13.5C71.431 14.2467 71.2816 14.9 70.983 15.46C70.6843 16.02 70.262 16.454 69.716 16.762C69.1746 17.07 68.5376 17.2217 67.805 17.217ZM67.882 16.034C68.6146 16.034 69.17 15.8077 69.548 15.355C69.926 14.8977 70.115 14.291 70.115 13.535C70.115 12.7603 69.919 12.1513 69.527 11.708C69.135 11.26 68.5843 11.036 67.875 11.036C67.1563 11.036 66.6056 11.26 66.223 11.708C65.845 12.1513 65.656 12.7603 65.656 13.535C65.656 14.3143 65.8473 14.9257 66.23 15.369C66.6126 15.8123 67.1633 16.034 67.882 16.034ZM76.1961 17.21C75.4448 17.21 74.7961 17.0397 74.2501 16.699C73.7088 16.3583 73.2911 15.887 72.9971 15.285C72.7031 14.683 72.5561 13.9923 72.5561 13.213C72.5561 12.4197 72.7054 11.7243 73.0041 11.127C73.3028 10.5297 73.7251 10.0653 74.2711 9.734C74.8171 9.398 75.4588 9.23 76.1961 9.23C76.9521 9.23 77.6031 9.40033 78.1491 9.741C78.6951 10.077 79.1128 10.546 79.4021 11.148C79.6961 11.7453 79.8431 12.4337 79.8431 13.213C79.8431 14.0017 79.6961 14.697 79.4021 15.299C79.1081 15.8963 78.6881 16.3653 78.1421 16.706C77.5961 17.042 76.9474 17.21 76.1961 17.21ZM76.1961 16.027C76.9801 16.027 77.5634 15.7657 77.9461 15.243C78.3288 14.7203 78.5201 14.0437 78.5201 13.213C78.5201 12.359 78.3264 11.68 77.9391 11.176C77.5518 10.6673 76.9708 10.413 76.1961 10.413C75.6688 10.413 75.2348 10.532 74.8941 10.77C74.5534 11.008 74.2991 11.337 74.1311 11.757C73.9631 12.177 73.8791 12.6623 73.8791 13.213C73.8791 14.0623 74.0751 14.7437 74.4671 15.257C74.8591 15.7703 75.4354 16.027 76.1961 16.027ZM83.2086 17V10.574H80.5766V9.44H87.0866V10.574H84.4546V17H83.2086ZM88.4116 17L88.4046 9.44H89.6576V12.177H90.8126C91.032 12.177 91.256 12.1817 91.4846 12.191C91.7133 12.2003 91.9116 12.2213 92.0796 12.254C92.4716 12.3333 92.8146 12.4663 93.1086 12.653C93.4026 12.8397 93.6313 13.0917 93.7946 13.409C93.958 13.7263 94.0396 14.1207 94.0396 14.592C94.0396 15.2453 93.8693 15.7633 93.5286 16.146C93.1926 16.524 92.7516 16.776 92.2056 16.902C92.019 16.944 91.8043 16.972 91.5616 16.986C91.3236 16.9953 91.0973 17 90.8826 17H88.4116ZM89.6576 15.971H90.9036C91.0436 15.971 91.2 15.9663 91.3726 15.957C91.5453 15.9477 91.6993 15.9243 91.8346 15.887C92.0726 15.817 92.285 15.6793 92.4716 15.474C92.663 15.2687 92.7586 14.9747 92.7586 14.592C92.7586 14.2047 92.6653 13.906 92.4786 13.696C92.2966 13.486 92.0563 13.3483 91.7576 13.283C91.6223 13.2503 91.48 13.2293 91.3306 13.22C91.1813 13.2107 91.039 13.206 90.9036 13.206H89.6576V15.971ZM94.9076 17V9.44H96.1536V17H94.9076ZM98.6787 15.95V14.578H100.051V15.95H98.6787ZM98.6857 11.862V10.49H100.058V11.862H98.6857Z" fill="#969696"/>
</svg>
