<svg width="174" height="50" viewBox="0 0 174 50" fill="none" xmlns="http://www.w3.org/2000/svg">
<path d="M6.11 19.3C5.15667 19.3 4.31 19.1067 3.57 18.72C2.83 18.3333 2.25 17.7967 1.83 17.11C1.41 16.4233 1.2 15.6367 1.2 14.75C1.2 13.9567 1.38333 13.22 1.75 12.54C2.11667 11.86 2.65333 11.3167 3.36 10.91L3.31 11.68C2.75667 11.26 2.32667 10.7767 2.02 10.23C1.72 9.67667 1.57 9.05667 1.57 8.37C1.57 7.54333 1.76333 6.82667 2.15 6.22C2.54333 5.61333 3.08 5.14333 3.76 4.81C4.44 4.47 5.22333 4.3 6.11 4.3C6.99667 4.3 7.78 4.47 8.46 4.81C9.14667 5.14333 9.68333 5.61333 10.07 6.22C10.4633 6.82667 10.66 7.54333 10.66 8.37C10.66 9.05667 10.5133 9.67333 10.22 10.22C9.93333 10.7667 9.49667 11.26 8.91 11.7L8.9 10.92C9.59333 11.3133 10.1233 11.8533 10.49 12.54C10.8633 13.22 11.05 13.9567 11.05 14.75C11.05 15.6367 10.8367 16.4233 10.41 17.11C9.99 17.7967 9.40667 18.3333 8.66 18.72C7.92 19.1067 7.07 19.3 6.11 19.3ZM6.11 17.03C6.81667 17.03 7.39 16.8367 7.83 16.45C8.27667 16.0633 8.5 15.4967 8.5 14.75C8.5 14.0033 8.28 13.4367 7.84 13.05C7.4 12.6567 6.82333 12.46 6.11 12.46C5.40333 12.46 4.83333 12.6567 4.4 13.05C3.96667 13.4367 3.75 14.0033 3.75 14.75C3.75 15.4967 3.96667 16.0633 4.4 16.45C4.83333 16.8367 5.40333 17.03 6.11 17.03ZM6.11 10.17C6.70333 10.17 7.18333 10.0233 7.55 9.73C7.92333 9.43 8.11 8.97667 8.11 8.37C8.11 7.76333 7.92333 7.31333 7.55 7.02C7.18333 6.72 6.70333 6.57 6.11 6.57C5.52333 6.57 5.04333 6.72 4.67 7.02C4.30333 7.31333 4.12 7.76333 4.12 8.37C4.12 8.97667 4.30333 9.43 4.67 9.73C5.04333 10.0233 5.52333 10.17 6.11 10.17ZM22.71 22.21C21.93 21.3033 21.2633 20.2767 20.71 19.13C20.1567 17.99 19.7367 16.7933 19.45 15.54C19.1633 14.2867 19.03 13.04 19.05 11.8C19.03 10.56 19.1633 9.31333 19.45 8.06C19.7367 6.8 20.1567 5.6 20.71 4.46C21.2633 3.32 21.93 2.29667 22.71 1.39L24.49 2.71C23.69 3.67667 23.05 4.65333 22.57 5.64C22.0967 6.62667 21.7567 7.63333 21.55 8.66C21.3433 9.68 21.2367 10.7267 21.23 11.8C21.2367 12.8733 21.3433 13.9233 21.55 14.95C21.7633 15.97 22.1067 16.9767 22.58 17.97C23.0533 18.9567 23.69 19.9267 24.49 20.88L22.71 22.21ZM31.4225 19.3C30.4692 19.3 29.6225 19.1067 28.8825 18.72C28.1425 18.3333 27.5625 17.7967 27.1425 17.11C26.7225 16.4233 26.5125 15.6367 26.5125 14.75C26.5125 13.9567 26.6958 13.22 27.0625 12.54C27.4292 11.86 27.9658 11.3167 28.6725 10.91L28.6225 11.68C28.0692 11.26 27.6392 10.7767 27.3325 10.23C27.0325 9.67667 26.8825 9.05667 26.8825 8.37C26.8825 7.54333 27.0758 6.82667 27.4625 6.22C27.8558 5.61333 28.3925 5.14333 29.0725 4.81C29.7525 4.47 30.5358 4.3 31.4225 4.3C32.3092 4.3 33.0925 4.47 33.7725 4.81C34.4592 5.14333 34.9958 5.61333 35.3825 6.22C35.7758 6.82667 35.9725 7.54333 35.9725 8.37C35.9725 9.05667 35.8258 9.67333 35.5325 10.22C35.2458 10.7667 34.8092 11.26 34.2225 11.7L34.2125 10.92C34.9058 11.3133 35.4358 11.8533 35.8025 12.54C36.1758 13.22 36.3625 13.9567 36.3625 14.75C36.3625 15.6367 36.1492 16.4233 35.7225 17.11C35.3025 17.7967 34.7192 18.3333 33.9725 18.72C33.2325 19.1067 32.3825 19.3 31.4225 19.3ZM31.4225 17.03C32.1292 17.03 32.7025 16.8367 33.1425 16.45C33.5892 16.0633 33.8125 15.4967 33.8125 14.75C33.8125 14.0033 33.5925 13.4367 33.1525 13.05C32.7125 12.6567 32.1358 12.46 31.4225 12.46C30.7158 12.46 30.1458 12.6567 29.7125 13.05C29.2792 13.4367 29.0625 14.0033 29.0625 14.75C29.0625 15.4967 29.2792 16.0633 29.7125 16.45C30.1458 16.8367 30.7158 17.03 31.4225 17.03ZM31.4225 10.17C32.0158 10.17 32.4958 10.0233 32.8625 9.73C33.2358 9.43 33.4225 8.97667 33.4225 8.37C33.4225 7.76333 33.2358 7.31333 32.8625 7.02C32.4958 6.72 32.0158 6.57 31.4225 6.57C30.8358 6.57 30.3558 6.72 29.9825 7.02C29.6158 7.31333 29.4325 7.76333 29.4325 8.37C29.4325 8.97667 29.6158 9.43 29.9825 9.73C30.3558 10.0233 30.8358 10.17 31.4225 10.17ZM44.1386 19.3C43.1186 19.3 42.2186 19.0833 41.4386 18.65C40.6586 18.21 40.0486 17.6 39.6086 16.82C39.1753 16.04 38.9586 15.14 38.9586 14.12V9.48C38.9586 8.46 39.1753 7.56 39.6086 6.78C40.0486 6 40.6586 5.39333 41.4386 4.96C42.2186 4.52 43.1186 4.3 44.1386 4.3C45.1586 4.3 46.0553 4.52 46.8286 4.96C47.6086 5.39333 48.2186 6 48.6586 6.78C49.0986 7.56 49.3186 8.46 49.3186 9.48V14.12C49.3186 15.14 49.0986 16.04 48.6586 16.82C48.2186 17.6 47.6086 18.21 46.8286 18.65C46.0553 19.0833 45.1586 19.3 44.1386 19.3ZM44.1386 17.01C44.6453 17.01 45.1053 16.89 45.5186 16.65C45.9319 16.4033 46.2586 16.0767 46.4986 15.67C46.7386 15.2567 46.8586 14.7967 46.8586 14.29V9.3C46.8586 8.78667 46.7386 8.32667 46.4986 7.92C46.2586 7.50667 45.9319 7.18 45.5186 6.94C45.1053 6.69333 44.6453 6.57 44.1386 6.57C43.6319 6.57 43.1719 6.69333 42.7586 6.94C42.3453 7.18 42.0186 7.50667 41.7786 7.92C41.5386 8.32667 41.4186 8.78667 41.4186 9.3V14.29C41.4186 14.7967 41.5386 15.2567 41.7786 15.67C42.0186 16.0767 42.3453 16.4033 42.7586 16.65C43.1719 16.89 43.6319 17.01 44.1386 17.01ZM57.3027 19.3C56.2827 19.3 55.3827 19.0833 54.6027 18.65C53.8227 18.21 53.2127 17.6 52.7727 16.82C52.3393 16.04 52.1227 15.14 52.1227 14.12V9.48C52.1227 8.46 52.3393 7.56 52.7727 6.78C53.2127 6 53.8227 5.39333 54.6027 4.96C55.3827 4.52 56.2827 4.3 57.3027 4.3C58.3227 4.3 59.2193 4.52 59.9927 4.96C60.7727 5.39333 61.3827 6 61.8227 6.78C62.2627 7.56 62.4827 8.46 62.4827 9.48V14.12C62.4827 15.14 62.2627 16.04 61.8227 16.82C61.3827 17.6 60.7727 18.21 59.9927 18.65C59.2193 19.0833 58.3227 19.3 57.3027 19.3ZM57.3027 17.01C57.8093 17.01 58.2693 16.89 58.6827 16.65C59.096 16.4033 59.4227 16.0767 59.6627 15.67C59.9027 15.2567 60.0227 14.7967 60.0227 14.29V9.3C60.0227 8.78667 59.9027 8.32667 59.6627 7.92C59.4227 7.50667 59.096 7.18 58.6827 6.94C58.2693 6.69333 57.8093 6.57 57.3027 6.57C56.796 6.57 56.336 6.69333 55.9227 6.94C55.5093 7.18 55.1827 7.50667 54.9427 7.92C54.7027 8.32667 54.5827 8.78667 54.5827 9.3V14.29C54.5827 14.7967 54.7027 15.2567 54.9427 15.67C55.1827 16.0767 55.5093 16.4033 55.9227 16.65C56.336 16.89 56.796 17.01 57.3027 17.01ZM66.4867 22.21C67.2667 21.3033 67.9334 20.2767 68.4867 19.13C69.0401 17.99 69.4601 16.7933 69.7467 15.54C70.0334 14.2867 70.1667 13.04 70.1467 11.8C70.1667 10.56 70.0334 9.31333 69.7467 8.06C69.4601 6.8 69.0401 5.6 68.4867 4.46C67.9334 3.32 67.2667 2.29667 66.4867 1.39L64.7067 2.71C65.5067 3.67667 66.1434 4.65333 66.6167 5.64C67.0967 6.62667 67.4401 7.63333 67.6467 8.66C67.8534 9.68 67.9601 10.7267 67.9667 11.8C67.9601 12.8733 67.8501 13.9233 67.6367 14.95C67.4301 15.97 67.0901 16.9767 66.6167 17.97C66.1434 18.9567 65.5067 19.9267 64.7067 20.88L66.4867 22.21ZM82.6231 19.3C81.8898 19.3 81.2065 19.15 80.5731 18.85C79.9398 18.5433 79.3931 18.1233 78.9331 17.59C78.4798 17.0567 78.1531 16.4367 77.9531 15.73L80.2731 15.11C80.3665 15.4967 80.5365 15.83 80.7831 16.11C81.0365 16.39 81.3298 16.6067 81.6631 16.76C82.0031 16.9133 82.3531 16.99 82.7131 16.99C83.1798 16.99 83.6065 16.8767 83.9931 16.65C84.3798 16.4233 84.6865 16.12 84.9131 15.74C85.1398 15.3533 85.2531 14.9267 85.2531 14.46C85.2531 13.9933 85.1365 13.57 84.9031 13.19C84.6765 12.8033 84.3698 12.5 83.9831 12.28C83.5965 12.0533 83.1731 11.94 82.7131 11.94C82.1598 11.94 81.6998 12.04 81.3331 12.24C80.9731 12.44 80.6965 12.6533 80.5031 12.88L78.4431 12.22L78.8831 4.6H86.7031V6.86H80.1731L81.0731 6.01L80.7531 11.31L80.3131 10.77C80.6865 10.43 81.1198 10.1767 81.6131 10.01C82.1065 9.84333 82.5831 9.76 83.0431 9.76C83.9431 9.76 84.7398 9.96667 85.4331 10.38C86.1331 10.7867 86.6798 11.3433 87.0731 12.05C87.4731 12.7567 87.6731 13.56 87.6731 14.46C87.6731 15.36 87.4398 16.1767 86.9731 16.91C86.5065 17.6367 85.8898 18.2167 85.1231 18.65C84.3631 19.0833 83.5298 19.3 82.6231 19.3ZM94.3419 19.3C93.6085 19.3 92.9252 19.15 92.2919 18.85C91.6585 18.5433 91.1119 18.1233 90.6519 17.59C90.1985 17.0567 89.8719 16.4367 89.6719 15.73L91.9919 15.11C92.0852 15.4967 92.2552 15.83 92.5019 16.11C92.7552 16.39 93.0485 16.6067 93.3819 16.76C93.7219 16.9133 94.0719 16.99 94.4319 16.99C94.8985 16.99 95.3252 16.8767 95.7119 16.65C96.0985 16.4233 96.4052 16.12 96.6319 15.74C96.8585 15.3533 96.9719 14.9267 96.9719 14.46C96.9719 13.9933 96.8552 13.57 96.6219 13.19C96.3952 12.8033 96.0885 12.5 95.7019 12.28C95.3152 12.0533 94.8919 11.94 94.4319 11.94C93.8785 11.94 93.4185 12.04 93.0519 12.24C92.6919 12.44 92.4152 12.6533 92.2219 12.88L90.1619 12.22L90.6019 4.6H98.4219V6.86H91.8919L92.7919 6.01L92.4719 11.31L92.0319 10.77C92.4052 10.43 92.8385 10.1767 93.3319 10.01C93.8252 9.84333 94.3019 9.76 94.7619 9.76C95.6619 9.76 96.4585 9.96667 97.1519 10.38C97.8519 10.7867 98.3985 11.3433 98.7919 12.05C99.1919 12.7567 99.3919 13.56 99.3919 14.46C99.3919 15.36 99.1585 16.1767 98.6919 16.91C98.2252 17.6367 97.6085 18.2167 96.8419 18.65C96.0819 19.0833 95.2485 19.3 94.3419 19.3ZM106.061 19.3C105.327 19.3 104.644 19.15 104.011 18.85C103.377 18.5433 102.831 18.1233 102.371 17.59C101.917 17.0567 101.591 16.4367 101.391 15.73L103.711 15.11C103.804 15.4967 103.974 15.83 104.221 16.11C104.474 16.39 104.767 16.6067 105.101 16.76C105.441 16.9133 105.791 16.99 106.151 16.99C106.617 16.99 107.044 16.8767 107.431 16.65C107.817 16.4233 108.124 16.12 108.351 15.74C108.577 15.3533 108.691 14.9267 108.691 14.46C108.691 13.9933 108.574 13.57 108.341 13.19C108.114 12.8033 107.807 12.5 107.421 12.28C107.034 12.0533 106.611 11.94 106.151 11.94C105.597 11.94 105.137 12.04 104.771 12.24C104.411 12.44 104.134 12.6533 103.941 12.88L101.881 12.22L102.321 4.6H110.141V6.86H103.611L104.511 6.01L104.191 11.31L103.751 10.77C104.124 10.43 104.557 10.1767 105.051 10.01C105.544 9.84333 106.021 9.76 106.481 9.76C107.381 9.76 108.177 9.96667 108.871 10.38C109.571 10.7867 110.117 11.3433 110.511 12.05C110.911 12.7567 111.111 13.56 111.111 14.46C111.111 15.36 110.877 16.1767 110.411 16.91C109.944 17.6367 109.327 18.2167 108.561 18.65C107.801 19.0833 106.967 19.3 106.061 19.3ZM113.309 12.74V10.85H119.309V12.74H113.309ZM124.408 19V7.23L121.708 8.88V6.22L124.408 4.6H126.868V19H124.408ZM134.797 19.27C134.077 19.27 133.397 19.13 132.757 18.85C132.117 18.57 131.561 18.1733 131.087 17.66C130.621 17.1467 130.284 16.54 130.077 15.84L132.407 15.21C132.574 15.7833 132.877 16.2267 133.317 16.54C133.764 16.8467 134.254 16.9967 134.787 16.99C135.261 16.99 135.684 16.88 136.057 16.66C136.431 16.44 136.724 16.1433 136.937 15.77C137.151 15.39 137.257 14.9667 137.257 14.5C137.257 13.7867 137.027 13.19 136.567 12.71C136.107 12.23 135.514 11.99 134.787 11.99C134.567 11.99 134.351 12.02 134.137 12.08C133.931 12.14 133.731 12.2233 133.537 12.33L132.437 10.43L137.277 6.29L137.487 6.87H130.637V4.6H139.467V6.88L135.577 10.62L135.557 9.91C136.431 9.97 137.174 10.2133 137.787 10.64C138.407 11.0667 138.881 11.6167 139.207 12.29C139.541 12.9633 139.707 13.7 139.707 14.5C139.707 15.4067 139.484 16.22 139.037 16.94C138.597 17.66 138.004 18.23 137.257 18.65C136.517 19.0633 135.697 19.27 134.797 19.27ZM142.098 12.74V10.85H148.098V12.74H142.098ZM150.297 18.98V16.88L156.457 11.39C156.937 10.9633 157.27 10.56 157.457 10.18C157.644 9.8 157.737 9.43333 157.737 9.08C157.737 8.6 157.634 8.17333 157.427 7.8C157.22 7.42 156.934 7.12 156.567 6.9C156.207 6.68 155.79 6.57 155.317 6.57C154.817 6.57 154.374 6.68667 153.987 6.92C153.607 7.14667 153.31 7.45 153.097 7.83C152.884 8.21 152.784 8.62 152.797 9.06H150.317C150.317 8.1 150.53 7.26333 150.957 6.55C151.39 5.83667 151.984 5.28333 152.737 4.89C153.497 4.49667 154.374 4.3 155.367 4.3C156.287 4.3 157.114 4.50667 157.847 4.92C158.58 5.32667 159.157 5.89333 159.577 6.62C159.997 7.34 160.207 8.17 160.207 9.11C160.207 9.79667 160.114 10.3733 159.927 10.84C159.74 11.3067 159.46 11.7367 159.087 12.13C158.72 12.5233 158.264 12.96 157.717 13.44L153.347 17.31L153.127 16.71H160.207V18.98H150.297ZM167.591 19.3C166.651 19.3 165.804 19.08 165.051 18.64C164.304 18.1933 163.711 17.5767 163.271 16.79C162.831 16.0033 162.611 15.1 162.611 14.08V9.7C162.611 8.60667 162.828 7.65667 163.261 6.85C163.701 6.04333 164.314 5.42 165.101 4.98C165.894 4.54 166.814 4.32 167.861 4.32C168.588 4.32 169.278 4.44333 169.931 4.69C170.584 4.93 171.164 5.31667 171.671 5.85L169.931 7.54C169.678 7.24 169.368 7.00333 169.001 6.83C168.641 6.65667 168.261 6.57 167.861 6.57C167.301 6.57 166.811 6.70333 166.391 6.97C165.971 7.23 165.644 7.57333 165.411 8C165.184 8.42667 165.071 8.88333 165.071 9.37V11.76L164.631 11.28C165.044 10.8 165.541 10.4267 166.121 10.16C166.701 9.88667 167.308 9.75 167.941 9.75C168.848 9.75 169.648 9.95667 170.341 10.37C171.034 10.7767 171.581 11.3367 171.981 12.05C172.381 12.7567 172.581 13.5633 172.581 14.47C172.581 15.37 172.351 16.1867 171.891 16.92C171.438 17.6467 170.834 18.2267 170.081 18.66C169.328 19.0867 168.498 19.3 167.591 19.3ZM167.591 16.99C168.058 16.99 168.484 16.88 168.871 16.66C169.258 16.4333 169.564 16.13 169.791 15.75C170.024 15.3633 170.141 14.9367 170.141 14.47C170.141 14.0033 170.028 13.5767 169.801 13.19C169.574 12.8033 169.268 12.4967 168.881 12.27C168.501 12.0367 168.078 11.92 167.611 11.92C167.144 11.92 166.718 12.0367 166.331 12.27C165.944 12.4967 165.638 12.8033 165.411 13.19C165.184 13.5767 165.071 14.0033 165.071 14.47C165.071 14.9233 165.181 15.3433 165.401 15.73C165.628 16.11 165.931 16.4167 166.311 16.65C166.698 16.8767 167.124 16.99 167.591 16.99Z" fill="#333333"/>
<path d="M4.319 42.21C3.62833 42.21 3.02633 42.1097 2.513 41.909C2.00433 41.7037 1.582 41.4377 1.246 41.111C0.914667 40.7797 0.662667 40.425 0.49 40.047L1.596 39.361C1.708 39.655 1.88067 39.928 2.114 40.18C2.352 40.432 2.65533 40.635 3.024 40.789C3.39733 40.943 3.84533 41.02 4.368 41.02C4.9 41.02 5.34567 40.9383 5.705 40.775C6.06433 40.607 6.33267 40.3807 6.51 40.096C6.692 39.8067 6.783 39.4753 6.783 39.102C6.783 38.6773 6.678 38.3507 6.468 38.122C6.258 37.8887 5.97567 37.7253 5.621 37.632C5.271 37.534 4.88367 37.478 4.459 37.464C4.12767 37.45 3.88967 37.4407 3.745 37.436C3.60033 37.4313 3.50233 37.429 3.451 37.429C3.40433 37.429 3.36 37.429 3.318 37.429V36.239C3.36 36.239 3.44867 36.239 3.584 36.239C3.71933 36.239 3.86167 36.239 4.011 36.239C4.16033 36.2343 4.27933 36.2297 4.368 36.225C4.99333 36.1923 5.49033 36.0337 5.859 35.749C6.22767 35.4597 6.412 35.063 6.412 34.559C6.412 34.0363 6.223 33.628 5.845 33.334C5.47167 33.04 4.984 32.893 4.382 32.893C3.81267 32.893 3.32733 33.026 2.926 33.292C2.52933 33.558 2.212 33.901 1.974 34.321L1.015 33.502C1.34167 32.984 1.79433 32.557 2.373 32.221C2.95633 31.8803 3.63767 31.71 4.417 31.71C4.84633 31.71 5.25933 31.7683 5.656 31.885C6.05733 31.997 6.412 32.1697 6.72 32.403C7.03267 32.6317 7.28 32.9233 7.462 33.278C7.644 33.628 7.735 34.0433 7.735 34.524C7.735 35.042 7.62533 35.5017 7.406 35.903C7.18667 36.3043 6.89967 36.6147 6.545 36.834C7.035 36.9973 7.41767 37.268 7.693 37.646C7.96833 38.024 8.106 38.514 8.106 39.116C8.106 39.746 7.945 40.292 7.623 40.754C7.30567 41.216 6.86233 41.5753 6.293 41.832C5.72367 42.084 5.06567 42.21 4.319 42.21ZM11.7286 42.21C11.1639 42.21 10.6903 42.1073 10.3076 41.902C9.92961 41.692 9.64261 41.4167 9.44661 41.076C9.25528 40.7353 9.15961 40.362 9.15961 39.956C9.15961 39.5593 9.23428 39.2163 9.38361 38.927C9.53761 38.633 9.75228 38.3903 10.0276 38.199C10.3029 38.003 10.6319 37.849 11.0146 37.737C11.3739 37.639 11.7753 37.555 12.2186 37.485C12.6666 37.4103 13.1193 37.3427 13.5766 37.282C14.0339 37.2213 14.4609 37.163 14.8576 37.107L14.4096 37.366C14.4236 36.694 14.2883 36.197 14.0036 35.875C13.7236 35.553 13.2383 35.392 12.5476 35.392C12.0903 35.392 11.6889 35.497 11.3436 35.707C11.0029 35.9123 10.7626 36.2483 10.6226 36.715L9.43961 36.358C9.62161 35.6953 9.97394 35.175 10.4966 34.797C11.0193 34.419 11.7076 34.23 12.5616 34.23C13.2476 34.23 13.8356 34.3537 14.3256 34.601C14.8203 34.8437 15.1749 35.2123 15.3896 35.707C15.4969 35.9403 15.5646 36.1947 15.5926 36.47C15.6206 36.7407 15.6346 37.0253 15.6346 37.324V42H14.5286V40.187L14.7876 40.355C14.5029 40.9663 14.1039 41.4283 13.5906 41.741C13.0819 42.0537 12.4613 42.21 11.7286 42.21ZM11.9176 41.167C12.3656 41.167 12.7529 41.0877 13.0796 40.929C13.4109 40.7657 13.6769 40.5533 13.8776 40.292C14.0783 40.026 14.2089 39.7367 14.2696 39.424C14.3396 39.1907 14.3769 38.9317 14.3816 38.647C14.3909 38.3577 14.3956 38.136 14.3956 37.982L14.8296 38.171C14.4236 38.227 14.0246 38.2807 13.6326 38.332C13.2406 38.3833 12.8696 38.4393 12.5196 38.5C12.1696 38.556 11.8546 38.6237 11.5746 38.703C11.3693 38.7683 11.1756 38.8523 10.9936 38.955C10.8163 39.0577 10.6716 39.1907 10.5596 39.354C10.4523 39.5127 10.3986 39.711 10.3986 39.949C10.3986 40.1543 10.4499 40.3503 10.5526 40.537C10.6599 40.7237 10.8233 40.8753 11.0426 40.992C11.2666 41.1087 11.5583 41.167 11.9176 41.167ZM17.4476 42L17.4546 34.44H18.7146V38.08L21.8856 34.44H23.5026L20.1636 38.22L23.8946 42H22.1516L18.7146 38.36V42H17.4476ZM26.7403 42.21C26.1757 42.21 25.702 42.1073 25.3193 41.902C24.9413 41.692 24.6543 41.4167 24.4583 41.076C24.267 40.7353 24.1713 40.362 24.1713 39.956C24.1713 39.5593 24.246 39.2163 24.3953 38.927C24.5493 38.633 24.764 38.3903 25.0393 38.199C25.3147 38.003 25.6437 37.849 26.0263 37.737C26.3857 37.639 26.787 37.555 27.2303 37.485C27.6783 37.4103 28.131 37.3427 28.5883 37.282C29.0457 37.2213 29.4727 37.163 29.8693 37.107L29.4213 37.366C29.4353 36.694 29.3 36.197 29.0153 35.875C28.7353 35.553 28.25 35.392 27.5593 35.392C27.102 35.392 26.7007 35.497 26.3553 35.707C26.0147 35.9123 25.7743 36.2483 25.6343 36.715L24.4513 36.358C24.6333 35.6953 24.9857 35.175 25.5083 34.797C26.031 34.419 26.7193 34.23 27.5733 34.23C28.2593 34.23 28.8473 34.3537 29.3373 34.601C29.832 34.8437 30.1867 35.2123 30.4013 35.707C30.5087 35.9403 30.5763 36.1947 30.6043 36.47C30.6323 36.7407 30.6463 37.0253 30.6463 37.324V42H29.5403V40.187L29.7993 40.355C29.5147 40.9663 29.1157 41.4283 28.6023 41.741C28.0937 42.0537 27.473 42.21 26.7403 42.21ZM26.9293 41.167C27.3773 41.167 27.7647 41.0877 28.0913 40.929C28.4227 40.7657 28.6887 40.5533 28.8893 40.292C29.09 40.026 29.2207 39.7367 29.2813 39.424C29.3513 39.1907 29.3887 38.9317 29.3933 38.647C29.4027 38.3577 29.4073 38.136 29.4073 37.982L29.8413 38.171C29.4353 38.227 29.0363 38.2807 28.6443 38.332C28.2523 38.3833 27.8813 38.4393 27.5313 38.5C27.1813 38.556 26.8663 38.6237 26.5863 38.703C26.381 38.7683 26.1873 38.8523 26.0053 38.955C25.828 39.0577 25.6833 39.1907 25.5713 39.354C25.464 39.5127 25.4103 39.711 25.4103 39.949C25.4103 40.1543 25.4617 40.3503 25.5643 40.537C25.6717 40.7237 25.835 40.8753 26.0543 40.992C26.2783 41.1087 26.57 41.167 26.9293 41.167ZM35.1753 42.21C34.4287 42.21 33.7683 42.049 33.1943 41.727C32.6203 41.4003 32.1677 40.9523 31.8363 40.383L32.8303 39.739C33.1057 40.1543 33.4347 40.474 33.8173 40.698C34.2 40.9173 34.6363 41.027 35.1263 41.027C35.6397 41.027 36.048 40.9103 36.3513 40.677C36.6547 40.439 36.8063 40.1193 36.8063 39.718C36.8063 39.4193 36.7317 39.1907 36.5823 39.032C36.433 38.8733 36.2183 38.7637 35.9383 38.703C35.6583 38.6423 35.3247 38.612 34.9373 38.612H34.1533V37.583H34.9303C35.4203 37.583 35.8193 37.5037 36.1273 37.345C36.4353 37.1863 36.5893 36.9157 36.5893 36.533C36.5893 36.141 36.4447 35.8563 36.1553 35.679C35.8707 35.497 35.53 35.406 35.1333 35.406C34.7133 35.406 34.312 35.4947 33.9293 35.672C33.5467 35.8447 33.2177 36.064 32.9423 36.33L32.1863 35.483C32.5783 35.0817 33.0287 34.7737 33.5373 34.559C34.0507 34.3397 34.6083 34.23 35.2103 34.23C35.6957 34.23 36.139 34.3163 36.5403 34.489C36.9463 34.657 37.2683 34.9067 37.5063 35.238C37.749 35.5647 37.8703 35.9637 37.8703 36.435C37.8703 36.8363 37.777 37.1933 37.5903 37.506C37.4037 37.8187 37.1283 38.0917 36.7643 38.325L36.7153 37.884C37.0233 37.9587 37.2777 38.0963 37.4783 38.297C37.6837 38.493 37.8353 38.7263 37.9333 38.997C38.0313 39.2677 38.0803 39.55 38.0803 39.844C38.0803 40.3387 37.9497 40.7633 37.6883 41.118C37.4317 41.468 37.084 41.7387 36.6453 41.93C36.2067 42.1167 35.7167 42.21 35.1753 42.21ZM41.7657 42.21C41.2011 42.21 40.7274 42.1073 40.3447 41.902C39.9667 41.692 39.6797 41.4167 39.4837 41.076C39.2924 40.7353 39.1967 40.362 39.1967 39.956C39.1967 39.5593 39.2714 39.2163 39.4207 38.927C39.5747 38.633 39.7894 38.3903 40.0647 38.199C40.3401 38.003 40.6691 37.849 41.0517 37.737C41.4111 37.639 41.8124 37.555 42.2557 37.485C42.7037 37.4103 43.1564 37.3427 43.6137 37.282C44.0711 37.2213 44.4981 37.163 44.8947 37.107L44.4467 37.366C44.4607 36.694 44.3254 36.197 44.0407 35.875C43.7607 35.553 43.2754 35.392 42.5847 35.392C42.1274 35.392 41.7261 35.497 41.3807 35.707C41.0401 35.9123 40.7997 36.2483 40.6597 36.715L39.4767 36.358C39.6587 35.6953 40.0111 35.175 40.5337 34.797C41.0564 34.419 41.7447 34.23 42.5987 34.23C43.2847 34.23 43.8727 34.3537 44.3627 34.601C44.8574 34.8437 45.2121 35.2123 45.4267 35.707C45.5341 35.9403 45.6017 36.1947 45.6297 36.47C45.6577 36.7407 45.6717 37.0253 45.6717 37.324V42H44.5657V40.187L44.8247 40.355C44.5401 40.9663 44.1411 41.4283 43.6277 41.741C43.1191 42.0537 42.4984 42.21 41.7657 42.21ZM41.9547 41.167C42.4027 41.167 42.7901 41.0877 43.1167 40.929C43.4481 40.7657 43.7141 40.5533 43.9147 40.292C44.1154 40.026 44.2461 39.7367 44.3067 39.424C44.3767 39.1907 44.4141 38.9317 44.4187 38.647C44.4281 38.3577 44.4327 38.136 44.4327 37.982L44.8667 38.171C44.4607 38.227 44.0617 38.2807 43.6697 38.332C43.2777 38.3833 42.9067 38.4393 42.5567 38.5C42.2067 38.556 41.8917 38.6237 41.6117 38.703C41.4064 38.7683 41.2127 38.8523 41.0307 38.955C40.8534 39.0577 40.7087 39.1907 40.5967 39.354C40.4894 39.5127 40.4357 39.711 40.4357 39.949C40.4357 40.1543 40.4871 40.3503 40.5897 40.537C40.6971 40.7237 40.8604 40.8753 41.0797 40.992C41.3037 41.1087 41.5954 41.167 41.9547 41.167ZM49.4937 42V35.574H46.8617V34.44H53.3717V35.574H50.7397V42H49.4937ZM54.6968 42L54.6898 34.44H55.9428V37.177H57.5738C57.7931 37.177 58.0171 37.1817 58.2458 37.191C58.4745 37.2003 58.6728 37.2213 58.8408 37.254C59.2328 37.3287 59.5758 37.4593 59.8698 37.646C60.1638 37.8327 60.3925 38.087 60.5558 38.409C60.7191 38.7263 60.8008 39.1207 60.8008 39.592C60.8008 40.2453 60.6305 40.7633 60.2898 41.146C59.9538 41.524 59.5128 41.776 58.9668 41.902C58.7801 41.944 58.5655 41.972 58.3228 41.986C58.0848 41.9953 57.8585 42 57.6438 42H54.6968ZM55.9428 40.971H57.6648C57.8048 40.971 57.9611 40.9663 58.1338 40.957C58.3065 40.9477 58.4605 40.9243 58.5958 40.887C58.8338 40.817 59.0461 40.6793 59.2328 40.474C59.4241 40.2687 59.5198 39.9747 59.5198 39.592C59.5198 39.2047 59.4265 38.906 59.2398 38.696C59.0578 38.486 58.8175 38.3483 58.5188 38.283C58.3835 38.2503 58.2411 38.2293 58.0918 38.22C57.9425 38.2107 57.8001 38.206 57.6648 38.206H55.9428V40.971ZM67.8511 42.21C67.1044 42.21 66.4441 42.049 65.8701 41.727C65.2961 41.4003 64.8434 40.9523 64.5121 40.383L65.5061 39.739C65.7814 40.1543 66.1104 40.474 66.4931 40.698C66.8758 40.9173 67.3121 41.027 67.8021 41.027C68.3154 41.027 68.7238 40.9103 69.0271 40.677C69.3304 40.439 69.4821 40.1193 69.4821 39.718C69.4821 39.4193 69.4074 39.1907 69.2581 39.032C69.1088 38.8733 68.8941 38.7637 68.6141 38.703C68.3341 38.6423 68.0004 38.612 67.6131 38.612H66.8291V37.583H67.6061C68.0961 37.583 68.4951 37.5037 68.8031 37.345C69.1111 37.1863 69.2651 36.9157 69.2651 36.533C69.2651 36.141 69.1204 35.8563 68.8311 35.679C68.5464 35.497 68.2058 35.406 67.8091 35.406C67.3891 35.406 66.9878 35.4947 66.6051 35.672C66.2224 35.8447 65.8934 36.064 65.6181 36.33L64.8621 35.483C65.2541 35.0817 65.7044 34.7737 66.2131 34.559C66.7264 34.3397 67.2841 34.23 67.8861 34.23C68.3714 34.23 68.8148 34.3163 69.2161 34.489C69.6221 34.657 69.9441 34.9067 70.1821 35.238C70.4248 35.5647 70.5461 35.9637 70.5461 36.435C70.5461 36.8363 70.4528 37.1933 70.2661 37.506C70.0794 37.8187 69.8041 38.0917 69.4401 38.325L69.3911 37.884C69.6991 37.9587 69.9534 38.0963 70.1541 38.297C70.3594 38.493 70.5111 38.7263 70.6091 38.997C70.7071 39.2677 70.7561 39.55 70.7561 39.844C70.7561 40.3387 70.6254 40.7633 70.3641 41.118C70.1074 41.468 69.7598 41.7387 69.3211 41.93C68.8824 42.1167 68.3924 42.21 67.8511 42.21ZM72.2855 42V34.44H75.5055C75.6968 34.44 75.9022 34.4517 76.1215 34.475C76.3455 34.4937 76.5485 34.5287 76.7305 34.58C77.1365 34.6873 77.4702 34.909 77.7315 35.245C77.9975 35.5763 78.1305 35.9963 78.1305 36.505C78.1305 36.7897 78.0862 37.037 77.9975 37.247C77.9135 37.457 77.7922 37.639 77.6335 37.793C77.5635 37.863 77.4865 37.926 77.4025 37.982C77.3185 38.038 77.2345 38.0823 77.1505 38.115C77.3138 38.143 77.4795 38.206 77.6475 38.304C77.9135 38.4487 78.1212 38.6517 78.2705 38.913C78.4245 39.1743 78.5015 39.508 78.5015 39.914C78.5015 40.4273 78.3778 40.852 78.1305 41.188C77.8832 41.5193 77.5425 41.748 77.1085 41.874C76.9265 41.9253 76.7258 41.9603 76.5065 41.979C76.2872 41.993 76.0748 42 75.8695 42H72.2855ZM73.5455 40.985H75.7995C75.8975 40.985 76.0142 40.9757 76.1495 40.957C76.2895 40.9383 76.4132 40.915 76.5205 40.887C76.7632 40.817 76.9382 40.6863 77.0455 40.495C77.1575 40.3037 77.2135 40.096 77.2135 39.872C77.2135 39.5733 77.1295 39.3307 76.9615 39.144C76.7982 38.9573 76.5812 38.8407 76.3105 38.794C76.2125 38.766 76.1052 38.7497 75.9885 38.745C75.8765 38.7403 75.7762 38.738 75.6875 38.738H73.5455V40.985ZM73.5455 37.709H75.4215C75.5522 37.709 75.6898 37.702 75.8345 37.688C75.9792 37.6693 76.1052 37.639 76.2125 37.597C76.4272 37.5177 76.5835 37.387 76.6815 37.205C76.7842 37.0183 76.8355 36.8153 76.8355 36.596C76.8355 36.3533 76.7795 36.141 76.6675 35.959C76.5602 35.7723 76.3945 35.644 76.1705 35.574C76.0212 35.518 75.8532 35.4877 75.6665 35.483C75.4845 35.4737 75.3678 35.469 75.3165 35.469H73.5455V37.709ZM83.1277 42.21C82.3764 42.21 81.7277 42.0397 81.1817 41.699C80.6404 41.3583 80.2227 40.887 79.9287 40.285C79.6347 39.683 79.4877 38.9923 79.4877 38.213C79.4877 37.4197 79.6371 36.7243 79.9357 36.127C80.2344 35.5297 80.6567 35.0653 81.2027 34.734C81.7487 34.398 82.3904 34.23 83.1277 34.23C83.8837 34.23 84.5347 34.4003 85.0807 34.741C85.6267 35.077 86.0444 35.546 86.3337 36.148C86.6277 36.7453 86.7747 37.4337 86.7747 38.213C86.7747 39.0017 86.6277 39.697 86.3337 40.299C86.0397 40.8963 85.6197 41.3653 85.0737 41.706C84.5277 42.042 83.8791 42.21 83.1277 42.21ZM83.1277 41.027C83.9117 41.027 84.4951 40.7657 84.8777 40.243C85.2604 39.7203 85.4517 39.0437 85.4517 38.213C85.4517 37.359 85.2581 36.68 84.8707 36.176C84.4834 35.6673 83.9024 35.413 83.1277 35.413C82.6004 35.413 82.1664 35.532 81.8257 35.77C81.4851 36.008 81.2307 36.337 81.0627 36.757C80.8947 37.177 80.8107 37.6623 80.8107 38.213C80.8107 39.0623 81.0067 39.7437 81.3987 40.257C81.7907 40.7703 82.3671 41.027 83.1277 41.027ZM88.3089 42V34.44H89.5549V37.625H93.5309V34.44H94.7769V42H93.5309V38.808H89.5549V42H88.3089ZM99.9578 42.21C99.2065 42.21 98.5578 42.0397 98.0118 41.699C97.4705 41.3583 97.0528 40.887 96.7588 40.285C96.4648 39.683 96.3178 38.9923 96.3178 38.213C96.3178 37.4197 96.4671 36.7243 96.7658 36.127C97.0645 35.5297 97.4868 35.0653 98.0328 34.734C98.5788 34.398 99.2205 34.23 99.9578 34.23C100.714 34.23 101.365 34.4003 101.911 34.741C102.457 35.077 102.874 35.546 103.164 36.148C103.458 36.7453 103.605 37.4337 103.605 38.213C103.605 39.0017 103.458 39.697 103.164 40.299C102.87 40.8963 102.45 41.3653 101.904 41.706C101.358 42.042 100.709 42.21 99.9578 42.21ZM99.9578 41.027C100.742 41.027 101.325 40.7657 101.708 40.243C102.09 39.7203 102.282 39.0437 102.282 38.213C102.282 37.359 102.088 36.68 101.701 36.176C101.313 35.6673 100.732 35.413 99.9578 35.413C99.4305 35.413 98.9965 35.532 98.6558 35.77C98.3151 36.008 98.0608 36.337 97.8928 36.757C97.7248 37.177 97.6408 37.6623 97.6408 38.213C97.6408 39.0623 97.8368 39.7437 98.2288 40.257C98.6208 40.7703 99.1971 41.027 99.9578 41.027ZM105.139 42L105.146 34.44H106.406V38.08L109.577 34.44H111.194L107.855 38.22L111.586 42H109.843L106.406 38.36V42H105.139Z" fill="#333333"/>
<line y1="48.5" x2="114" y2="48.5" stroke="#FADE56" stroke-width="3"/>
</svg>
