<svg width="78" height="24" viewBox="0 0 78 24" fill="none" xmlns="http://www.w3.org/2000/svg">
<path d="M35.05 17V6.2H39.2575C39.9025 6.2 40.4525 6.3325 40.9075 6.5975C41.3675 6.8625 41.7175 7.2125 41.9575 7.6475C42.2025 8.0775 42.325 8.5425 42.325 9.0425C42.325 9.6275 42.175 10.14 41.875 10.58C41.575 11.02 41.17 11.3225 40.66 11.4875L40.645 11.12C41.34 11.305 41.88 11.645 42.265 12.14C42.65 12.635 42.8425 13.225 42.8425 13.91C42.8425 14.54 42.7125 15.085 42.4525 15.545C42.1975 16.005 41.8275 16.3625 41.3425 16.6175C40.8625 16.8725 40.2925 17 39.6325 17H35.05ZM36.4 15.725H39.3775C39.7775 15.725 40.135 15.6525 40.45 15.5075C40.765 15.3575 41.0125 15.1475 41.1925 14.8775C41.3775 14.6075 41.47 14.2825 41.47 13.9025C41.47 13.5375 41.3875 13.21 41.2225 12.92C41.0625 12.63 40.835 12.4 40.54 12.23C40.25 12.055 39.9125 11.9675 39.5275 11.9675H36.4V15.725ZM36.4 10.7075H39.2425C39.5625 10.7075 39.85 10.64 40.105 10.505C40.365 10.365 40.57 10.17 40.72 9.92C40.875 9.67 40.9525 9.3775 40.9525 9.0425C40.9525 8.5775 40.795 8.1975 40.48 7.9025C40.165 7.6075 39.7525 7.46 39.2425 7.46H36.4V10.7075ZM47.7871 17.225C46.9821 17.225 46.2871 17.0425 45.7021 16.6775C45.1221 16.3125 44.6746 15.8075 44.3596 15.1625C44.0446 14.5175 43.8871 13.7775 43.8871 12.9425C43.8871 12.0925 44.0471 11.3475 44.3671 10.7075C44.6871 10.0675 45.1396 9.57 45.7246 9.215C46.3096 8.855 46.9971 8.675 47.7871 8.675C48.5971 8.675 49.2946 8.8575 49.8796 9.2225C50.4646 9.5825 50.9121 10.085 51.2221 10.73C51.5371 11.37 51.6946 12.1075 51.6946 12.9425C51.6946 13.7875 51.5371 14.5325 51.2221 15.1775C50.9071 15.8175 50.4571 16.32 49.8721 16.685C49.2871 17.045 48.5921 17.225 47.7871 17.225ZM47.7871 15.9575C48.6271 15.9575 49.2521 15.6775 49.6621 15.1175C50.0721 14.5575 50.2771 13.8325 50.2771 12.9425C50.2771 12.0275 50.0696 11.3 49.6546 10.76C49.2396 10.215 48.6171 9.9425 47.7871 9.9425C47.2221 9.9425 46.7571 10.07 46.3921 10.325C46.0271 10.58 45.7546 10.9325 45.5746 11.3825C45.3946 11.8325 45.3046 12.3525 45.3046 12.9425C45.3046 13.8525 45.5146 14.5825 45.9346 15.1325C46.3546 15.6825 46.9721 15.9575 47.7871 15.9575ZM56.8334 7.955C56.4584 7.955 56.1159 7.8625 55.8059 7.6775C55.4959 7.4925 55.2484 7.2475 55.0634 6.9425C54.8784 6.6325 54.7859 6.2875 54.7859 5.9075H55.8659C55.8659 6.1725 55.9609 6.4 56.1509 6.59C56.3409 6.78 56.5684 6.875 56.8334 6.875C57.1034 6.875 57.3309 6.78 57.5159 6.59C57.7059 6.4 57.8009 6.1725 57.8009 5.9075H58.8809C58.8809 6.2875 58.7884 6.6325 58.6034 6.9425C58.4234 7.2475 58.1759 7.4925 57.8609 7.6775C57.5509 7.8625 57.2084 7.955 56.8334 7.955ZM59.9759 8.9V17H58.6859V11.03L54.4409 17H53.3384V8.9H54.6284V14.7875L58.8809 8.9H59.9759ZM64.2214 17V10.115H61.4014V8.9H68.3764V10.115H65.5564V17H64.2214ZM76.4261 8.9V17H75.1361V11.03L70.8911 17H69.7886V8.9H71.0786V14.7875L75.3311 8.9H76.4261Z" fill="#333333"/>
<path d="M11.25 19C11.25 18.5858 11.5858 18.25 12 18.25H18C18.1381 18.25 18.25 18.1381 18.25 18V6C18.25 5.86193 18.1381 5.75 18 5.75H12C11.5858 5.75 11.25 5.41421 11.25 5C11.25 4.58579 11.5858 4.25 12 4.25H18C18.9665 4.25 19.75 5.0335 19.75 6V18C19.75 18.9665 18.9665 19.75 18 19.75H12C11.5858 19.75 11.25 19.4142 11.25 19Z" fill="#333333"/>
<path d="M3.5 13.1151C3.5 13.6674 3.94771 14.1151 4.5 14.1151H9.35599C9.37892 14.4705 9.40762 14.8257 9.4421 15.1804L9.47176 15.4856C9.51999 15.9819 10.047 16.279 10.4966 16.0636C12.3245 15.1875 13.9793 13.9888 15.3813 12.5249L15.4113 12.4936C15.6784 12.2147 15.6784 11.775 15.4113 11.4961L15.3813 11.4648C13.9793 10.0009 12.3245 8.80215 10.4966 7.92614C10.047 7.71066 9.51999 8.00785 9.47176 8.50409L9.4421 8.80929C9.40762 9.16402 9.37892 9.51917 9.35599 9.87459L4.5 9.8746C3.94772 9.8746 3.5 10.3223 3.5 10.8746V13.1151Z" fill="#333333"/>
</svg>
