<svg width="329" height="99" viewBox="0 0 329 99" fill="none" xmlns="http://www.w3.org/2000/svg">
<path d="M99.501 19.0537H100.781L106.141 7.53371H104.885L101.413 15.0617L98.005 7.53371H96.701L100.797 16.3257L99.501 19.0537ZM107.518 19.0537H108.694V11.5417H113.214V19.0537H114.39V10.4137H107.518V19.0537ZM116.627 22.8937H117.811V18.0217C118.12 18.4164 118.502 18.7284 118.955 18.9577C119.408 19.1817 119.928 19.2937 120.515 19.2937C121.326 19.2937 122.016 19.0937 122.587 18.6937C123.158 18.2884 123.592 17.7417 123.891 17.0537C124.195 16.3657 124.347 15.5897 124.347 14.7257C124.347 13.867 124.195 13.0937 123.891 12.4057C123.592 11.7177 123.16 11.1737 122.595 10.7737C122.03 10.3737 121.352 10.1737 120.563 10.1737C119.923 10.1737 119.36 10.3017 118.875 10.5577C118.395 10.8084 117.998 11.1577 117.683 11.6057V10.4137H116.627V22.8937ZM120.395 18.1977C119.782 18.1977 119.275 18.0484 118.875 17.7497C118.475 17.4457 118.176 17.0324 117.979 16.5097C117.782 15.987 117.683 15.3924 117.683 14.7257C117.683 13.707 117.904 12.8777 118.347 12.2377C118.795 11.5924 119.47 11.2697 120.371 11.2697C120.99 11.2697 121.499 11.4217 121.899 11.7257C122.304 12.0297 122.606 12.443 122.803 12.9657C123 13.4884 123.099 14.075 123.099 14.7257C123.099 15.3817 122.998 15.971 122.795 16.4937C122.598 17.0164 122.299 17.4324 121.899 17.7417C121.499 18.0457 120.998 18.1977 120.395 18.1977ZM128.576 19.2937C130.085 19.2937 131.181 18.7364 131.864 17.6217V19.0537H132.912V13.6857C132.912 13.3657 132.896 13.051 132.864 12.7417C132.832 12.4324 132.763 12.1524 132.656 11.9017C132.427 11.3417 132.035 10.915 131.48 10.6217C130.931 10.323 130.261 10.1737 129.472 10.1737C128.523 10.1737 127.749 10.387 127.152 10.8137C126.555 11.2404 126.155 11.8404 125.952 12.6137L127.096 12.9497C127.261 12.3737 127.547 11.9524 127.952 11.6857C128.363 11.419 128.864 11.2857 129.456 11.2857C130.277 11.2857 130.864 11.4777 131.216 11.8617C131.568 12.2404 131.749 12.819 131.76 13.5977C131.376 13.651 130.952 13.707 130.488 13.7657C130.029 13.8244 129.568 13.891 129.104 13.9657C128.64 14.0404 128.213 14.1257 127.824 14.2217C127.179 14.3924 126.651 14.6777 126.24 15.0777C125.829 15.4724 125.624 16.0244 125.624 16.7337C125.624 17.1924 125.733 17.6164 125.952 18.0057C126.171 18.395 126.499 18.707 126.936 18.9417C127.379 19.1764 127.925 19.2937 128.576 19.2937ZM128.712 18.2777C128.248 18.2777 127.875 18.203 127.592 18.0537C127.315 17.899 127.112 17.7044 126.984 17.4697C126.861 17.2297 126.8 16.9844 126.8 16.7337C126.8 16.2644 126.957 15.9124 127.272 15.6777C127.587 15.443 127.928 15.2724 128.296 15.1657C128.771 15.0377 129.323 14.9337 129.952 14.8537C130.581 14.7737 131.179 14.699 131.744 14.6297C131.744 14.827 131.736 15.0537 131.72 15.3097C131.709 15.5604 131.68 15.7924 131.632 16.0057C131.52 16.6564 131.211 17.1977 130.704 17.6297C130.203 18.0617 129.539 18.2777 128.712 18.2777ZM134.987 19.0537H139.011C139.229 19.0537 139.461 19.0457 139.707 19.0297C139.957 19.0137 140.189 18.9764 140.403 18.9177C140.877 18.779 141.256 18.523 141.539 18.1497C141.821 17.7764 141.963 17.2937 141.963 16.7017C141.963 15.8484 141.648 15.2324 141.019 14.8537C140.827 14.7364 140.643 14.6617 140.467 14.6297C140.664 14.5444 140.845 14.411 141.011 14.2297C141.181 14.0537 141.312 13.8457 141.403 13.6057C141.499 13.3604 141.547 13.083 141.547 12.7737C141.547 12.219 141.397 11.747 141.099 11.3577C140.805 10.963 140.416 10.699 139.931 10.5657C139.707 10.507 139.464 10.467 139.203 10.4457C138.947 10.4244 138.728 10.4137 138.547 10.4137H134.987V19.0537ZM136.171 14.2297V11.4217H138.427C138.485 11.4217 138.624 11.427 138.843 11.4377C139.067 11.4484 139.275 11.4884 139.467 11.5577C139.749 11.6484 139.96 11.811 140.099 12.0457C140.243 12.275 140.315 12.539 140.315 12.8377C140.315 13.115 140.248 13.371 140.115 13.6057C139.987 13.8404 139.784 14.0057 139.507 14.1017C139.373 14.1497 139.221 14.1844 139.051 14.2057C138.88 14.2217 138.725 14.2297 138.587 14.2297H136.171ZM136.171 18.0537V15.2377H138.787C138.893 15.2377 139.013 15.2404 139.147 15.2457C139.285 15.251 139.413 15.267 139.531 15.2937C139.893 15.347 140.187 15.4964 140.411 15.7417C140.635 15.9817 140.747 16.291 140.747 16.6697C140.747 16.9577 140.672 17.2244 140.523 17.4697C140.379 17.7097 140.149 17.8697 139.835 17.9497C139.701 17.987 139.549 18.0137 139.379 18.0297C139.208 18.0457 139.067 18.0537 138.955 18.0537H136.171ZM142.757 19.0537C143.301 19.1604 143.728 19.1684 144.037 19.0777C144.346 18.987 144.581 18.8004 144.741 18.5177C144.901 18.235 145.026 17.8564 145.117 17.3817C145.202 16.9604 145.282 16.4377 145.357 15.8137C145.432 15.1897 145.501 14.5097 145.565 13.7737C145.629 13.0377 145.688 12.2937 145.741 11.5417H149.357V19.0537H150.525V10.4137H144.653C144.568 11.7844 144.48 12.987 144.389 14.0217C144.304 15.0564 144.194 15.963 144.061 16.7417C143.981 17.211 143.864 17.563 143.709 17.7977C143.56 18.0324 143.242 18.107 142.757 18.0217V19.0537ZM156.416 19.2937C157.253 19.2937 158.003 19.0884 158.664 18.6777C159.331 18.267 159.835 17.683 160.176 16.9257L159.08 16.5017C158.531 17.611 157.627 18.1657 156.368 18.1657C155.504 18.1657 154.827 17.8964 154.336 17.3577C153.851 16.819 153.584 16.0537 153.536 15.0617H160.344C160.387 13.5364 160.053 12.3417 159.344 11.4777C158.64 10.6084 157.648 10.1737 156.368 10.1737C155.536 10.1737 154.813 10.3604 154.2 10.7337C153.592 11.107 153.12 11.6377 152.784 12.3257C152.448 13.0137 152.28 13.8297 152.28 14.7737C152.28 15.6857 152.448 16.4804 152.784 17.1577C153.125 17.835 153.605 18.3604 154.224 18.7337C154.848 19.107 155.579 19.2937 156.416 19.2937ZM156.4 11.2537C158.027 11.2537 158.931 12.195 159.112 14.0777H153.56C153.651 13.1657 153.939 12.467 154.424 11.9817C154.909 11.4964 155.568 11.2537 156.4 11.2537ZM162.112 19.0537H163.288V15.2937H168.16V19.0537H169.336V10.4137H168.16V14.1657H163.288V10.4137H162.112V19.0537ZM178.437 10.4137H177.453L172.709 17.0857V10.4137H171.565V19.0537H172.557L177.293 12.3257V19.0537H178.437V10.4137ZM184.338 19.2937C185.175 19.2937 185.925 19.0884 186.586 18.6777C187.253 18.267 187.757 17.683 188.098 16.9257L187.002 16.5017C186.453 17.611 185.549 18.1657 184.29 18.1657C183.426 18.1657 182.749 17.8964 182.258 17.3577C181.773 16.819 181.506 16.0537 181.458 15.0617H188.266C188.309 13.5364 187.975 12.3417 187.266 11.4777C186.562 10.6084 185.57 10.1737 184.29 10.1737C183.458 10.1737 182.735 10.3604 182.122 10.7337C181.514 11.107 181.042 11.6377 180.706 12.3257C180.37 13.0137 180.202 13.8297 180.202 14.7737C180.202 15.6857 180.37 16.4804 180.706 17.1577C181.047 17.835 181.527 18.3604 182.146 18.7337C182.77 19.107 183.501 19.2937 184.338 19.2937ZM184.322 11.2537C185.949 11.2537 186.853 12.195 187.034 14.0777H181.482C181.573 13.1657 181.861 12.467 182.346 11.9817C182.831 11.4964 183.49 11.2537 184.322 11.2537ZM193.237 19.0537H194.413V15.2937H199.285V19.0537H200.461V10.4137H199.285V14.1657H194.413V10.4137H193.237V19.0537ZM205.17 19.2937C206.679 19.2937 207.775 18.7364 208.458 17.6217V19.0537H209.506V13.6857C209.506 13.3657 209.49 13.051 209.458 12.7417C209.426 12.4324 209.356 12.1524 209.25 11.9017C209.02 11.3417 208.628 10.915 208.074 10.6217C207.524 10.323 206.855 10.1737 206.066 10.1737C205.116 10.1737 204.343 10.387 203.746 10.8137C203.148 11.2404 202.748 11.8404 202.546 12.6137L203.69 12.9497C203.855 12.3737 204.14 11.9524 204.546 11.6857C204.956 11.419 205.458 11.2857 206.05 11.2857C206.871 11.2857 207.458 11.4777 207.81 11.8617C208.162 12.2404 208.343 12.819 208.354 13.5977C207.97 13.651 207.546 13.707 207.082 13.7657C206.623 13.8244 206.162 13.891 205.698 13.9657C205.234 14.0404 204.807 14.1257 204.418 14.2217C203.772 14.3924 203.244 14.6777 202.834 15.0777C202.423 15.4724 202.218 16.0244 202.218 16.7337C202.218 17.1924 202.327 17.6164 202.546 18.0057C202.764 18.395 203.092 18.707 203.53 18.9417C203.972 19.1764 204.519 19.2937 205.17 19.2937ZM205.306 18.2777C204.842 18.2777 204.468 18.203 204.186 18.0537C203.908 17.899 203.706 17.7044 203.578 17.4697C203.455 17.2297 203.394 16.9844 203.394 16.7337C203.394 16.2644 203.551 15.9124 203.866 15.6777C204.18 15.443 204.522 15.2724 204.89 15.1657C205.364 15.0377 205.916 14.9337 206.546 14.8537C207.175 14.7737 207.772 14.699 208.338 14.6297C208.338 14.827 208.33 15.0537 208.314 15.3097C208.303 15.5604 208.274 15.7924 208.226 16.0057C208.114 16.6564 207.804 17.1977 207.298 17.6297C206.796 18.0617 206.132 18.2777 205.306 18.2777ZM214.783 19.0537H215.927V12.9257L218.831 19.0537H219.575L222.479 12.9257V19.0537H223.615V10.4137H222.575L219.199 17.4857L215.831 10.4137H214.783V19.0537ZM229.462 19.2937C230.315 19.2937 231.046 19.1017 231.654 18.7177C232.267 18.3337 232.737 17.8004 233.062 17.1177C233.393 16.4297 233.558 15.6324 233.558 14.7257C233.558 13.835 233.395 13.0484 233.07 12.3657C232.75 11.6777 232.283 11.1417 231.67 10.7577C231.062 10.3684 230.326 10.1737 229.462 10.1737C228.619 10.1737 227.891 10.3657 227.278 10.7497C226.67 11.1284 226.201 11.659 225.87 12.3417C225.539 13.0244 225.374 13.819 225.374 14.7257C225.374 15.6164 225.534 16.4057 225.854 17.0937C226.179 17.7817 226.646 18.3204 227.254 18.7097C227.867 19.099 228.603 19.2937 229.462 19.2937ZM229.462 18.1657C228.529 18.1657 227.822 17.8537 227.342 17.2297C226.862 16.6004 226.622 15.7657 226.622 14.7257C226.622 13.7177 226.854 12.8964 227.318 12.2617C227.782 11.6217 228.497 11.3017 229.462 11.3017C230.417 11.3017 231.129 11.6137 231.598 12.2377C232.073 12.8564 232.31 13.6857 232.31 14.7257C232.31 15.7444 232.075 16.5737 231.606 17.2137C231.137 17.8484 230.422 18.1657 229.462 18.1657ZM235.315 19.0537H236.507V14.8937L240.747 19.0537H242.459L237.883 14.7337L241.931 10.4137H240.363L236.507 14.5737V10.4137H235.323L235.315 19.0537ZM243.252 22.8937H244.436V18.0217C244.745 18.4164 245.127 18.7284 245.58 18.9577C246.033 19.1817 246.553 19.2937 247.14 19.2937C247.951 19.2937 248.641 19.0937 249.212 18.6937C249.783 18.2884 250.217 17.7417 250.516 17.0537C250.82 16.3657 250.972 15.5897 250.972 14.7257C250.972 13.867 250.82 13.0937 250.516 12.4057C250.217 11.7177 249.785 11.1737 249.22 10.7737C248.655 10.3737 247.977 10.1737 247.188 10.1737C246.548 10.1737 245.985 10.3017 245.5 10.5577C245.02 10.8084 244.623 11.1577 244.308 11.6057V10.4137H243.252V22.8937ZM247.02 18.1977C246.407 18.1977 245.9 18.0484 245.5 17.7497C245.1 17.4457 244.801 17.0324 244.604 16.5097C244.407 15.987 244.308 15.3924 244.308 14.7257C244.308 13.707 244.529 12.8777 244.972 12.2377C245.42 11.5924 246.095 11.2697 246.996 11.2697C247.615 11.2697 248.124 11.4217 248.524 11.7257C248.929 12.0297 249.231 12.443 249.428 12.9657C249.625 13.4884 249.724 14.075 249.724 14.7257C249.724 15.3817 249.623 15.971 249.42 16.4937C249.223 17.0164 248.924 17.4324 248.524 17.7417C248.124 18.0457 247.623 18.1977 247.02 18.1977ZM256.337 19.2937C257.19 19.2937 257.921 19.1017 258.529 18.7177C259.142 18.3337 259.612 17.8004 259.937 17.1177C260.268 16.4297 260.433 15.6324 260.433 14.7257C260.433 13.835 260.27 13.0484 259.945 12.3657C259.625 11.6777 259.158 11.1417 258.545 10.7577C257.937 10.3684 257.201 10.1737 256.337 10.1737C255.494 10.1737 254.766 10.3657 254.153 10.7497C253.545 11.1284 253.076 11.659 252.745 12.3417C252.414 13.0244 252.249 13.819 252.249 14.7257C252.249 15.6164 252.409 16.4057 252.729 17.0937C253.054 17.7817 253.521 18.3204 254.129 18.7097C254.742 19.099 255.478 19.2937 256.337 19.2937ZM256.337 18.1657C255.404 18.1657 254.697 17.8537 254.217 17.2297C253.737 16.6004 253.497 15.7657 253.497 14.7257C253.497 13.7177 253.729 12.8964 254.193 12.2617C254.657 11.6217 255.372 11.3017 256.337 11.3017C257.292 11.3017 258.004 11.6137 258.473 12.2377C258.948 12.8564 259.185 13.6857 259.185 14.7257C259.185 15.7444 258.95 16.5737 258.481 17.2137C258.012 17.8484 257.297 18.1657 256.337 18.1657ZM265.782 9.38971C266.166 9.38971 266.512 9.29904 266.822 9.11771C267.136 8.93104 267.384 8.68038 267.566 8.36571C267.752 8.05104 267.846 7.70438 267.846 7.32571H266.87C266.87 7.62438 266.763 7.88038 266.55 8.09371C266.342 8.30704 266.086 8.41371 265.782 8.41371C265.483 8.41371 265.227 8.30704 265.014 8.09371C264.8 7.88038 264.694 7.62438 264.694 7.32571H263.718C263.718 7.70438 263.808 8.05104 263.99 8.36571C264.176 8.68038 264.427 8.93104 264.742 9.11771C265.056 9.29904 265.403 9.38971 265.782 9.38971ZM269.062 10.4137H268.078L263.334 17.0857V10.4137H262.19V19.0537H263.182L267.918 12.3257V19.0537H269.062V10.4137ZM273.87 20.9737H274.998V19.0537H281.35V20.9737H282.486V18.0457H281.654V10.4137H275.942C275.905 11.3204 275.865 12.1124 275.822 12.7897C275.779 13.4617 275.729 14.059 275.67 14.5817C275.611 15.1044 275.537 15.5924 275.446 16.0457C275.313 16.7444 275.139 17.2537 274.926 17.5737C274.713 17.8884 274.361 18.0457 273.87 18.0457V20.9737ZM275.862 18.0457C276.049 17.8697 276.187 17.6457 276.278 17.3737C276.374 17.1017 276.462 16.7737 276.542 16.3897C276.638 15.995 276.715 15.5124 276.774 14.9417C276.838 14.371 276.889 13.7764 276.926 13.1577C276.969 12.539 277.003 11.9604 277.03 11.4217H280.486V18.0457H275.862ZM287.384 19.2937C288.237 19.2937 288.968 19.1017 289.576 18.7177C290.189 18.3337 290.658 17.8004 290.984 17.1177C291.314 16.4297 291.48 15.6324 291.48 14.7257C291.48 13.835 291.317 13.0484 290.992 12.3657C290.672 11.6777 290.205 11.1417 289.592 10.7577C288.984 10.3684 288.248 10.1737 287.384 10.1737C286.541 10.1737 285.813 10.3657 285.2 10.7497C284.592 11.1284 284.122 11.659 283.792 12.3417C283.461 13.0244 283.296 13.819 283.296 14.7257C283.296 15.6164 283.456 16.4057 283.776 17.0937C284.101 17.7817 284.568 18.3204 285.176 18.7097C285.789 19.099 286.525 19.2937 287.384 19.2937ZM287.384 18.1657C286.45 18.1657 285.744 17.8537 285.264 17.2297C284.784 16.6004 284.544 15.7657 284.544 14.7257C284.544 13.7177 284.776 12.8964 285.24 12.2617C285.704 11.6217 286.418 11.3017 287.384 11.3017C288.338 11.3017 289.05 11.6137 289.52 12.2377C289.994 12.8564 290.232 13.6857 290.232 14.7257C290.232 15.7444 289.997 16.5737 289.528 17.2137C289.058 17.8484 288.344 18.1657 287.384 18.1657ZM293.237 22.8937H294.421V18.0217C294.73 18.4164 295.111 18.7284 295.565 18.9577C296.018 19.1817 296.538 19.2937 297.125 19.2937C297.935 19.2937 298.626 19.0937 299.197 18.6937C299.767 18.2884 300.202 17.7417 300.501 17.0537C300.805 16.3657 300.957 15.5897 300.957 14.7257C300.957 13.867 300.805 13.0937 300.501 12.4057C300.202 11.7177 299.77 11.1737 299.205 10.7737C298.639 10.3737 297.962 10.1737 297.173 10.1737C296.533 10.1737 295.97 10.3017 295.485 10.5577C295.005 10.8084 294.607 11.1577 294.293 11.6057V10.4137H293.237V22.8937ZM297.005 18.1977C296.391 18.1977 295.885 18.0484 295.485 17.7497C295.085 17.4457 294.786 17.0324 294.589 16.5097C294.391 15.987 294.293 15.3924 294.293 14.7257C294.293 13.707 294.514 12.8777 294.957 12.2377C295.405 11.5924 296.079 11.2697 296.981 11.2697C297.599 11.2697 298.109 11.4217 298.509 11.7257C298.914 12.0297 299.215 12.443 299.413 12.9657C299.61 13.4884 299.709 14.075 299.709 14.7257C299.709 15.3817 299.607 15.971 299.405 16.4937C299.207 17.0164 298.909 17.4324 298.509 17.7417C298.109 18.0457 297.607 18.1977 297.005 18.1977ZM306.321 19.2937C307.175 19.2937 307.905 19.1017 308.513 18.7177C309.127 18.3337 309.596 17.8004 309.921 17.1177C310.252 16.4297 310.417 15.6324 310.417 14.7257C310.417 13.835 310.255 13.0484 309.929 12.3657C309.609 11.6777 309.143 11.1417 308.529 10.7577C307.921 10.3684 307.185 10.1737 306.321 10.1737C305.479 10.1737 304.751 10.3657 304.137 10.7497C303.529 11.1284 303.06 11.659 302.729 12.3417C302.399 13.0244 302.233 13.819 302.233 14.7257C302.233 15.6164 302.393 16.4057 302.713 17.0937C303.039 17.7817 303.505 18.3204 304.113 18.7097C304.727 19.099 305.463 19.2937 306.321 19.2937ZM306.321 18.1657C305.388 18.1657 304.681 17.8537 304.201 17.2297C303.721 16.6004 303.481 15.7657 303.481 14.7257C303.481 13.7177 303.713 12.8964 304.177 12.2617C304.641 11.6217 305.356 11.3017 306.321 11.3017C307.276 11.3017 307.988 11.6137 308.457 12.2377C308.932 12.8564 309.169 13.6857 309.169 14.7257C309.169 15.7444 308.935 16.5737 308.465 17.2137C307.996 17.8484 307.281 18.1657 306.321 18.1657ZM312.182 19.0537H313.358V11.5417H318.102V10.4137H312.182V19.0537ZM323.276 19.2937C324.113 19.2937 324.862 19.0884 325.524 18.6777C326.19 18.267 326.694 17.683 327.036 16.9257L325.94 16.5017C325.39 17.611 324.486 18.1657 323.228 18.1657C322.364 18.1657 321.686 17.8964 321.196 17.3577C320.71 16.819 320.444 16.0537 320.396 15.0617H327.204C327.246 13.5364 326.913 12.3417 326.204 11.4777C325.5 10.6084 324.508 10.1737 323.228 10.1737C322.396 10.1737 321.673 10.3604 321.06 10.7337C320.452 11.107 319.98 11.6377 319.644 12.3257C319.308 13.0137 319.14 13.8297 319.14 14.7737C319.14 15.6857 319.308 16.4804 319.644 17.1577C319.985 17.835 320.465 18.3604 321.084 18.7337C321.708 19.107 322.438 19.2937 323.276 19.2937ZM323.26 11.2537C324.886 11.2537 325.79 12.195 325.972 14.0777H320.42C320.51 13.1657 320.798 12.467 321.284 11.9817C321.769 11.4964 322.428 11.2537 323.26 11.2537Z" fill="#333333"/>
<path d="M97.557 55.0537H102.005C102.117 55.0537 102.242 55.051 102.381 55.0457C102.525 55.035 102.669 55.019 102.813 54.9977C103.405 54.9177 103.909 54.715 104.325 54.3897C104.746 54.0644 105.066 53.6537 105.285 53.1577C105.509 52.6617 105.621 52.1204 105.621 51.5337C105.621 50.9417 105.509 50.4004 105.285 49.9097C105.066 49.4137 104.746 49.003 104.325 48.6777C103.909 48.3524 103.405 48.1497 102.813 48.0697C102.669 48.0484 102.525 48.035 102.381 48.0297C102.237 48.019 102.112 48.0137 102.005 48.0137H98.733V44.6617H104.669V43.5337H97.557V55.0537ZM98.733 53.9257V49.1417H101.973C102.069 49.1417 102.181 49.147 102.309 49.1577C102.442 49.163 102.568 49.179 102.685 49.2057C103.277 49.323 103.712 49.6057 103.989 50.0537C104.272 50.5017 104.413 50.995 104.413 51.5337C104.413 52.067 104.272 52.5604 103.989 53.0137C103.712 53.4617 103.277 53.7444 102.685 53.8617C102.568 53.883 102.442 53.899 102.309 53.9097C102.181 53.9204 102.069 53.9257 101.973 53.9257H98.733ZM110.869 55.2937C111.707 55.2937 112.456 55.0884 113.117 54.6777C113.784 54.267 114.288 53.683 114.629 52.9257L113.533 52.5017C112.984 53.611 112.08 54.1657 110.821 54.1657C109.957 54.1657 109.28 53.8964 108.789 53.3577C108.304 52.819 108.037 52.0537 107.989 51.0617H114.797C114.84 49.5364 114.507 48.3417 113.797 47.4777C113.093 46.6084 112.101 46.1737 110.821 46.1737C109.989 46.1737 109.267 46.3604 108.653 46.7337C108.045 47.107 107.573 47.6377 107.237 48.3257C106.901 49.0137 106.733 49.8297 106.733 50.7737C106.733 51.6857 106.901 52.4804 107.237 53.1577C107.579 53.835 108.059 54.3604 108.677 54.7337C109.301 55.107 110.032 55.2937 110.869 55.2937ZM110.853 47.2537C112.48 47.2537 113.384 48.195 113.565 50.0777H108.013C108.104 49.1657 108.392 48.467 108.877 47.9817C109.363 47.4964 110.021 47.2537 110.853 47.2537ZM120.157 55.2937C121.015 55.2937 121.751 55.0937 122.365 54.6937C122.983 54.2884 123.455 53.7017 123.781 52.9337L122.597 52.5817C122.159 53.6377 121.346 54.1657 120.157 54.1657C119.229 54.1657 118.53 53.8537 118.061 53.2297C117.591 52.6004 117.351 51.7684 117.341 50.7337C117.351 49.7257 117.583 48.9017 118.037 48.2617C118.495 47.6217 119.202 47.3017 120.157 47.3017C120.722 47.3017 121.223 47.4457 121.661 47.7337C122.103 48.0164 122.426 48.4164 122.629 48.9337L123.781 48.5657C123.541 47.8244 123.095 47.2404 122.445 46.8137C121.799 46.387 121.039 46.1737 120.165 46.1737C119.306 46.1737 118.575 46.3657 117.973 46.7497C117.37 47.1284 116.909 47.6617 116.589 48.3497C116.269 49.0324 116.103 49.827 116.093 50.7337C116.103 51.619 116.263 52.4057 116.573 53.0937C116.887 53.7817 117.346 54.3204 117.949 54.7097C118.551 55.099 119.287 55.2937 120.157 55.2937ZM125.424 55.0537H135.328V46.4137H134.184V53.9657H130.952V46.4137H129.808V53.9657H126.568V46.4137H125.424V55.0537ZM138.805 58.8937H139.981L144.621 46.4137H143.421L140.805 53.5177L137.965 46.4137H136.717L140.229 55.0297L138.805 58.8937ZM146.002 55.0537H147.146V48.9257L150.05 55.0537H150.794L153.698 48.9257V55.0537H154.834V46.4137H153.794L150.418 53.4857L147.05 46.4137H146.002V55.0537ZM157.065 55.0537H158.241V51.2937H163.113V55.0537H164.289V46.4137H163.113V50.1657H158.241V46.4137H157.065V55.0537ZM170.134 55.2937C170.987 55.2937 171.718 55.1017 172.326 54.7177C172.939 54.3337 173.408 53.8004 173.734 53.1177C174.064 52.4297 174.23 51.6324 174.23 50.7257C174.23 49.835 174.067 49.0484 173.742 48.3657C173.422 47.6777 172.955 47.1417 172.342 46.7577C171.734 46.3684 170.998 46.1737 170.134 46.1737C169.291 46.1737 168.563 46.3657 167.95 46.7497C167.342 47.1284 166.872 47.659 166.542 48.3417C166.211 49.0244 166.046 49.819 166.046 50.7257C166.046 51.6164 166.206 52.4057 166.526 53.0937C166.851 53.7817 167.318 54.3204 167.926 54.7097C168.539 55.099 169.275 55.2937 170.134 55.2937ZM170.134 54.1657C169.2 54.1657 168.494 53.8537 168.014 53.2297C167.534 52.6004 167.294 51.7657 167.294 50.7257C167.294 49.7177 167.526 48.8964 167.99 48.2617C168.454 47.6217 169.168 47.3017 170.134 47.3017C171.088 47.3017 171.8 47.6137 172.27 48.2377C172.744 48.8564 172.982 49.6857 172.982 50.7257C172.982 51.7444 172.747 52.5737 172.278 53.2137C171.808 53.8484 171.094 54.1657 170.134 54.1657ZM179.579 55.2937C180.437 55.2937 181.173 55.0937 181.787 54.6937C182.405 54.2884 182.877 53.7017 183.203 52.9337L182.019 52.5817C181.581 53.6377 180.768 54.1657 179.579 54.1657C178.651 54.1657 177.952 53.8537 177.483 53.2297C177.013 52.6004 176.773 51.7684 176.763 50.7337C176.773 49.7257 177.005 48.9017 177.459 48.2617C177.917 47.6217 178.624 47.3017 179.579 47.3017C180.144 47.3017 180.645 47.4457 181.083 47.7337C181.525 48.0164 181.848 48.4164 182.051 48.9337L183.203 48.5657C182.963 47.8244 182.517 47.2404 181.867 46.8137C181.221 46.387 180.461 46.1737 179.587 46.1737C178.728 46.1737 177.997 46.3657 177.395 46.7497C176.792 47.1284 176.331 47.6617 176.011 48.3497C175.691 49.0324 175.525 49.827 175.515 50.7337C175.525 51.619 175.685 52.4057 175.995 53.0937C176.309 53.7817 176.768 54.3204 177.371 54.7097C177.973 55.099 178.709 55.2937 179.579 55.2937ZM186.979 55.0537H188.155V47.5017H191.219V46.4137H183.915V47.5017H186.979V55.0537ZM192.753 55.0537H196.049C196.299 55.0537 196.553 55.0484 196.809 55.0377C197.065 55.0217 197.302 54.9897 197.521 54.9417C198.102 54.8137 198.582 54.5364 198.961 54.1097C199.345 53.683 199.537 53.099 199.537 52.3577C199.537 51.547 199.329 50.939 198.913 50.5337C198.497 50.1284 197.969 49.867 197.329 49.7497C197.137 49.7177 196.921 49.6964 196.681 49.6857C196.441 49.675 196.195 49.6697 195.945 49.6697H193.921V46.4137H192.737L192.753 55.0537ZM193.921 54.0457V50.6777H196.001C196.177 50.6777 196.361 50.683 196.553 50.6937C196.745 50.7044 196.923 50.7284 197.089 50.7657C197.462 50.8457 197.761 51.011 197.985 51.2617C198.209 51.507 198.321 51.8724 198.321 52.3577C198.321 52.8537 198.203 53.2217 197.969 53.4617C197.739 53.7017 197.483 53.8617 197.201 53.9417C197.025 53.9897 196.825 54.019 196.601 54.0297C196.377 54.0404 196.177 54.0457 196.001 54.0457H193.921ZM204.487 55.0537H208.511C208.729 55.0537 208.961 55.0457 209.207 55.0297C209.457 55.0137 209.689 54.9764 209.903 54.9177C210.377 54.779 210.756 54.523 211.039 54.1497C211.321 53.7764 211.463 53.2937 211.463 52.7017C211.463 51.8484 211.148 51.2324 210.519 50.8537C210.327 50.7364 210.143 50.6617 209.967 50.6297C210.164 50.5444 210.345 50.411 210.511 50.2297C210.681 50.0537 210.812 49.8457 210.903 49.6057C210.999 49.3604 211.047 49.083 211.047 48.7737C211.047 48.219 210.897 47.747 210.599 47.3577C210.305 46.963 209.916 46.699 209.431 46.5657C209.207 46.507 208.964 46.467 208.703 46.4457C208.447 46.4244 208.228 46.4137 208.047 46.4137H204.487V55.0537ZM205.671 50.2297V47.4217H207.927C207.985 47.4217 208.124 47.427 208.343 47.4377C208.567 47.4484 208.775 47.4884 208.967 47.5577C209.249 47.6484 209.46 47.811 209.599 48.0457C209.743 48.275 209.815 48.539 209.815 48.8377C209.815 49.115 209.748 49.371 209.615 49.6057C209.487 49.8404 209.284 50.0057 209.007 50.1017C208.873 50.1497 208.721 50.1844 208.551 50.2057C208.38 50.2217 208.225 50.2297 208.087 50.2297H205.671ZM205.671 54.0537V51.2377H208.287C208.393 51.2377 208.513 51.2404 208.647 51.2457C208.785 51.251 208.913 51.267 209.031 51.2937C209.393 51.347 209.687 51.4964 209.911 51.7417C210.135 51.9817 210.247 52.291 210.247 52.6697C210.247 52.9577 210.172 53.2244 210.023 53.4697C209.879 53.7097 209.649 53.8697 209.335 53.9497C209.201 53.987 209.049 54.0137 208.879 54.0297C208.708 54.0457 208.567 54.0537 208.455 54.0537H205.671ZM215.62 56.9737H216.748V55.0537H223.1V56.9737H224.236V54.0457H223.404V46.4137H217.692C217.655 47.3204 217.615 48.1124 217.572 48.7897C217.529 49.4617 217.479 50.059 217.42 50.5817C217.361 51.1044 217.287 51.5924 217.196 52.0457C217.063 52.7444 216.889 53.2537 216.676 53.5737C216.463 53.8884 216.111 54.0457 215.62 54.0457V56.9737ZM217.612 54.0457C217.799 53.8697 217.937 53.6457 218.028 53.3737C218.124 53.1017 218.212 52.7737 218.292 52.3897C218.388 51.995 218.465 51.5124 218.524 50.9417C218.588 50.371 218.639 49.7764 218.676 49.1577C218.719 48.539 218.753 47.9604 218.78 47.4217H222.236V54.0457H217.612ZM225.83 55.0537H229.854C230.073 55.0537 230.305 55.0457 230.55 55.0297C230.801 55.0137 231.033 54.9764 231.246 54.9177C231.721 54.779 232.1 54.523 232.382 54.1497C232.665 53.7764 232.806 53.2937 232.806 52.7017C232.806 51.8484 232.492 51.2324 231.862 50.8537C231.67 50.7364 231.486 50.6617 231.31 50.6297C231.508 50.5444 231.689 50.411 231.854 50.2297C232.025 50.0537 232.156 49.8457 232.246 49.6057C232.342 49.3604 232.39 49.083 232.39 48.7737C232.39 48.219 232.241 47.747 231.942 47.3577C231.649 46.963 231.26 46.699 230.774 46.5657C230.55 46.507 230.308 46.467 230.046 46.4457C229.79 46.4244 229.572 46.4137 229.39 46.4137H225.83V55.0537ZM227.014 50.2297V47.4217H229.27C229.329 47.4217 229.468 47.427 229.686 47.4377C229.91 47.4484 230.118 47.4884 230.31 47.5577C230.593 47.6484 230.804 47.811 230.942 48.0457C231.086 48.275 231.158 48.539 231.158 48.8377C231.158 49.115 231.092 49.371 230.958 49.6057C230.83 49.8404 230.628 50.0057 230.35 50.1017C230.217 50.1497 230.065 50.1844 229.894 50.2057C229.724 50.2217 229.569 50.2297 229.43 50.2297H227.014ZM227.014 54.0537V51.2377H229.63C229.737 51.2377 229.857 51.2404 229.99 51.2457C230.129 51.251 230.257 51.267 230.374 51.2937C230.737 51.347 231.03 51.4964 231.254 51.7417C231.478 51.9817 231.59 52.291 231.59 52.6697C231.59 52.9577 231.516 53.2244 231.366 53.4697C231.222 53.7097 230.993 53.8697 230.678 53.9497C230.545 53.987 230.393 54.0137 230.222 54.0297C230.052 54.0457 229.91 54.0537 229.798 54.0537H227.014ZM241.265 46.4137H240.281L235.537 53.0857V46.4137H234.393V55.0537H235.385L240.121 48.3257V55.0537H241.265V46.4137ZM242.55 55.0537H243.918L247.438 50.7897V55.0537H248.526V50.7897L252.038 55.0537H253.406L249.758 50.7337L253.254 46.4137H251.934L248.526 50.6777V46.4137H247.438V50.6777L244.03 46.4137H242.702L246.198 50.7337L242.55 55.0537ZM258.026 55.2937C258.863 55.2937 259.612 55.0884 260.274 54.6777C260.94 54.267 261.444 53.683 261.786 52.9257L260.69 52.5017C260.14 53.611 259.236 54.1657 257.978 54.1657C257.114 54.1657 256.436 53.8964 255.946 53.3577C255.46 52.819 255.194 52.0537 255.146 51.0617H261.954C261.996 49.5364 261.663 48.3417 260.954 47.4777C260.25 46.6084 259.258 46.1737 257.978 46.1737C257.146 46.1737 256.423 46.3604 255.81 46.7337C255.202 47.107 254.73 47.6377 254.394 48.3257C254.058 49.0137 253.89 49.8297 253.89 50.7737C253.89 51.6857 254.058 52.4804 254.394 53.1577C254.735 53.835 255.215 54.3604 255.834 54.7337C256.458 55.107 257.188 55.2937 258.026 55.2937ZM258.01 47.2537C259.636 47.2537 260.54 48.195 260.722 50.0777H255.17C255.26 49.1657 255.548 48.467 256.034 47.9817C256.519 47.4964 257.178 47.2537 258.01 47.2537ZM263.721 55.0537H264.897V51.2937H269.769V55.0537H270.945V46.4137H269.769V50.1657H264.897V46.4137H263.721V55.0537ZM280.046 46.4137H279.062L274.318 53.0857V46.4137H273.174V55.0537H274.166L278.902 48.3257V55.0537H280.046V46.4137ZM289.155 46.4137H288.171L283.427 53.0857V46.4137H282.283V55.0537H283.275L288.011 48.3257V55.0537H289.155V46.4137Z" fill="#333333"/>
<path d="M102.221 91.2937C103.56 91.2937 104.653 90.9524 105.501 90.2697C106.349 89.5817 106.93 88.6617 107.245 87.5097L106.045 87.1977C105.8 88.1044 105.36 88.827 104.725 89.3657C104.09 89.899 103.256 90.1657 102.221 90.1657C101.32 90.1657 100.565 89.9604 99.957 89.5497C99.3543 89.1337 98.901 88.5604 98.597 87.8297C98.2983 87.099 98.1517 86.2537 98.157 85.2937C98.1677 84.3337 98.3223 83.4884 98.621 82.7577C98.9197 82.0217 99.3677 81.4484 99.965 81.0377C100.568 80.627 101.32 80.4217 102.221 80.4217C103.256 80.4217 104.09 80.691 104.725 81.2297C105.36 81.763 105.8 82.483 106.045 83.3897L107.245 83.0777C106.93 81.9257 106.349 81.0084 105.501 80.3257C104.653 79.6377 103.56 79.2937 102.221 79.2937C101.074 79.2937 100.106 79.547 99.317 80.0537C98.5277 80.5604 97.9303 81.2644 97.525 82.1657C97.1197 83.067 96.917 84.1097 96.917 85.2937C96.917 86.4724 97.1197 87.515 97.525 88.4217C97.9303 89.323 98.5277 90.027 99.317 90.5337C100.106 91.0404 101.074 91.2937 102.221 91.2937ZM109.002 91.0537H110.194V86.8937L114.434 91.0537H116.146L111.57 86.7337L115.618 82.4137H114.05L110.194 86.5737V82.4137H109.01L109.002 91.0537ZM120.399 91.2937C121.253 91.2937 121.983 91.1017 122.591 90.7177C123.205 90.3337 123.674 89.8004 123.999 89.1177C124.33 88.4297 124.495 87.6324 124.495 86.7257C124.495 85.835 124.333 85.0484 124.007 84.3657C123.687 83.6777 123.221 83.1417 122.607 82.7577C121.999 82.3684 121.263 82.1737 120.399 82.1737C119.557 82.1737 118.829 82.3657 118.215 82.7497C117.607 83.1284 117.138 83.659 116.807 84.3417C116.477 85.0244 116.311 85.819 116.311 86.7257C116.311 87.6164 116.471 88.4057 116.791 89.0937C117.117 89.7817 117.583 90.3204 118.191 90.7097C118.805 91.099 119.541 91.2937 120.399 91.2937ZM120.399 90.1657C119.466 90.1657 118.759 89.8537 118.279 89.2297C117.799 88.6004 117.559 87.7657 117.559 86.7257C117.559 85.7177 117.791 84.8964 118.255 84.2617C118.719 83.6217 119.434 83.3017 120.399 83.3017C121.354 83.3017 122.066 83.6137 122.535 84.2377C123.01 84.8564 123.247 85.6857 123.247 86.7257C123.247 87.7444 123.013 88.5737 122.543 89.2137C122.074 89.8484 121.359 90.1657 120.399 90.1657ZM126.252 94.8937H127.436V90.0217C127.745 90.4164 128.127 90.7284 128.58 90.9577C129.033 91.1817 129.553 91.2937 130.14 91.2937C130.951 91.2937 131.641 91.0937 132.212 90.6937C132.783 90.2884 133.217 89.7417 133.516 89.0537C133.82 88.3657 133.972 87.5897 133.972 86.7257C133.972 85.867 133.82 85.0937 133.516 84.4057C133.217 83.7177 132.785 83.1737 132.22 82.7737C131.655 82.3737 130.977 82.1737 130.188 82.1737C129.548 82.1737 128.985 82.3017 128.5 82.5577C128.02 82.8084 127.623 83.1577 127.308 83.6057V82.4137H126.252V94.8937ZM130.02 90.1977C129.407 90.1977 128.9 90.0484 128.5 89.7497C128.1 89.4457 127.801 89.0324 127.604 88.5097C127.407 87.987 127.308 87.3924 127.308 86.7257C127.308 85.707 127.529 84.8777 127.972 84.2377C128.42 83.5924 129.095 83.2697 129.996 83.2697C130.615 83.2697 131.124 83.4217 131.524 83.7257C131.929 84.0297 132.231 84.443 132.428 84.9657C132.625 85.4884 132.724 86.075 132.724 86.7257C132.724 87.3817 132.623 87.971 132.42 88.4937C132.223 89.0164 131.924 89.4324 131.524 89.7417C131.124 90.0457 130.623 90.1977 130.02 90.1977ZM139.337 91.2937C140.19 91.2937 140.921 91.1017 141.529 90.7177C142.142 90.3337 142.612 89.8004 142.937 89.1177C143.268 88.4297 143.433 87.6324 143.433 86.7257C143.433 85.835 143.27 85.0484 142.945 84.3657C142.625 83.6777 142.158 83.1417 141.545 82.7577C140.937 82.3684 140.201 82.1737 139.337 82.1737C138.494 82.1737 137.766 82.3657 137.153 82.7497C136.545 83.1284 136.076 83.659 135.745 84.3417C135.414 85.0244 135.249 85.819 135.249 86.7257C135.249 87.6164 135.409 88.4057 135.729 89.0937C136.054 89.7817 136.521 90.3204 137.129 90.7097C137.742 91.099 138.478 91.2937 139.337 91.2937ZM139.337 90.1657C138.404 90.1657 137.697 89.8537 137.217 89.2297C136.737 88.6004 136.497 87.7657 136.497 86.7257C136.497 85.7177 136.729 84.8964 137.193 84.2617C137.657 83.6217 138.372 83.3017 139.337 83.3017C140.292 83.3017 141.004 83.6137 141.473 84.2377C141.948 84.8564 142.185 85.6857 142.185 86.7257C142.185 87.7444 141.95 88.5737 141.481 89.2137C141.012 89.8484 140.297 90.1657 139.337 90.1657ZM148.782 91.2937C149.64 91.2937 150.376 91.0937 150.99 90.6937C151.608 90.2884 152.08 89.7017 152.406 88.9337L151.222 88.5817C150.784 89.6377 149.971 90.1657 148.782 90.1657C147.854 90.1657 147.155 89.8537 146.686 89.2297C146.216 88.6004 145.976 87.7684 145.966 86.7337C145.976 85.7257 146.208 84.9017 146.662 84.2617C147.12 83.6217 147.827 83.3017 148.782 83.3017C149.347 83.3017 149.848 83.4457 150.286 83.7337C150.728 84.0164 151.051 84.4164 151.254 84.9337L152.406 84.5657C152.166 83.8244 151.72 83.2404 151.07 82.8137C150.424 82.387 149.664 82.1737 148.79 82.1737C147.931 82.1737 147.2 82.3657 146.598 82.7497C145.995 83.1284 145.534 83.6617 145.214 84.3497C144.894 85.0324 144.728 85.827 144.718 86.7337C144.728 87.619 144.888 88.4057 145.198 89.0937C145.512 89.7817 145.971 90.3204 146.574 90.7097C147.176 91.099 147.912 91.2937 148.782 91.2937ZM156.182 91.0537H157.358V83.5017H160.422V82.4137H153.118V83.5017H156.182V91.0537ZM161.94 91.0537H163.116V87.2937H167.988V91.0537H169.164V82.4137H167.988V86.1657H163.116V82.4137H161.94V91.0537ZM171.409 91.0537H174.185C174.43 91.0537 174.681 91.0484 174.937 91.0377C175.198 91.0217 175.435 90.9897 175.649 90.9417C176.235 90.8137 176.718 90.5364 177.097 90.1097C177.481 89.683 177.673 89.099 177.673 88.3577C177.673 87.547 177.462 86.9417 177.041 86.5417C176.625 86.1417 176.099 85.8777 175.465 85.7497C175.273 85.7177 175.057 85.6964 174.817 85.6857C174.577 85.675 174.331 85.6697 174.081 85.6697H172.577V82.4137H171.393L171.409 91.0537ZM178.705 91.0537H179.881V82.4137H178.705V91.0537ZM172.577 90.0457V86.6777H174.137C174.307 86.6777 174.489 86.683 174.681 86.6937C174.873 86.7044 175.054 86.7284 175.225 86.7657C175.598 86.8457 175.897 87.011 176.121 87.2617C176.345 87.507 176.457 87.8724 176.457 88.3577C176.457 88.8537 176.339 89.2217 176.105 89.4617C175.87 89.7017 175.611 89.8617 175.329 89.9417C175.158 89.9897 174.961 90.019 174.737 90.0297C174.513 90.0404 174.313 90.0457 174.137 90.0457H172.577ZM185.776 91.2937C186.613 91.2937 187.362 91.0884 188.024 90.6777C188.69 90.267 189.194 89.683 189.536 88.9257L188.44 88.5017C187.89 89.611 186.986 90.1657 185.728 90.1657C184.864 90.1657 184.186 89.8964 183.696 89.3577C183.21 88.819 182.944 88.0537 182.896 87.0617H189.704C189.746 85.5364 189.413 84.3417 188.704 83.4777C188 82.6084 187.008 82.1737 185.728 82.1737C184.896 82.1737 184.173 82.3604 183.56 82.7337C182.952 83.107 182.48 83.6377 182.144 84.3257C181.808 85.0137 181.64 85.8297 181.64 86.7737C181.64 87.6857 181.808 88.4804 182.144 89.1577C182.485 89.835 182.965 90.3604 183.584 90.7337C184.208 91.107 184.938 91.2937 185.776 91.2937ZM185.76 83.2537C187.386 83.2537 188.29 84.195 188.472 86.0777H182.92C183.01 85.1657 183.298 84.467 183.784 83.9817C184.269 83.4964 184.928 83.2537 185.76 83.2537ZM193.722 91.0537H195.138L197.786 87.5897L200.418 91.0537H201.834L198.45 86.6857L201.754 82.4137H200.346L197.786 85.7817L195.202 82.4137H193.794L197.098 86.6857L193.722 91.0537ZM205.279 91.2937C206.788 91.2937 207.884 90.7364 208.567 89.6217V91.0537H209.615V85.6857C209.615 85.3657 209.599 85.051 209.567 84.7417C209.535 84.4324 209.466 84.1524 209.359 83.9017C209.13 83.3417 208.738 82.915 208.183 82.6217C207.634 82.323 206.964 82.1737 206.175 82.1737C205.226 82.1737 204.452 82.387 203.855 82.8137C203.258 83.2404 202.858 83.8404 202.655 84.6137L203.799 84.9497C203.964 84.3737 204.25 83.9524 204.655 83.6857C205.066 83.419 205.567 83.2857 206.159 83.2857C206.98 83.2857 207.567 83.4777 207.919 83.8617C208.271 84.2404 208.452 84.819 208.463 85.5977C208.079 85.651 207.655 85.707 207.191 85.7657C206.732 85.8244 206.271 85.891 205.807 85.9657C205.343 86.0404 204.916 86.1257 204.527 86.2217C203.882 86.3924 203.354 86.6777 202.943 87.0777C202.532 87.4724 202.327 88.0244 202.327 88.7337C202.327 89.1924 202.436 89.6164 202.655 90.0057C202.874 90.395 203.202 90.707 203.639 90.9417C204.082 91.1764 204.628 91.2937 205.279 91.2937ZM205.415 90.2777C204.951 90.2777 204.578 90.203 204.295 90.0537C204.018 89.899 203.815 89.7044 203.687 89.4697C203.564 89.2297 203.503 88.9844 203.503 88.7337C203.503 88.2644 203.66 87.9124 203.975 87.6777C204.29 87.443 204.631 87.2724 204.999 87.1657C205.474 87.0377 206.026 86.9337 206.655 86.8537C207.284 86.7737 207.882 86.699 208.447 86.6297C208.447 86.827 208.439 87.0537 208.423 87.3097C208.412 87.5604 208.383 87.7924 208.335 88.0057C208.223 88.6564 207.914 89.1977 207.407 89.6297C206.906 90.0617 206.242 90.2777 205.415 90.2777ZM211.69 94.8937H212.874V90.0217C213.183 90.4164 213.564 90.7284 214.018 90.9577C214.471 91.1817 214.991 91.2937 215.578 91.2937C216.388 91.2937 217.079 91.0937 217.65 90.6937C218.22 90.2884 218.655 89.7417 218.954 89.0537C219.258 88.3657 219.41 87.5897 219.41 86.7257C219.41 85.867 219.258 85.0937 218.954 84.4057C218.655 83.7177 218.223 83.1737 217.658 82.7737C217.092 82.3737 216.415 82.1737 215.626 82.1737C214.986 82.1737 214.423 82.3017 213.938 82.5577C213.458 82.8084 213.06 83.1577 212.746 83.6057V82.4137H211.69V94.8937ZM215.458 90.1977C214.844 90.1977 214.338 90.0484 213.938 89.7497C213.538 89.4457 213.239 89.0324 213.042 88.5097C212.844 87.987 212.746 87.3924 212.746 86.7257C212.746 85.707 212.967 84.8777 213.41 84.2377C213.858 83.5924 214.532 83.2697 215.434 83.2697C216.052 83.2697 216.562 83.4217 216.962 83.7257C217.367 84.0297 217.668 84.443 217.866 84.9657C218.063 85.4884 218.162 86.075 218.162 86.7257C218.162 87.3817 218.06 87.971 217.858 88.4937C217.66 89.0164 217.362 89.4324 216.962 89.7417C216.562 90.0457 216.06 90.1977 215.458 90.1977ZM223.638 91.2937C225.148 91.2937 226.244 90.7364 226.926 89.6217V91.0537H227.974V85.6857C227.974 85.3657 227.958 85.051 227.926 84.7417C227.894 84.4324 227.825 84.1524 227.718 83.9017C227.489 83.3417 227.097 82.915 226.542 82.6217C225.993 82.323 225.324 82.1737 224.534 82.1737C223.585 82.1737 222.812 82.387 222.214 82.8137C221.617 83.2404 221.217 83.8404 221.014 84.6137L222.158 84.9497C222.324 84.3737 222.609 83.9524 223.014 83.6857C223.425 83.419 223.926 83.2857 224.518 83.2857C225.34 83.2857 225.926 83.4777 226.278 83.8617C226.63 84.2404 226.812 84.819 226.822 85.5977C226.438 85.651 226.014 85.707 225.55 85.7657C225.092 85.8244 224.63 85.891 224.166 85.9657C223.702 86.0404 223.276 86.1257 222.886 86.2217C222.241 86.3924 221.713 86.6777 221.302 87.0777C220.892 87.4724 220.686 88.0244 220.686 88.7337C220.686 89.1924 220.796 89.6164 221.014 90.0057C221.233 90.395 221.561 90.707 221.998 90.9417C222.441 91.1764 222.988 91.2937 223.638 91.2937ZM223.774 90.2777C223.31 90.2777 222.937 90.203 222.654 90.0537C222.377 89.899 222.174 89.7044 222.046 89.4697C221.924 89.2297 221.862 88.9844 221.862 88.7337C221.862 88.2644 222.02 87.9124 222.334 87.6777C222.649 87.443 222.99 87.2724 223.358 87.1657C223.833 87.0377 224.385 86.9337 225.014 86.8537C225.644 86.7737 226.241 86.699 226.806 86.6297C226.806 86.827 226.798 87.0537 226.782 87.3097C226.772 87.5604 226.742 87.7924 226.694 88.0057C226.582 88.6564 226.273 89.1977 225.766 89.6297C225.265 90.0617 224.601 90.2777 223.774 90.2777ZM230.049 91.0537H231.241V86.8937L235.481 91.0537H237.193L232.617 86.7337L236.665 82.4137H235.097L231.241 86.5737V82.4137H230.057L230.049 91.0537ZM240.339 91.0537H241.515V83.5017H244.579V82.4137H237.275V83.5017H240.339V91.0537ZM249.76 91.2937C250.597 91.2937 251.347 91.0884 252.008 90.6777C252.675 90.267 253.179 89.683 253.52 88.9257L252.424 88.5017C251.875 89.611 250.971 90.1657 249.712 90.1657C248.848 90.1657 248.171 89.8964 247.68 89.3577C247.195 88.819 246.928 88.0537 246.88 87.0617H253.688C253.731 85.5364 253.397 84.3417 252.688 83.4777C251.984 82.6084 250.992 82.1737 249.712 82.1737C248.88 82.1737 248.157 82.3604 247.544 82.7337C246.936 83.107 246.464 83.6377 246.128 84.3257C245.792 85.0137 245.624 85.8297 245.624 86.7737C245.624 87.6857 245.792 88.4804 246.128 89.1577C246.469 89.835 246.949 90.3604 247.568 90.7337C248.192 91.107 248.923 91.2937 249.76 91.2937ZM249.744 83.2537C251.371 83.2537 252.275 84.195 252.456 86.0777H246.904C246.995 85.1657 247.283 84.467 247.768 83.9817C248.253 83.4964 248.912 83.2537 249.744 83.2537ZM255.455 94.8937H256.639V90.0217C256.949 90.4164 257.33 90.7284 257.783 90.9577C258.237 91.1817 258.757 91.2937 259.343 91.2937C260.154 91.2937 260.845 91.0937 261.415 90.6937C261.986 90.2884 262.421 89.7417 262.719 89.0537C263.023 88.3657 263.175 87.5897 263.175 86.7257C263.175 85.867 263.023 85.0937 262.719 84.4057C262.421 83.7177 261.989 83.1737 261.423 82.7737C260.858 82.3737 260.181 82.1737 259.391 82.1737C258.751 82.1737 258.189 82.3017 257.703 82.5577C257.223 82.8084 256.826 83.1577 256.511 83.6057V82.4137H255.455V94.8937ZM259.223 90.1977C258.61 90.1977 258.103 90.0484 257.703 89.7497C257.303 89.4457 257.005 89.0324 256.807 88.5097C256.61 87.987 256.511 87.3924 256.511 86.7257C256.511 85.707 256.733 84.8777 257.175 84.2377C257.623 83.5924 258.298 83.2697 259.199 83.2697C259.818 83.2697 260.327 83.4217 260.727 83.7257C261.133 84.0297 261.434 84.443 261.631 84.9657C261.829 85.4884 261.927 86.075 261.927 86.7257C261.927 87.3817 261.826 87.971 261.623 88.4937C261.426 89.0164 261.127 89.4324 260.727 89.7417C260.327 90.0457 259.826 90.1977 259.223 90.1977ZM271.796 82.4137H270.812L266.068 89.0857V82.4137H264.924V91.0537H265.916L270.652 84.3257V91.0537H271.796V82.4137ZM277.625 91.2937C278.484 91.2937 279.22 91.0937 279.833 90.6937C280.452 90.2884 280.924 89.7017 281.249 88.9337L280.065 88.5817C279.628 89.6377 278.815 90.1657 277.625 90.1657C276.697 90.1657 275.999 89.8537 275.529 89.2297C275.06 88.6004 274.82 87.7684 274.809 86.7337C274.82 85.7257 275.052 84.9017 275.505 84.2617C275.964 83.6217 276.671 83.3017 277.625 83.3017C278.191 83.3017 278.692 83.4457 279.129 83.7337C279.572 84.0164 279.895 84.4164 280.097 84.9337L281.249 84.5657C281.009 83.8244 280.564 83.2404 279.913 82.8137C279.268 82.387 278.508 82.1737 277.633 82.1737C276.775 82.1737 276.044 82.3657 275.441 82.7497C274.839 83.1284 274.377 83.6617 274.057 84.3497C273.737 85.0324 273.572 85.827 273.561 86.7337C273.572 87.619 273.732 88.4057 274.041 89.0937C274.356 89.7817 274.815 90.3204 275.417 90.7097C276.02 91.099 276.756 91.2937 277.625 91.2937ZM285.026 91.0537H286.202V83.5017H289.266V82.4137H281.962V83.5017H285.026V91.0537ZM297.655 82.4137H296.671L291.927 89.0857V82.4137H290.783V91.0537H291.775L296.511 84.3257V91.0537H297.655V82.4137ZM299.893 91.0537H301.085V86.8937L305.325 91.0537H307.037L302.461 86.7337L306.509 82.4137H304.941L301.085 86.5737V82.4137H299.901L299.893 91.0537ZM314.702 82.4137H313.718L308.974 89.0857V82.4137H307.83V91.0537H308.822L313.558 84.3257V91.0537H314.702V82.4137Z" fill="#333333"/>
<rect x="1.06299" y="10.3047" width="83.9754" height="7.24951" rx="3.62476" fill="#F8F8F8" stroke="#E6E9EC"/>
<rect x="1.06299" y="45.4287" width="83.9754" height="7.24951" rx="3.62476" fill="#F8F8F8" stroke="#E6E9EC"/>
<rect x="1.06299" y="81.4287" width="83.9754" height="7.24951" rx="3.62476" fill="#F8F8F8" stroke="#E6E9EC"/>
<rect x="0.562988" y="9.80469" width="84.9754" height="8.24951" rx="4.12476" fill="#FADE56"/>
<rect x="0.562988" y="44.9287" width="84.9754" height="8.24951" rx="4.12476" fill="#FADE56"/>
<rect x="0.562988" y="80.9287" width="84.9754" height="8.24951" rx="4.12476" fill="#FADE56"/>
</svg>
