<svg width="26" height="26" viewBox="0 0 26 26" fill="none" xmlns="http://www.w3.org/2000/svg">
<path fill-rule="evenodd" clip-rule="evenodd" d="M3.52087 10.8656C3.52087 7.94008 6.08744 5.6875 9.10004 5.6875C10.653 5.6875 12.0194 6.41565 13 7.35782C13.9807 6.41565 15.3471 5.6875 16.9 5.6875C19.9127 5.6875 22.4792 7.94008 22.4792 10.8656C22.4792 12.8697 21.6246 14.6319 20.4406 16.1216C19.2586 17.6088 17.7125 18.8709 16.2322 19.8965C15.6667 20.2882 15.0947 20.6495 14.5712 20.9161C14.0796 21.1665 13.5143 21.3958 13 21.3958C12.4858 21.3958 11.9205 21.1665 11.4289 20.9161C10.9054 20.6495 10.3334 20.2882 9.76795 19.8965C8.28759 18.8709 6.74148 17.6088 5.55951 16.1216C4.37549 14.6319 3.52087 12.8697 3.52087 10.8656ZM9.10004 7.3125C6.84752 7.3125 5.14587 8.96903 5.14587 10.8656C5.14587 12.3861 5.79131 13.8017 6.83164 15.1106C7.87401 16.422 9.27654 17.5791 10.6933 18.5608C11.2294 18.9321 11.7344 19.2481 12.1664 19.4682C12.6302 19.7043 12.899 19.7708 13 19.7708C13.1011 19.7708 13.3699 19.7043 13.8337 19.4682C14.2657 19.2481 14.7706 18.9321 15.3068 18.5608C16.7236 17.5791 18.126 16.422 19.1684 15.1106C20.2088 13.8017 20.8542 12.3861 20.8542 10.8656C20.8542 8.96903 19.1525 7.3125 16.9 7.3125C15.6063 7.3125 14.3984 8.08537 13.6442 9.06633C13.4904 9.26636 13.2523 9.38357 13 9.38357C12.7477 9.38357 12.5097 9.26636 12.3559 9.06633C11.6017 8.08537 10.3937 7.3125 9.10004 7.3125Z" fill="#252B2F"/>
</svg>
