<svg width="110" height="35" viewBox="0 0 110 35" fill="none" xmlns="http://www.w3.org/2000/svg">
<path d="M0 0H100C105.523 0 110 4.47715 110 10V35H10C4.47715 35 0 30.5228 0 25V0Z" fill="#3F3F3F"/>
<path d="M36.98 22H38.443V13.299H43.532V22H44.995V11.92H36.98V22ZM50.2435 22.21C50.9948 22.21 51.6481 22.042 52.2035 21.706C52.7588 21.3653 53.1881 20.8963 53.4915 20.299C53.7995 19.697 53.9535 19.0017 53.9535 18.213C53.9535 17.4337 53.8018 16.7453 53.4985 16.148C53.1951 15.546 52.7658 15.077 52.2105 14.741C51.6551 14.4003 50.9995 14.23 50.2435 14.23C49.5015 14.23 48.8528 14.398 48.2975 14.734C47.7421 15.07 47.3105 15.5367 47.0025 16.134C46.6945 16.7313 46.5405 17.4243 46.5405 18.213C46.5405 18.9923 46.6921 19.683 46.9955 20.285C47.2988 20.887 47.7258 21.3583 48.2765 21.699C48.8318 22.0397 49.4875 22.21 50.2435 22.21ZM50.2435 20.831C49.5388 20.831 49.0045 20.5953 48.6405 20.124C48.2765 19.648 48.0945 19.011 48.0945 18.213C48.0945 17.443 48.2695 16.8177 48.6195 16.337C48.9695 15.8517 49.5108 15.609 50.2435 15.609C50.9575 15.609 51.4941 15.8447 51.8535 16.316C52.2175 16.7873 52.3995 17.4197 52.3995 18.213C52.3995 18.9877 52.2198 19.6177 51.8605 20.103C51.5058 20.5883 50.9668 20.831 50.2435 20.831ZM54.9317 23.68H56.3247V22H61.4067V23.68H62.7927V20.824H62.0507V14.44H56.6327C56.5861 15.4013 56.5347 16.2483 56.4787 16.981C56.4274 17.709 56.3527 18.3787 56.2547 18.99C56.1474 19.6573 56.0027 20.131 55.8207 20.411C55.6434 20.6863 55.3471 20.824 54.9317 20.824V23.68ZM57.0247 20.824C57.2021 20.6467 57.3281 20.4343 57.4027 20.187C57.4821 19.9397 57.5497 19.6317 57.6057 19.263C57.6617 18.9457 57.7084 18.5817 57.7457 18.171C57.7877 17.7603 57.8227 17.3333 57.8507 16.89C57.8834 16.4467 57.9114 16.022 57.9347 15.616H60.5807V20.824H57.0247ZM65.8982 22.21C67.1022 22.21 68.0099 21.7737 68.6212 20.901V22H69.9162V17.345C69.9162 17.0277 69.9022 16.7313 69.8742 16.456C69.8462 16.1807 69.7715 15.9193 69.6502 15.672C69.4169 15.1727 69.0482 14.8087 68.5442 14.58C68.0449 14.3467 67.4569 14.23 66.7802 14.23C65.9075 14.23 65.2075 14.4213 64.6802 14.804C64.1529 15.1867 63.7982 15.7023 63.6162 16.351L64.9812 16.771C65.1119 16.351 65.3429 16.0477 65.6742 15.861C66.0055 15.6743 66.3695 15.581 66.7662 15.581C67.3542 15.581 67.7789 15.707 68.0402 15.959C68.3062 16.2063 68.4509 16.5913 68.4742 17.114C67.8582 17.198 67.2562 17.2867 66.6682 17.38C66.0802 17.4687 65.5669 17.576 65.1282 17.702C64.5449 17.8887 64.1015 18.1663 63.7982 18.535C63.4949 18.9037 63.3432 19.3727 63.3432 19.942C63.3432 20.3527 63.4389 20.7307 63.6302 21.076C63.8262 21.4167 64.1132 21.692 64.4912 21.902C64.8739 22.1073 65.3429 22.21 65.8982 22.21ZM66.1572 21.013C65.6905 21.013 65.3452 20.9057 65.1212 20.691C64.9019 20.4763 64.7922 20.222 64.7922 19.928C64.7922 19.6293 64.8902 19.3937 65.0862 19.221C65.2869 19.0483 65.5365 18.9107 65.8352 18.808C66.1525 18.7147 66.5259 18.633 66.9552 18.563C67.3892 18.493 67.8909 18.416 68.4602 18.332C68.4555 18.5093 68.4439 18.7077 68.4252 18.927C68.4065 19.1463 68.3669 19.3423 68.3062 19.515C68.2502 19.7623 68.1312 20.0003 67.9492 20.229C67.7719 20.4577 67.5315 20.6467 67.2282 20.796C66.9295 20.9407 66.5725 21.013 66.1572 21.013ZM71.7269 25.36H73.1969V21.468C73.4629 21.706 73.7686 21.888 74.1139 22.014C74.4639 22.1447 74.8536 22.21 75.2829 22.21C75.9876 22.21 76.5942 22.035 77.1029 21.685C77.6162 21.3303 78.0106 20.852 78.2859 20.25C78.5659 19.648 78.7059 18.969 78.7059 18.213C78.7059 17.4523 78.5659 16.7733 78.2859 16.176C78.0059 15.574 77.6069 15.1003 77.0889 14.755C76.5756 14.405 75.9642 14.23 75.2549 14.23C74.7882 14.23 74.3682 14.3093 73.9949 14.468C73.6216 14.622 73.2996 14.839 73.0289 15.119V14.44H71.7269V25.36ZM75.0799 20.887C74.3612 20.887 73.8386 20.6373 73.5119 20.138C73.1899 19.6387 73.0289 18.997 73.0289 18.213C73.0289 17.429 73.1899 16.7897 73.5119 16.295C73.8339 15.8003 74.3402 15.553 75.0309 15.553C75.5162 15.553 75.9152 15.672 76.2279 15.91C76.5406 16.148 76.7716 16.4677 76.9209 16.869C77.0749 17.2703 77.1519 17.7183 77.1519 18.213C77.1519 18.7123 77.0772 19.165 76.9279 19.571C76.7786 19.9723 76.5499 20.292 76.2419 20.53C75.9386 20.768 75.5512 20.887 75.0799 20.887ZM83.5345 22.21C84.2858 22.21 84.9392 22.042 85.4945 21.706C86.0498 21.3653 86.4792 20.8963 86.7825 20.299C87.0905 19.697 87.2445 19.0017 87.2445 18.213C87.2445 17.4337 87.0928 16.7453 86.7895 16.148C86.4862 15.546 86.0568 15.077 85.5015 14.741C84.9462 14.4003 84.2905 14.23 83.5345 14.23C82.7925 14.23 82.1438 14.398 81.5885 14.734C81.0332 15.07 80.6015 15.5367 80.2935 16.134C79.9855 16.7313 79.8315 17.4243 79.8315 18.213C79.8315 18.9923 79.9832 19.683 80.2865 20.285C80.5898 20.887 81.0168 21.3583 81.5675 21.699C82.1228 22.0397 82.7785 22.21 83.5345 22.21ZM83.5345 20.831C82.8298 20.831 82.2955 20.5953 81.9315 20.124C81.5675 19.648 81.3855 19.011 81.3855 18.213C81.3855 17.443 81.5605 16.8177 81.9105 16.337C82.2605 15.8517 82.8018 15.609 83.5345 15.609C84.2485 15.609 84.7852 15.8447 85.1445 16.316C85.5085 16.7873 85.6905 17.4197 85.6905 18.213C85.6905 18.9877 85.5108 19.6177 85.1515 20.103C84.7968 20.5883 84.2578 20.831 83.5345 20.831ZM88.7757 22H90.2667V18.36L93.4307 22H95.4187L91.9607 18.22L95.0967 14.44H93.2347L90.2667 18.08V14.44H88.7827L88.7757 22Z" fill="white"/>
<g clip-path="url(#clip0_251_107)">
<path d="M28.4926 10.9083H27.4056C27.549 10.6814 27.6436 10.4267 27.6706 10.1573C27.7568 9.29638 27.3034 8.52463 26.5315 8.18248C25.822 7.86797 25.0247 7.99654 24.4505 8.51728L23.0779 9.76124C22.8106 9.46887 22.4263 9.28512 21.9999 9.28512C21.5726 9.28512 21.1878 9.46946 20.9204 9.76273L19.546 8.51713C18.971 7.99639 18.174 7.86832 17.4648 8.18265C16.6931 8.52483 16.2396 9.29685 16.326 10.1577C16.3531 10.4269 16.4476 10.6815 16.591 10.9083H15.5071C14.9692 10.9083 14.5332 11.3443 14.5332 11.8822V13.3431C14.5332 13.612 14.7512 13.83 15.0202 13.83H28.9796C29.2485 13.83 29.4666 13.612 29.4666 13.3431V11.8822C29.4665 11.3443 29.0305 10.9083 28.4926 10.9083ZM20.539 10.746V10.9083H18.2482C17.6429 10.9083 17.1665 10.344 17.3177 9.71387C17.3843 9.43635 17.5846 9.19978 17.8437 9.08002C18.1995 8.91558 18.5936 8.96837 18.8924 9.23883L20.5394 10.7316C20.5393 10.7365 20.539 10.7412 20.539 10.746ZM26.7043 10.028C26.668 10.5341 26.2108 10.9084 25.7034 10.9084H23.4607V10.7461C23.4607 10.7403 23.4604 10.7346 23.4603 10.7289C23.8334 10.3907 24.6428 9.65706 25.0818 9.25913C25.3313 9.03301 25.6804 8.92745 26.0031 9.0237C26.4662 9.16183 26.7381 9.55564 26.7043 10.028Z" fill="white"/>
<path d="M15.5073 15.8711V23.0131C15.5073 23.551 15.9433 23.987 16.4812 23.987H21.0261V15.8711H15.5073Z" fill="white"/>
<path d="M22.9739 15.8711V23.987H27.5189C28.0568 23.987 28.4928 23.551 28.4928 23.0131V15.8711H22.9739Z" fill="white"/>
</g>
<defs>
<clipPath id="clip0_251_107">
<rect width="14.9333" height="16" fill="white" transform="translate(14.5332 8)"/>
</clipPath>
</defs>
</svg>
