<svg width="339" height="135" viewBox="0 0 339 135" fill="none" xmlns="http://www.w3.org/2000/svg">
<path d="M98.938 19.0537H100.218L105.578 7.53371H104.322L100.85 15.0617L97.442 7.53371H96.138L100.234 16.3257L98.938 19.0537ZM106.955 19.0537H108.131V11.5417H112.651V19.0537H113.827V10.4137H106.955V19.0537ZM116.064 22.8937H117.248V18.0217C117.557 18.4164 117.939 18.7284 118.392 18.9577C118.845 19.1817 119.365 19.2937 119.952 19.2937C120.763 19.2937 121.453 19.0937 122.024 18.6937C122.595 18.2884 123.029 17.7417 123.328 17.0537C123.632 16.3657 123.784 15.5897 123.784 14.7257C123.784 13.867 123.632 13.0937 123.328 12.4057C123.029 11.7177 122.597 11.1737 122.032 10.7737C121.467 10.3737 120.789 10.1737 120 10.1737C119.36 10.1737 118.797 10.3017 118.312 10.5577C117.832 10.8084 117.435 11.1577 117.12 11.6057V10.4137H116.064V22.8937ZM119.832 18.1977C119.219 18.1977 118.712 18.0484 118.312 17.7497C117.912 17.4457 117.613 17.0324 117.416 16.5097C117.219 15.987 117.12 15.3924 117.12 14.7257C117.12 13.707 117.341 12.8777 117.784 12.2377C118.232 11.5924 118.907 11.2697 119.808 11.2697C120.427 11.2697 120.936 11.4217 121.336 11.7257C121.741 12.0297 122.043 12.443 122.24 12.9657C122.437 13.4884 122.536 14.075 122.536 14.7257C122.536 15.3817 122.435 15.971 122.232 16.4937C122.035 17.0164 121.736 17.4324 121.336 17.7417C120.936 18.0457 120.435 18.1977 119.832 18.1977ZM128.013 19.2937C129.522 19.2937 130.618 18.7364 131.301 17.6217V19.0537H132.349V13.6857C132.349 13.3657 132.333 13.051 132.301 12.7417C132.269 12.4324 132.2 12.1524 132.093 11.9017C131.864 11.3417 131.472 10.915 130.917 10.6217C130.368 10.323 129.698 10.1737 128.909 10.1737C127.96 10.1737 127.186 10.387 126.589 10.8137C125.992 11.2404 125.592 11.8404 125.389 12.6137L126.533 12.9497C126.698 12.3737 126.984 11.9524 127.389 11.6857C127.8 11.419 128.301 11.2857 128.893 11.2857C129.714 11.2857 130.301 11.4777 130.653 11.8617C131.005 12.2404 131.186 12.819 131.197 13.5977C130.813 13.651 130.389 13.707 129.925 13.7657C129.466 13.8244 129.005 13.891 128.541 13.9657C128.077 14.0404 127.65 14.1257 127.261 14.2217C126.616 14.3924 126.088 14.6777 125.677 15.0777C125.266 15.4724 125.061 16.0244 125.061 16.7337C125.061 17.1924 125.17 17.6164 125.389 18.0057C125.608 18.395 125.936 18.707 126.373 18.9417C126.816 19.1764 127.362 19.2937 128.013 19.2937ZM128.149 18.2777C127.685 18.2777 127.312 18.203 127.029 18.0537C126.752 17.899 126.549 17.7044 126.421 17.4697C126.298 17.2297 126.237 16.9844 126.237 16.7337C126.237 16.2644 126.394 15.9124 126.709 15.6777C127.024 15.443 127.365 15.2724 127.733 15.1657C128.208 15.0377 128.76 14.9337 129.389 14.8537C130.018 14.7737 130.616 14.699 131.181 14.6297C131.181 14.827 131.173 15.0537 131.157 15.3097C131.146 15.5604 131.117 15.7924 131.069 16.0057C130.957 16.6564 130.648 17.1977 130.141 17.6297C129.64 18.0617 128.976 18.2777 128.149 18.2777ZM134.424 19.0537H138.448C138.666 19.0537 138.898 19.0457 139.144 19.0297C139.394 19.0137 139.626 18.9764 139.84 18.9177C140.314 18.779 140.693 18.523 140.976 18.1497C141.258 17.7764 141.4 17.2937 141.4 16.7017C141.4 15.8484 141.085 15.2324 140.456 14.8537C140.264 14.7364 140.08 14.6617 139.904 14.6297C140.101 14.5444 140.282 14.411 140.448 14.2297C140.618 14.0537 140.749 13.8457 140.84 13.6057C140.936 13.3604 140.984 13.083 140.984 12.7737C140.984 12.219 140.834 11.747 140.536 11.3577C140.242 10.963 139.853 10.699 139.368 10.5657C139.144 10.507 138.901 10.467 138.64 10.4457C138.384 10.4244 138.165 10.4137 137.984 10.4137H134.424V19.0537ZM135.608 14.2297V11.4217H137.864C137.922 11.4217 138.061 11.427 138.28 11.4377C138.504 11.4484 138.712 11.4884 138.904 11.5577C139.186 11.6484 139.397 11.811 139.536 12.0457C139.68 12.275 139.752 12.539 139.752 12.8377C139.752 13.115 139.685 13.371 139.552 13.6057C139.424 13.8404 139.221 14.0057 138.944 14.1017C138.81 14.1497 138.658 14.1844 138.488 14.2057C138.317 14.2217 138.162 14.2297 138.024 14.2297H135.608ZM135.608 18.0537V15.2377H138.224C138.33 15.2377 138.45 15.2404 138.584 15.2457C138.722 15.251 138.85 15.267 138.968 15.2937C139.33 15.347 139.624 15.4964 139.848 15.7417C140.072 15.9817 140.184 16.291 140.184 16.6697C140.184 16.9577 140.109 17.2244 139.96 17.4697C139.816 17.7097 139.586 17.8697 139.272 17.9497C139.138 17.987 138.986 18.0137 138.816 18.0297C138.645 18.0457 138.504 18.0537 138.392 18.0537H135.608ZM142.194 19.0537C142.738 19.1604 143.165 19.1684 143.474 19.0777C143.783 18.987 144.018 18.8004 144.178 18.5177C144.338 18.235 144.463 17.8564 144.554 17.3817C144.639 16.9604 144.719 16.4377 144.794 15.8137C144.869 15.1897 144.938 14.5097 145.002 13.7737C145.066 13.0377 145.125 12.2937 145.178 11.5417H148.794V19.0537H149.962V10.4137H144.09C144.005 11.7844 143.917 12.987 143.826 14.0217C143.741 15.0564 143.631 15.963 143.498 16.7417C143.418 17.211 143.301 17.563 143.146 17.7977C142.997 18.0324 142.679 18.107 142.194 18.0217V19.0537ZM155.853 19.2937C156.69 19.2937 157.44 19.0884 158.101 18.6777C158.768 18.267 159.272 17.683 159.613 16.9257L158.517 16.5017C157.968 17.611 157.064 18.1657 155.805 18.1657C154.941 18.1657 154.264 17.8964 153.773 17.3577C153.288 16.819 153.021 16.0537 152.973 15.0617H159.781C159.824 13.5364 159.49 12.3417 158.781 11.4777C158.077 10.6084 157.085 10.1737 155.805 10.1737C154.973 10.1737 154.25 10.3604 153.637 10.7337C153.029 11.107 152.557 11.6377 152.221 12.3257C151.885 13.0137 151.717 13.8297 151.717 14.7737C151.717 15.6857 151.885 16.4804 152.221 17.1577C152.562 17.835 153.042 18.3604 153.661 18.7337C154.285 19.107 155.016 19.2937 155.853 19.2937ZM155.837 11.2537C157.464 11.2537 158.368 12.195 158.549 14.0777H152.997C153.088 13.1657 153.376 12.467 153.861 11.9817C154.346 11.4964 155.005 11.2537 155.837 11.2537ZM161.549 19.0537H162.725V15.2937H167.597V19.0537H168.773V10.4137H167.597V14.1657H162.725V10.4137H161.549V19.0537ZM177.874 10.4137H176.89L172.146 17.0857V10.4137H171.002V19.0537H171.994L176.73 12.3257V19.0537H177.874V10.4137ZM183.775 19.2937C184.612 19.2937 185.362 19.0884 186.023 18.6777C186.69 18.267 187.194 17.683 187.535 16.9257L186.439 16.5017C185.89 17.611 184.986 18.1657 183.727 18.1657C182.863 18.1657 182.186 17.8964 181.695 17.3577C181.21 16.819 180.943 16.0537 180.895 15.0617H187.703C187.746 13.5364 187.412 12.3417 186.703 11.4777C185.999 10.6084 185.007 10.1737 183.727 10.1737C182.895 10.1737 182.172 10.3604 181.559 10.7337C180.951 11.107 180.479 11.6377 180.143 12.3257C179.807 13.0137 179.639 13.8297 179.639 14.7737C179.639 15.6857 179.807 16.4804 180.143 17.1577C180.484 17.835 180.964 18.3604 181.583 18.7337C182.207 19.107 182.938 19.2937 183.775 19.2937ZM183.759 11.2537C185.386 11.2537 186.29 12.195 186.471 14.0777H180.919C181.01 13.1657 181.298 12.467 181.783 11.9817C182.268 11.4964 182.927 11.2537 183.759 11.2537ZM192.674 19.0537H193.85V15.2937H198.722V19.0537H199.898V10.4137H198.722V14.1657H193.85V10.4137H192.674V19.0537ZM204.607 19.2937C206.116 19.2937 207.212 18.7364 207.895 17.6217V19.0537H208.943V13.6857C208.943 13.3657 208.927 13.051 208.895 12.7417C208.863 12.4324 208.793 12.1524 208.687 11.9017C208.457 11.3417 208.065 10.915 207.511 10.6217C206.961 10.323 206.292 10.1737 205.503 10.1737C204.553 10.1737 203.78 10.387 203.183 10.8137C202.585 11.2404 202.185 11.8404 201.983 12.6137L203.127 12.9497C203.292 12.3737 203.577 11.9524 203.983 11.6857C204.393 11.419 204.895 11.2857 205.487 11.2857C206.308 11.2857 206.895 11.4777 207.247 11.8617C207.599 12.2404 207.78 12.819 207.791 13.5977C207.407 13.651 206.983 13.707 206.519 13.7657C206.06 13.8244 205.599 13.891 205.135 13.9657C204.671 14.0404 204.244 14.1257 203.855 14.2217C203.209 14.3924 202.681 14.6777 202.271 15.0777C201.86 15.4724 201.655 16.0244 201.655 16.7337C201.655 17.1924 201.764 17.6164 201.983 18.0057C202.201 18.395 202.529 18.707 202.967 18.9417C203.409 19.1764 203.956 19.2937 204.607 19.2937ZM204.743 18.2777C204.279 18.2777 203.905 18.203 203.623 18.0537C203.345 17.899 203.143 17.7044 203.015 17.4697C202.892 17.2297 202.831 16.9844 202.831 16.7337C202.831 16.2644 202.988 15.9124 203.303 15.6777C203.617 15.443 203.959 15.2724 204.327 15.1657C204.801 15.0377 205.353 14.9337 205.983 14.8537C206.612 14.7737 207.209 14.699 207.775 14.6297C207.775 14.827 207.767 15.0537 207.751 15.3097C207.74 15.5604 207.711 15.7924 207.663 16.0057C207.551 16.6564 207.241 17.1977 206.735 17.6297C206.233 18.0617 205.569 18.2777 204.743 18.2777ZM217.812 19.2937C218.671 19.2937 219.407 19.0937 220.02 18.6937C220.639 18.2884 221.111 17.7017 221.436 16.9337L220.252 16.5817C219.815 17.6377 219.002 18.1657 217.812 18.1657C216.884 18.1657 216.186 17.8537 215.716 17.2297C215.247 16.6004 215.007 15.7684 214.996 14.7337C215.007 13.7257 215.239 12.9017 215.692 12.2617C216.151 11.6217 216.858 11.3017 217.812 11.3017C218.378 11.3017 218.879 11.4457 219.316 11.7337C219.759 12.0164 220.082 12.4164 220.284 12.9337L221.436 12.5657C221.196 11.8244 220.751 11.2404 220.1 10.8137C219.455 10.387 218.695 10.1737 217.82 10.1737C216.962 10.1737 216.231 10.3657 215.628 10.7497C215.026 11.1284 214.564 11.6617 214.244 12.3497C213.924 13.0324 213.759 13.827 213.748 14.7337C213.759 15.619 213.919 16.4057 214.228 17.0937C214.543 17.7817 215.002 18.3204 215.604 18.7097C216.207 19.099 216.943 19.2937 217.812 19.2937ZM224.007 22.8937H225.183L229.823 10.4137H228.623L226.007 17.5177L223.167 10.4137H221.919L225.431 19.0297L224.007 22.8937ZM230.253 19.0537H231.669L234.317 15.5897L236.949 19.0537H238.365L234.981 14.6857L238.285 10.4137H236.877L234.317 13.7817L231.733 10.4137H230.325L233.629 14.6857L230.253 19.0537ZM242.946 19.2937C243.799 19.2937 244.53 19.1017 245.138 18.7177C245.751 18.3337 246.22 17.8004 246.546 17.1177C246.876 16.4297 247.042 15.6324 247.042 14.7257C247.042 13.835 246.879 13.0484 246.554 12.3657C246.234 11.6777 245.767 11.1417 245.154 10.7577C244.546 10.3684 243.81 10.1737 242.946 10.1737C242.103 10.1737 241.375 10.3657 240.762 10.7497C240.154 11.1284 239.684 11.659 239.354 12.3417C239.023 13.0244 238.858 13.819 238.858 14.7257C238.858 15.6164 239.018 16.4057 239.338 17.0937C239.663 17.7817 240.13 18.3204 240.738 18.7097C241.351 19.099 242.087 19.2937 242.946 19.2937ZM242.946 18.1657C242.012 18.1657 241.306 17.8537 240.826 17.2297C240.346 16.6004 240.106 15.7657 240.106 14.7257C240.106 13.7177 240.338 12.8964 240.802 12.2617C241.266 11.6217 241.98 11.3017 242.946 11.3017C243.9 11.3017 244.612 11.6137 245.082 12.2377C245.556 12.8564 245.794 13.6857 245.794 14.7257C245.794 15.7444 245.559 16.5737 245.09 17.2137C244.62 17.8484 243.906 18.1657 242.946 18.1657ZM252.391 9.38971C252.775 9.38971 253.121 9.29904 253.431 9.11771C253.745 8.93104 253.993 8.68038 254.175 8.36571C254.361 8.05104 254.455 7.70438 254.455 7.32571H253.479C253.479 7.62438 253.372 7.88038 253.159 8.09371C252.951 8.30704 252.695 8.41371 252.391 8.41371C252.092 8.41371 251.836 8.30704 251.623 8.09371C251.409 7.88038 251.303 7.62438 251.303 7.32571H250.327C250.327 7.70438 250.417 8.05104 250.599 8.36571C250.785 8.68038 251.036 8.93104 251.351 9.11771C251.665 9.29904 252.012 9.38971 252.391 9.38971ZM255.671 10.4137H254.687L249.943 17.0857V10.4137H248.799V19.0537H249.791L254.527 12.3257V19.0537H255.671V10.4137ZM260.479 20.9737H261.607V19.0537H267.959V20.9737H269.095V18.0457H268.263V10.4137H262.551C262.514 11.3204 262.474 12.1124 262.431 12.7897C262.388 13.4617 262.338 14.059 262.279 14.5817C262.22 15.1044 262.146 15.5924 262.055 16.0457C261.922 16.7444 261.748 17.2537 261.535 17.5737C261.322 17.8884 260.97 18.0457 260.479 18.0457V20.9737ZM262.471 18.0457C262.658 17.8697 262.796 17.6457 262.887 17.3737C262.983 17.1017 263.071 16.7737 263.151 16.3897C263.247 15.995 263.324 15.5124 263.383 14.9417C263.447 14.371 263.498 13.7764 263.535 13.1577C263.578 12.539 263.612 11.9604 263.639 11.4217H267.095V18.0457H262.471ZM273.993 19.2937C274.846 19.2937 275.577 19.1017 276.185 18.7177C276.798 18.3337 277.267 17.8004 277.593 17.1177C277.923 16.4297 278.089 15.6324 278.089 14.7257C278.089 13.835 277.926 13.0484 277.601 12.3657C277.281 11.6777 276.814 11.1417 276.201 10.7577C275.593 10.3684 274.857 10.1737 273.993 10.1737C273.15 10.1737 272.422 10.3657 271.809 10.7497C271.201 11.1284 270.731 11.659 270.401 12.3417C270.07 13.0244 269.905 13.819 269.905 14.7257C269.905 15.6164 270.065 16.4057 270.385 17.0937C270.71 17.7817 271.177 18.3204 271.785 18.7097C272.398 19.099 273.134 19.2937 273.993 19.2937ZM273.993 18.1657C273.059 18.1657 272.353 17.8537 271.873 17.2297C271.393 16.6004 271.153 15.7657 271.153 14.7257C271.153 13.7177 271.385 12.8964 271.849 12.2617C272.313 11.6217 273.027 11.3017 273.993 11.3017C274.947 11.3017 275.659 11.6137 276.129 12.2377C276.603 12.8564 276.841 13.6857 276.841 14.7257C276.841 15.7444 276.606 16.5737 276.137 17.2137C275.667 17.8484 274.953 18.1657 273.993 18.1657ZM279.845 22.8937H281.029V18.0217C281.339 18.4164 281.72 18.7284 282.173 18.9577C282.627 19.1817 283.147 19.2937 283.733 19.2937C284.544 19.2937 285.235 19.0937 285.805 18.6937C286.376 18.2884 286.811 17.7417 287.109 17.0537C287.413 16.3657 287.565 15.5897 287.565 14.7257C287.565 13.867 287.413 13.0937 287.109 12.4057C286.811 11.7177 286.379 11.1737 285.813 10.7737C285.248 10.3737 284.571 10.1737 283.781 10.1737C283.141 10.1737 282.579 10.3017 282.093 10.5577C281.613 10.8084 281.216 11.1577 280.901 11.6057V10.4137H279.845V22.8937ZM283.613 18.1977C283 18.1977 282.493 18.0484 282.093 17.7497C281.693 17.4457 281.395 17.0324 281.197 16.5097C281 15.987 280.901 15.3924 280.901 14.7257C280.901 13.707 281.123 12.8777 281.565 12.2377C282.013 11.5924 282.688 11.2697 283.589 11.2697C284.208 11.2697 284.717 11.4217 285.117 11.7257C285.523 12.0297 285.824 12.443 286.021 12.9657C286.219 13.4884 286.317 14.075 286.317 14.7257C286.317 15.3817 286.216 15.971 286.013 16.4937C285.816 17.0164 285.517 17.4324 285.117 17.7417C284.717 18.0457 284.216 18.1977 283.613 18.1977ZM292.93 19.2937C293.783 19.2937 294.514 19.1017 295.122 18.7177C295.735 18.3337 296.205 17.8004 296.53 17.1177C296.861 16.4297 297.026 15.6324 297.026 14.7257C297.026 13.835 296.863 13.0484 296.538 12.3657C296.218 11.6777 295.751 11.1417 295.138 10.7577C294.53 10.3684 293.794 10.1737 292.93 10.1737C292.087 10.1737 291.359 10.3657 290.746 10.7497C290.138 11.1284 289.669 11.659 289.338 12.3417C289.007 13.0244 288.842 13.819 288.842 14.7257C288.842 15.6164 289.002 16.4057 289.322 17.0937C289.647 17.7817 290.114 18.3204 290.722 18.7097C291.335 19.099 292.071 19.2937 292.93 19.2937ZM292.93 18.1657C291.997 18.1657 291.29 17.8537 290.81 17.2297C290.33 16.6004 290.09 15.7657 290.09 14.7257C290.09 13.7177 290.322 12.8964 290.786 12.2617C291.25 11.6217 291.965 11.3017 292.93 11.3017C293.885 11.3017 294.597 11.6137 295.066 12.2377C295.541 12.8564 295.778 13.6857 295.778 14.7257C295.778 15.7444 295.543 16.5737 295.074 17.2137C294.605 17.8484 293.89 18.1657 292.93 18.1657ZM298.791 19.0537H299.967V11.5417H304.711V10.4137H298.791V19.0537ZM309.884 19.2937C310.722 19.2937 311.471 19.0884 312.132 18.6777C312.799 18.267 313.303 17.683 313.644 16.9257L312.548 16.5017C311.999 17.611 311.095 18.1657 309.836 18.1657C308.972 18.1657 308.295 17.8964 307.804 17.3577C307.319 16.819 307.052 16.0537 307.004 15.0617H313.812C313.855 13.5364 313.522 12.3417 312.812 11.4777C312.108 10.6084 311.116 10.1737 309.836 10.1737C309.004 10.1737 308.282 10.3604 307.668 10.7337C307.06 11.107 306.588 11.6377 306.252 12.3257C305.916 13.0137 305.748 13.8297 305.748 14.7737C305.748 15.6857 305.916 16.4804 306.252 17.1577C306.594 17.835 307.074 18.3604 307.692 18.7337C308.316 19.107 309.047 19.2937 309.884 19.2937ZM309.868 11.2537C311.495 11.2537 312.399 12.195 312.58 14.0777H307.028C307.119 13.1657 307.407 12.467 307.892 11.9817C308.378 11.4964 309.036 11.2537 309.868 11.2537Z" fill="#333333"/>
<path d="M96.994 55.0537H98.17V49.2937L103.834 55.0537H105.37L99.562 49.0937L104.93 43.5337H103.426L98.17 48.9737V43.5337H96.994V55.0537ZM107.007 58.8937H108.183L112.823 46.4137H111.623L109.007 53.5177L106.167 46.4137H104.919L108.431 55.0297L107.007 58.8937ZM114.205 58.8937H115.389V54.0217C115.698 54.4164 116.079 54.7284 116.533 54.9577C116.986 55.1817 117.506 55.2937 118.093 55.2937C118.903 55.2937 119.594 55.0937 120.165 54.6937C120.735 54.2884 121.17 53.7417 121.469 53.0537C121.773 52.3657 121.925 51.5897 121.925 50.7257C121.925 49.867 121.773 49.0937 121.469 48.4057C121.17 47.7177 120.738 47.1737 120.173 46.7737C119.607 46.3737 118.93 46.1737 118.141 46.1737C117.501 46.1737 116.938 46.3017 116.453 46.5577C115.973 46.8084 115.575 47.1577 115.261 47.6057V46.4137H114.205V58.8937ZM117.973 54.1977C117.359 54.1977 116.853 54.0484 116.453 53.7497C116.053 53.4457 115.754 53.0324 115.557 52.5097C115.359 51.987 115.261 51.3924 115.261 50.7257C115.261 49.707 115.482 48.8777 115.925 48.2377C116.373 47.5924 117.047 47.2697 117.949 47.2697C118.567 47.2697 119.077 47.4217 119.477 47.7257C119.882 48.0297 120.183 48.443 120.381 48.9657C120.578 49.4884 120.677 50.075 120.677 50.7257C120.677 51.3817 120.575 51.971 120.373 52.4937C120.175 53.0164 119.877 53.4324 119.477 53.7417C119.077 54.0457 118.575 54.1977 117.973 54.1977ZM127.266 55.2937C128.124 55.2937 128.86 55.0937 129.474 54.6937C130.092 54.2884 130.564 53.7017 130.89 52.9337L129.706 52.5817C129.268 53.6377 128.455 54.1657 127.266 54.1657C126.338 54.1657 125.639 53.8537 125.17 53.2297C124.7 52.6004 124.46 51.7684 124.45 50.7337C124.46 49.7257 124.692 48.9017 125.146 48.2617C125.604 47.6217 126.311 47.3017 127.266 47.3017C127.831 47.3017 128.332 47.4457 128.77 47.7337C129.212 48.0164 129.535 48.4164 129.738 48.9337L130.89 48.5657C130.65 47.8244 130.204 47.2404 129.554 46.8137C128.908 46.387 128.148 46.1737 127.274 46.1737C126.415 46.1737 125.684 46.3657 125.082 46.7497C124.479 47.1284 124.018 47.6617 123.698 48.3497C123.378 49.0324 123.212 49.827 123.202 50.7337C123.212 51.619 123.372 52.4057 123.682 53.0937C123.996 53.7817 124.455 54.3204 125.058 54.7097C125.66 55.099 126.396 55.2937 127.266 55.2937ZM135.915 55.2937C136.768 55.2937 137.499 55.1017 138.107 54.7177C138.72 54.3337 139.189 53.8004 139.515 53.1177C139.845 52.4297 140.011 51.6324 140.011 50.7257C140.011 49.835 139.848 49.0484 139.523 48.3657C139.203 47.6777 138.736 47.1417 138.123 46.7577C137.515 46.3684 136.779 46.1737 135.915 46.1737C135.072 46.1737 134.344 46.3657 133.731 46.7497C133.123 47.1284 132.653 47.659 132.323 48.3417C131.992 49.0244 131.827 49.819 131.827 50.7257C131.827 51.6164 131.987 52.4057 132.307 53.0937C132.632 53.7817 133.099 54.3204 133.707 54.7097C134.32 55.099 135.056 55.2937 135.915 55.2937ZM135.915 54.1657C134.981 54.1657 134.275 53.8537 133.795 53.2297C133.315 52.6004 133.075 51.7657 133.075 50.7257C133.075 49.7177 133.307 48.8964 133.771 48.2617C134.235 47.6217 134.949 47.3017 135.915 47.3017C136.869 47.3017 137.581 47.6137 138.051 48.2377C138.525 48.8564 138.763 49.6857 138.763 50.7257C138.763 51.7444 138.528 52.5737 138.059 53.2137C137.589 53.8484 136.875 54.1657 135.915 54.1657ZM141.767 55.0537H145.791C146.01 55.0537 146.242 55.0457 146.487 55.0297C146.738 55.0137 146.97 54.9764 147.183 54.9177C147.658 54.779 148.037 54.523 148.319 54.1497C148.602 53.7764 148.743 53.2937 148.743 52.7017C148.743 51.8484 148.429 51.2324 147.799 50.8537C147.607 50.7364 147.423 50.6617 147.247 50.6297C147.445 50.5444 147.626 50.411 147.791 50.2297C147.962 50.0537 148.093 49.8457 148.183 49.6057C148.279 49.3604 148.327 49.083 148.327 48.7737C148.327 48.219 148.178 47.747 147.879 47.3577C147.586 46.963 147.197 46.699 146.711 46.5657C146.487 46.507 146.245 46.467 145.983 46.4457C145.727 46.4244 145.509 46.4137 145.327 46.4137H141.767V55.0537ZM142.951 50.2297V47.4217H145.207C145.266 47.4217 145.405 47.427 145.623 47.4377C145.847 47.4484 146.055 47.4884 146.247 47.5577C146.53 47.6484 146.741 47.811 146.879 48.0457C147.023 48.275 147.095 48.539 147.095 48.8377C147.095 49.115 147.029 49.371 146.895 49.6057C146.767 49.8404 146.565 50.0057 146.287 50.1017C146.154 50.1497 146.002 50.1844 145.831 50.2057C145.661 50.2217 145.506 50.2297 145.367 50.2297H142.951ZM142.951 54.0537V51.2377H145.567C145.674 51.2377 145.794 51.2404 145.927 51.2457C146.066 51.251 146.194 51.267 146.311 51.2937C146.674 51.347 146.967 51.4964 147.191 51.7417C147.415 51.9817 147.527 52.291 147.527 52.6697C147.527 52.9577 147.453 53.2244 147.303 53.4697C147.159 53.7097 146.93 53.8697 146.615 53.9497C146.482 53.987 146.33 54.0137 146.159 54.0297C145.989 54.0457 145.847 54.0537 145.735 54.0537H142.951ZM152.81 55.2937C154.319 55.2937 155.415 54.7364 156.098 53.6217V55.0537H157.146V49.6857C157.146 49.3657 157.13 49.051 157.098 48.7417C157.066 48.4324 156.996 48.1524 156.89 47.9017C156.66 47.3417 156.268 46.915 155.714 46.6217C155.164 46.323 154.495 46.1737 153.706 46.1737C152.756 46.1737 151.983 46.387 151.386 46.8137C150.788 47.2404 150.388 47.8404 150.186 48.6137L151.33 48.9497C151.495 48.3737 151.78 47.9524 152.186 47.6857C152.596 47.419 153.098 47.2857 153.69 47.2857C154.511 47.2857 155.098 47.4777 155.45 47.8617C155.802 48.2404 155.983 48.819 155.994 49.5977C155.61 49.651 155.186 49.707 154.722 49.7657C154.263 49.8244 153.802 49.891 153.338 49.9657C152.874 50.0404 152.447 50.1257 152.058 50.2217C151.412 50.3924 150.884 50.6777 150.474 51.0777C150.063 51.4724 149.858 52.0244 149.858 52.7337C149.858 53.1924 149.967 53.6164 150.186 54.0057C150.404 54.395 150.732 54.707 151.17 54.9417C151.612 55.1764 152.159 55.2937 152.81 55.2937ZM152.946 54.2777C152.482 54.2777 152.108 54.203 151.826 54.0537C151.548 53.899 151.346 53.7044 151.218 53.4697C151.095 53.2297 151.034 52.9844 151.034 52.7337C151.034 52.2644 151.191 51.9124 151.506 51.6777C151.82 51.443 152.162 51.2724 152.53 51.1657C153.004 51.0377 153.556 50.9337 154.186 50.8537C154.815 50.7737 155.412 50.699 155.978 50.6297C155.978 50.827 155.97 51.0537 155.954 51.3097C155.943 51.5604 155.914 51.7924 155.866 52.0057C155.754 52.6564 155.444 53.1977 154.938 53.6297C154.436 54.0617 153.772 54.2777 152.946 54.2777ZM158.748 55.0537H160.036L162.22 51.7897C162.359 51.795 162.495 51.7977 162.628 51.7977H164.644V55.0537H165.828L165.82 46.4137H162.516C162.324 46.4137 162.095 46.419 161.828 46.4297C161.567 46.4404 161.308 46.475 161.052 46.5337C160.492 46.667 160.015 46.955 159.62 47.3977C159.226 47.835 159.028 48.4164 159.028 49.1417C159.028 49.8457 159.218 50.403 159.596 50.8137C159.98 51.2244 160.452 51.5017 161.012 51.6457L158.748 55.0537ZM162.564 50.7897C162.426 50.7897 162.26 50.787 162.068 50.7817C161.876 50.771 161.684 50.7417 161.492 50.6937C161.135 50.603 160.836 50.427 160.596 50.1657C160.362 49.9044 160.244 49.5577 160.244 49.1257C160.244 48.667 160.367 48.3097 160.612 48.0537C160.863 47.7924 161.119 47.6217 161.38 47.5417C161.583 47.483 161.796 47.4484 162.02 47.4377C162.25 47.427 162.431 47.4217 162.564 47.4217H164.644V50.7897H162.564ZM172.507 58.8937H173.683L178.323 46.4137H177.123L174.507 53.5177L171.667 46.4137H170.419L173.931 55.0297L172.507 58.8937ZM182.984 55.2937C183.843 55.2937 184.579 55.0937 185.192 54.6937C185.811 54.2884 186.283 53.7017 186.608 52.9337L185.424 52.5817C184.987 53.6377 184.174 54.1657 182.984 54.1657C182.056 54.1657 181.358 53.8537 180.888 53.2297C180.419 52.6004 180.179 51.7684 180.168 50.7337C180.179 49.7257 180.411 48.9017 180.864 48.2617C181.323 47.6217 182.03 47.3017 182.984 47.3017C183.55 47.3017 184.051 47.4457 184.488 47.7337C184.931 48.0164 185.254 48.4164 185.456 48.9337L186.608 48.5657C186.368 47.8244 185.923 47.2404 185.272 46.8137C184.627 46.387 183.867 46.1737 182.992 46.1737C182.134 46.1737 181.403 46.3657 180.8 46.7497C180.198 47.1284 179.736 47.6617 179.416 48.3497C179.096 49.0324 178.931 49.827 178.92 50.7337C178.931 51.619 179.091 52.4057 179.4 53.0937C179.715 53.7817 180.174 54.3204 180.776 54.7097C181.379 55.099 182.115 55.2937 182.984 55.2937ZM190.385 55.0537H191.561V47.5017H194.625V46.4137H187.321V47.5017H190.385V55.0537ZM199.602 55.2937C200.455 55.2937 201.186 55.1017 201.794 54.7177C202.407 54.3337 202.877 53.8004 203.202 53.1177C203.533 52.4297 203.698 51.6324 203.698 50.7257C203.698 49.835 203.535 49.0484 203.21 48.3657C202.89 47.6777 202.423 47.1417 201.81 46.7577C201.202 46.3684 200.466 46.1737 199.602 46.1737C198.759 46.1737 198.031 46.3657 197.418 46.7497C196.81 47.1284 196.341 47.659 196.01 48.3417C195.679 49.0244 195.514 49.819 195.514 50.7257C195.514 51.6164 195.674 52.4057 195.994 53.0937C196.319 53.7817 196.786 54.3204 197.394 54.7097C198.007 55.099 198.743 55.2937 199.602 55.2937ZM199.602 54.1657C198.669 54.1657 197.962 53.8537 197.482 53.2297C197.002 52.6004 196.762 51.7657 196.762 50.7257C196.762 49.7177 196.994 48.8964 197.458 48.2617C197.922 47.6217 198.637 47.3017 199.602 47.3017C200.557 47.3017 201.269 47.6137 201.738 48.2377C202.213 48.8564 202.45 49.6857 202.45 50.7257C202.45 51.7444 202.215 52.5737 201.746 53.2137C201.277 53.8484 200.562 54.1657 199.602 54.1657ZM209.047 45.3897C209.431 45.3897 209.777 45.299 210.087 45.1177C210.401 44.931 210.649 44.6804 210.831 44.3657C211.017 44.051 211.111 43.7044 211.111 43.3257H210.135C210.135 43.6244 210.028 43.8804 209.815 44.0937C209.607 44.307 209.351 44.4137 209.047 44.4137C208.748 44.4137 208.492 44.307 208.279 44.0937C208.065 43.8804 207.959 43.6244 207.959 43.3257H206.983C206.983 43.7044 207.073 44.051 207.255 44.3657C207.441 44.6804 207.692 44.931 208.007 45.1177C208.321 45.299 208.668 45.3897 209.047 45.3897ZM212.327 46.4137H211.343L206.599 53.0857V46.4137H205.455V55.0537H206.447L211.183 48.3257V55.0537H212.327V46.4137ZM219.86 55.0537H221.036V46.4137H219.86V50.7337C219.599 50.9204 219.276 51.0697 218.892 51.1817C218.508 51.2884 218.103 51.3417 217.676 51.3417C216.993 51.3417 216.463 51.1924 216.084 50.8937C215.711 50.595 215.471 50.155 215.364 49.5737C215.327 49.3657 215.303 49.1497 215.292 48.9257C215.281 48.7017 215.276 48.499 215.276 48.3177V46.4137H214.092V48.3177C214.092 48.4457 214.097 48.6937 214.108 49.0617C214.124 49.4244 214.169 49.771 214.244 50.1017C214.404 50.8377 214.756 51.4004 215.3 51.7897C215.849 52.179 216.561 52.3737 217.436 52.3737C217.921 52.3737 218.375 52.323 218.796 52.2217C219.217 52.115 219.572 51.987 219.86 51.8377V55.0537ZM230.139 46.4137H229.155L224.411 53.0857V46.4137H223.267V55.0537H224.259L228.995 48.3257V55.0537H230.139V46.4137ZM232.377 55.0537H236.401C236.619 55.0537 236.851 55.0457 237.097 55.0297C237.347 55.0137 237.579 54.9764 237.793 54.9177C238.267 54.779 238.646 54.523 238.929 54.1497C239.211 53.7764 239.353 53.2937 239.353 52.7017C239.353 51.8484 239.038 51.2324 238.409 50.8537C238.217 50.7364 238.033 50.6617 237.857 50.6297C238.054 50.5444 238.235 50.411 238.401 50.2297C238.571 50.0537 238.702 49.8457 238.793 49.6057C238.889 49.3604 238.937 49.083 238.937 48.7737C238.937 48.219 238.787 47.747 238.489 47.3577C238.195 46.963 237.806 46.699 237.321 46.5657C237.097 46.507 236.854 46.467 236.593 46.4457C236.337 46.4244 236.118 46.4137 235.937 46.4137H232.377V55.0537ZM233.561 50.2297V47.4217H235.817C235.875 47.4217 236.014 47.427 236.233 47.4377C236.457 47.4484 236.665 47.4884 236.857 47.5577C237.139 47.6484 237.35 47.811 237.489 48.0457C237.633 48.275 237.705 48.539 237.705 48.8377C237.705 49.115 237.638 49.371 237.505 49.6057C237.377 49.8404 237.174 50.0057 236.897 50.1017C236.763 50.1497 236.611 50.1844 236.441 50.2057C236.27 50.2217 236.115 50.2297 235.977 50.2297H233.561ZM233.561 54.0537V51.2377H236.177C236.283 51.2377 236.403 51.2404 236.537 51.2457C236.675 51.251 236.803 51.267 236.921 51.2937C237.283 51.347 237.577 51.4964 237.801 51.7417C238.025 51.9817 238.137 52.291 238.137 52.6697C238.137 52.9577 238.062 53.2244 237.913 53.4697C237.769 53.7097 237.539 53.8697 237.225 53.9497C237.091 53.987 236.939 54.0137 236.769 54.0297C236.598 54.0457 236.457 54.0537 236.345 54.0537H233.561ZM244.555 55.2937C245.408 55.2937 246.139 55.1017 246.747 54.7177C247.36 54.3337 247.83 53.8004 248.155 53.1177C248.486 52.4297 248.651 51.6324 248.651 50.7257C248.651 49.835 248.488 49.0484 248.163 48.3657C247.843 47.6777 247.376 47.1417 246.763 46.7577C246.155 46.3684 245.419 46.1737 244.555 46.1737C243.712 46.1737 242.984 46.3657 242.371 46.7497C241.763 47.1284 241.294 47.659 240.963 48.3417C240.632 49.0244 240.467 49.819 240.467 50.7257C240.467 51.6164 240.627 52.4057 240.947 53.0937C241.272 53.7817 241.739 54.3204 242.347 54.7097C242.96 55.099 243.696 55.2937 244.555 55.2937ZM244.555 54.1657C243.622 54.1657 242.915 53.8537 242.435 53.2297C241.955 52.6004 241.715 51.7657 241.715 50.7257C241.715 49.7177 241.947 48.8964 242.411 48.2617C242.875 47.6217 243.59 47.3017 244.555 47.3017C245.51 47.3017 246.222 47.6137 246.691 48.2377C247.166 48.8564 247.403 49.6857 247.403 50.7257C247.403 51.7444 247.168 52.5737 246.699 53.2137C246.23 53.8484 245.515 54.1657 244.555 54.1657ZM254 55.2937C254.859 55.2937 255.595 55.0937 256.208 54.6937C256.827 54.2884 257.299 53.7017 257.624 52.9337L256.44 52.5817C256.003 53.6377 255.189 54.1657 254 54.1657C253.072 54.1657 252.373 53.8537 251.904 53.2297C251.435 52.6004 251.195 51.7684 251.184 50.7337C251.195 49.7257 251.427 48.9017 251.88 48.2617C252.339 47.6217 253.045 47.3017 254 47.3017C254.565 47.3017 255.067 47.4457 255.504 47.7337C255.947 48.0164 256.269 48.4164 256.472 48.9337L257.624 48.5657C257.384 47.8244 256.939 47.2404 256.288 46.8137C255.643 46.387 254.883 46.1737 254.008 46.1737C253.149 46.1737 252.419 46.3657 251.816 46.7497C251.213 47.1284 250.752 47.6617 250.432 48.3497C250.112 49.0324 249.947 49.827 249.936 50.7337C249.947 51.619 250.107 52.4057 250.416 53.0937C250.731 53.7817 251.189 54.3204 251.792 54.7097C252.395 55.099 253.131 55.2937 254 55.2937ZM261.401 55.0537H262.577V47.5017H265.641V46.4137H258.337V47.5017H261.401V55.0537ZM267.174 55.0537H270.47C270.721 55.0537 270.974 55.0484 271.23 55.0377C271.486 55.0217 271.723 54.9897 271.942 54.9417C272.523 54.8137 273.003 54.5364 273.382 54.1097C273.766 53.683 273.958 53.099 273.958 52.3577C273.958 51.547 273.75 50.939 273.334 50.5337C272.918 50.1284 272.39 49.867 271.75 49.7497C271.558 49.7177 271.342 49.6964 271.102 49.6857C270.862 49.675 270.617 49.6697 270.366 49.6697H268.342V46.4137H267.158L267.174 55.0537ZM268.342 54.0457V50.6777H270.422C270.598 50.6777 270.782 50.683 270.974 50.6937C271.166 50.7044 271.345 50.7284 271.51 50.7657C271.883 50.8457 272.182 51.011 272.406 51.2617C272.63 51.507 272.742 51.8724 272.742 52.3577C272.742 52.8537 272.625 53.2217 272.39 53.4617C272.161 53.7017 271.905 53.8617 271.622 53.9417C271.446 53.9897 271.246 54.019 271.022 54.0297C270.798 54.0404 270.598 54.0457 270.422 54.0457H268.342Z" fill="#333333"/>
<path d="M101.658 91.2937C102.997 91.2937 104.09 90.9524 104.938 90.2697C105.786 89.5817 106.367 88.6617 106.682 87.5097L105.482 87.1977C105.237 88.1044 104.797 88.827 104.162 89.3657C103.527 89.899 102.693 90.1657 101.658 90.1657C100.757 90.1657 100.002 89.9604 99.394 89.5497C98.7914 89.1337 98.338 88.5604 98.034 87.8297C97.7354 87.099 97.5887 86.2537 97.594 85.2937C97.6047 84.3337 97.7594 83.4884 98.058 82.7577C98.3567 82.0217 98.8047 81.4484 99.402 81.0377C100.005 80.627 100.757 80.4217 101.658 80.4217C102.693 80.4217 103.527 80.691 104.162 81.2297C104.797 81.763 105.237 82.483 105.482 83.3897L106.682 83.0777C106.367 81.9257 105.786 81.0084 104.938 80.3257C104.09 79.6377 102.997 79.2937 101.658 79.2937C100.511 79.2937 99.5434 79.547 98.754 80.0537C97.9647 80.5604 97.3674 81.2644 96.962 82.1657C96.5567 83.067 96.354 84.1097 96.354 85.2937C96.354 86.4724 96.5567 87.515 96.962 88.4217C97.3674 89.323 97.9647 90.027 98.754 90.5337C99.5434 91.0404 100.511 91.2937 101.658 91.2937ZM110.791 91.0537H111.967V83.5017H115.031V82.4137H107.727V83.5017H110.791V91.0537ZM120.008 91.2937C120.862 91.2937 121.592 91.1017 122.2 90.7177C122.814 90.3337 123.283 89.8004 123.608 89.1177C123.939 88.4297 124.104 87.6324 124.104 86.7257C124.104 85.835 123.942 85.0484 123.616 84.3657C123.296 83.6777 122.83 83.1417 122.216 82.7577C121.608 82.3684 120.872 82.1737 120.008 82.1737C119.166 82.1737 118.438 82.3657 117.824 82.7497C117.216 83.1284 116.747 83.659 116.416 84.3417C116.086 85.0244 115.92 85.819 115.92 86.7257C115.92 87.6164 116.08 88.4057 116.4 89.0937C116.726 89.7817 117.192 90.3204 117.8 90.7097C118.414 91.099 119.15 91.2937 120.008 91.2937ZM120.008 90.1657C119.075 90.1657 118.368 89.8537 117.888 89.2297C117.408 88.6004 117.168 87.7657 117.168 86.7257C117.168 85.7177 117.4 84.8964 117.864 84.2617C118.328 83.6217 119.043 83.3017 120.008 83.3017C120.963 83.3017 121.675 83.6137 122.144 84.2377C122.619 84.8564 122.856 85.6857 122.856 86.7257C122.856 87.7444 122.622 88.5737 122.152 89.2137C121.683 89.8484 120.968 90.1657 120.008 90.1657ZM129.453 81.3897C129.837 81.3897 130.184 81.299 130.493 81.1177C130.808 80.931 131.056 80.6804 131.237 80.3657C131.424 80.051 131.517 79.7044 131.517 79.3257H130.541C130.541 79.6244 130.434 79.8804 130.221 80.0937C130.013 80.307 129.757 80.4137 129.453 80.4137C129.154 80.4137 128.898 80.307 128.685 80.0937C128.472 79.8804 128.365 79.6244 128.365 79.3257H127.389C127.389 79.7044 127.48 80.051 127.661 80.3657C127.848 80.6804 128.098 80.931 128.413 81.1177C128.728 81.299 129.074 81.3897 129.453 81.3897ZM132.733 82.4137H131.749L127.005 89.0857V82.4137H125.861V91.0537H126.853L131.589 84.3257V91.0537H132.733V82.4137ZM134.97 91.0537H136.162V86.8937L140.402 91.0537H142.114L137.538 86.7337L141.586 82.4137H140.018L136.162 86.5737V82.4137H134.978L134.97 91.0537ZM146.368 91.2937C147.221 91.2937 147.952 91.1017 148.56 90.7177C149.173 90.3337 149.642 89.8004 149.968 89.1177C150.298 88.4297 150.464 87.6324 150.464 86.7257C150.464 85.835 150.301 85.0484 149.976 84.3657C149.656 83.6777 149.189 83.1417 148.576 82.7577C147.968 82.3684 147.232 82.1737 146.368 82.1737C145.525 82.1737 144.797 82.3657 144.184 82.7497C143.576 83.1284 143.106 83.659 142.776 84.3417C142.445 85.0244 142.28 85.819 142.28 86.7257C142.28 87.6164 142.44 88.4057 142.76 89.0937C143.085 89.7817 143.552 90.3204 144.16 90.7097C144.773 91.099 145.509 91.2937 146.368 91.2937ZM146.368 90.1657C145.434 90.1657 144.728 89.8537 144.248 89.2297C143.768 88.6004 143.528 87.7657 143.528 86.7257C143.528 85.7177 143.76 84.8964 144.224 84.2617C144.688 83.6217 145.402 83.3017 146.368 83.3017C147.322 83.3017 148.034 83.6137 148.504 84.2377C148.978 84.8564 149.216 85.6857 149.216 86.7257C149.216 87.7444 148.981 88.5737 148.512 89.2137C148.042 89.8484 147.328 90.1657 146.368 90.1657ZM155.812 91.2937C156.671 91.2937 157.407 91.0937 158.02 90.6937C158.639 90.2884 159.111 89.7017 159.436 88.9337L158.252 88.5817C157.815 89.6377 157.002 90.1657 155.812 90.1657C154.884 90.1657 154.186 89.8537 153.716 89.2297C153.247 88.6004 153.007 87.7684 152.996 86.7337C153.007 85.7257 153.239 84.9017 153.692 84.2617C154.151 83.6217 154.858 83.3017 155.812 83.3017C156.378 83.3017 156.879 83.4457 157.316 83.7337C157.759 84.0164 158.082 84.4164 158.284 84.9337L159.436 84.5657C159.196 83.8244 158.751 83.2404 158.1 82.8137C157.455 82.387 156.695 82.1737 155.82 82.1737C154.962 82.1737 154.231 82.3657 153.628 82.7497C153.026 83.1284 152.564 83.6617 152.244 84.3497C151.924 85.0324 151.759 85.827 151.748 86.7337C151.759 87.619 151.919 88.4057 152.228 89.0937C152.543 89.7817 153.002 90.3204 153.604 90.7097C154.207 91.099 154.943 91.2937 155.812 91.2937ZM163.213 91.0537H164.389V83.5017H167.453V82.4137H160.149V83.5017H163.213V91.0537ZM168.986 91.0537H172.282C172.533 91.0537 172.786 91.0484 173.042 91.0377C173.298 91.0217 173.536 90.9897 173.754 90.9417C174.336 90.8137 174.816 90.5364 175.194 90.1097C175.578 89.683 175.77 89.099 175.77 88.3577C175.77 87.547 175.562 86.939 175.146 86.5337C174.73 86.1284 174.202 85.867 173.562 85.7497C173.37 85.7177 173.154 85.6964 172.914 85.6857C172.674 85.675 172.429 85.6697 172.178 85.6697H170.154V82.4137H168.97L168.986 91.0537ZM170.154 90.0457V86.6777H172.234C172.41 86.6777 172.594 86.683 172.786 86.6937C172.978 86.7044 173.157 86.7284 173.322 86.7657C173.696 86.8457 173.994 87.011 174.218 87.2617C174.442 87.507 174.554 87.8724 174.554 88.3577C174.554 88.8537 174.437 89.2217 174.202 89.4617C173.973 89.7017 173.717 89.8617 173.434 89.9417C173.258 89.9897 173.058 90.019 172.834 90.0297C172.61 90.0404 172.41 90.0457 172.234 90.0457H170.154ZM180.72 91.0537H181.912V86.8937L186.152 91.0537H187.864L183.288 86.7337L187.336 82.4137H185.768L181.912 86.5737V82.4137H180.728L180.72 91.0537ZM194.341 91.2937C195.85 91.2937 196.946 90.7364 197.629 89.6217V91.0537H198.677V85.6857C198.677 85.3657 198.661 85.051 198.629 84.7417C198.597 84.4324 198.528 84.1524 198.421 83.9017C198.192 83.3417 197.8 82.915 197.245 82.6217C196.696 82.323 196.026 82.1737 195.237 82.1737C194.288 82.1737 193.514 82.387 192.917 82.8137C192.32 83.2404 191.92 83.8404 191.717 84.6137L192.861 84.9497C193.026 84.3737 193.312 83.9524 193.717 83.6857C194.128 83.419 194.629 83.2857 195.221 83.2857C196.042 83.2857 196.629 83.4777 196.981 83.8617C197.333 84.2404 197.514 84.819 197.525 85.5977C197.141 85.651 196.717 85.707 196.253 85.7657C195.794 85.8244 195.333 85.891 194.869 85.9657C194.405 86.0404 193.978 86.1257 193.589 86.2217C192.944 86.3924 192.416 86.6777 192.005 87.0777C191.594 87.4724 191.389 88.0244 191.389 88.7337C191.389 89.1924 191.498 89.6164 191.717 90.0057C191.936 90.395 192.264 90.707 192.701 90.9417C193.144 91.1764 193.69 91.2937 194.341 91.2937ZM194.477 90.2777C194.013 90.2777 193.64 90.203 193.357 90.0537C193.08 89.899 192.877 89.7044 192.749 89.4697C192.626 89.2297 192.565 88.9844 192.565 88.7337C192.565 88.2644 192.722 87.9124 193.037 87.6777C193.352 87.443 193.693 87.2724 194.061 87.1657C194.536 87.0377 195.088 86.9337 195.717 86.8537C196.346 86.7737 196.944 86.699 197.509 86.6297C197.509 86.827 197.501 87.0537 197.485 87.3097C197.474 87.5604 197.445 87.7924 197.397 88.0057C197.285 88.6564 196.976 89.1977 196.469 89.6297C195.968 90.0617 195.304 90.2777 194.477 90.2777ZM200.752 91.0537H201.944V86.8937L206.184 91.0537H207.896L203.32 86.7337L207.368 82.4137H205.8L201.944 86.5737V82.4137H200.76L200.752 91.0537ZM208.689 91.0537H212.713C212.932 91.0537 213.164 91.0457 213.409 91.0297C213.66 91.0137 213.892 90.9764 214.105 90.9177C214.58 90.779 214.958 90.523 215.241 90.1497C215.524 89.7764 215.665 89.2937 215.665 88.7017C215.665 87.8484 215.35 87.2324 214.721 86.8537C214.529 86.7364 214.345 86.6617 214.169 86.6297C214.366 86.5444 214.548 86.411 214.713 86.2297C214.884 86.0537 215.014 85.8457 215.105 85.6057C215.201 85.3604 215.249 85.083 215.249 84.7737C215.249 84.219 215.1 83.747 214.801 83.3577C214.508 82.963 214.118 82.699 213.633 82.5657C213.409 82.507 213.166 82.467 212.905 82.4457C212.649 82.4244 212.43 82.4137 212.249 82.4137H208.689V91.0537ZM209.873 86.2297V83.4217H212.129C212.188 83.4217 212.326 83.427 212.545 83.4377C212.769 83.4484 212.977 83.4884 213.169 83.5577C213.452 83.6484 213.662 83.811 213.801 84.0457C213.945 84.275 214.017 84.539 214.017 84.8377C214.017 85.115 213.95 85.371 213.817 85.6057C213.689 85.8404 213.486 86.0057 213.209 86.1017C213.076 86.1497 212.924 86.1844 212.753 86.2057C212.582 86.2217 212.428 86.2297 212.289 86.2297H209.873ZM209.873 90.0537V87.2377H212.489C212.596 87.2377 212.716 87.2404 212.849 87.2457C212.988 87.251 213.116 87.267 213.233 87.2937C213.596 87.347 213.889 87.4964 214.113 87.7417C214.337 87.9817 214.449 88.291 214.449 88.6697C214.449 88.9577 214.374 89.2244 214.225 89.4697C214.081 89.7097 213.852 89.8697 213.537 89.9497C213.404 89.987 213.252 90.0137 213.081 90.0297C212.91 90.0457 212.769 90.0537 212.657 90.0537H209.873ZM219.732 91.2937C221.241 91.2937 222.337 90.7364 223.02 89.6217V91.0537H224.068V85.6857C224.068 85.3657 224.052 85.051 224.02 84.7417C223.988 84.4324 223.918 84.1524 223.812 83.9017C223.582 83.3417 223.19 82.915 222.636 82.6217C222.086 82.323 221.417 82.1737 220.628 82.1737C219.678 82.1737 218.905 82.387 218.308 82.8137C217.71 83.2404 217.31 83.8404 217.108 84.6137L218.252 84.9497C218.417 84.3737 218.702 83.9524 219.108 83.6857C219.518 83.419 220.02 83.2857 220.612 83.2857C221.433 83.2857 222.02 83.4777 222.372 83.8617C222.724 84.2404 222.905 84.819 222.916 85.5977C222.532 85.651 222.108 85.707 221.644 85.7657C221.185 85.8244 220.724 85.891 220.26 85.9657C219.796 86.0404 219.369 86.1257 218.98 86.2217C218.334 86.3924 217.806 86.6777 217.396 87.0777C216.985 87.4724 216.78 88.0244 216.78 88.7337C216.78 89.1924 216.889 89.6164 217.108 90.0057C217.326 90.395 217.654 90.707 218.092 90.9417C218.534 91.1764 219.081 91.2937 219.732 91.2937ZM219.868 90.2777C219.404 90.2777 219.03 90.203 218.748 90.0537C218.47 89.899 218.268 89.7044 218.14 89.4697C218.017 89.2297 217.956 88.9844 217.956 88.7337C217.956 88.2644 218.113 87.9124 218.428 87.6777C218.742 87.443 219.084 87.2724 219.452 87.1657C219.926 87.0377 220.478 86.9337 221.108 86.8537C221.737 86.7737 222.334 86.699 222.9 86.6297C222.9 86.827 222.892 87.0537 222.876 87.3097C222.865 87.5604 222.836 87.7924 222.788 88.0057C222.676 88.6564 222.366 89.1977 221.86 89.6297C221.358 90.0617 220.694 90.2777 219.868 90.2777ZM226.142 91.0537H227.318V83.5417H231.838V91.0537H233.014V82.4137H226.142V91.0537ZM234.46 91.0537C235.004 91.1604 235.43 91.1684 235.74 91.0777C236.049 90.987 236.284 90.8004 236.444 90.5177C236.604 90.235 236.729 89.8564 236.82 89.3817C236.905 88.9604 236.985 88.4377 237.06 87.8137C237.134 87.1897 237.204 86.5097 237.268 85.7737C237.332 85.0377 237.39 84.2937 237.444 83.5417H241.06V91.0537H242.228V82.4137H236.356C236.27 83.7844 236.182 84.987 236.092 86.0217C236.006 87.0564 235.897 87.963 235.764 88.7417C235.684 89.211 235.566 89.563 235.412 89.7977C235.262 90.0324 234.945 90.107 234.46 90.0217V91.0537ZM246.935 91.2937C248.444 91.2937 249.54 90.7364 250.223 89.6217V91.0537H251.271V85.6857C251.271 85.3657 251.255 85.051 251.223 84.7417C251.191 84.4324 251.121 84.1524 251.015 83.9017C250.785 83.3417 250.393 82.915 249.839 82.6217C249.289 82.323 248.62 82.1737 247.831 82.1737C246.881 82.1737 246.108 82.387 245.511 82.8137C244.913 83.2404 244.513 83.8404 244.311 84.6137L245.455 84.9497C245.62 84.3737 245.905 83.9524 246.311 83.6857C246.721 83.419 247.223 83.2857 247.815 83.2857C248.636 83.2857 249.223 83.4777 249.575 83.8617C249.927 84.2404 250.108 84.819 250.119 85.5977C249.735 85.651 249.311 85.707 248.847 85.7657C248.388 85.8244 247.927 85.891 247.463 85.9657C246.999 86.0404 246.572 86.1257 246.183 86.2217C245.537 86.3924 245.009 86.6777 244.599 87.0777C244.188 87.4724 243.983 88.0244 243.983 88.7337C243.983 89.1924 244.092 89.6164 244.311 90.0057C244.529 90.395 244.857 90.707 245.295 90.9417C245.737 91.1764 246.284 91.2937 246.935 91.2937ZM247.071 90.2777C246.607 90.2777 246.233 90.203 245.951 90.0537C245.673 89.899 245.471 89.7044 245.343 89.4697C245.22 89.2297 245.159 88.9844 245.159 88.7337C245.159 88.2644 245.316 87.9124 245.631 87.6777C245.945 87.443 246.287 87.2724 246.655 87.1657C247.129 87.0377 247.681 86.9337 248.311 86.8537C248.94 86.7737 249.537 86.699 250.103 86.6297C250.103 86.827 250.095 87.0537 250.079 87.3097C250.068 87.5604 250.039 87.7924 249.991 88.0057C249.879 88.6564 249.569 89.1977 249.063 89.6297C248.561 90.0617 247.897 90.2777 247.071 90.2777ZM253.345 91.0537H254.521V87.2937H259.393V91.0537H260.569V82.4137H259.393V86.1657H254.521V82.4137H253.345V91.0537ZM269.671 82.4137H268.687L263.943 89.0857V82.4137H262.799V91.0537H263.791L268.527 84.3257V91.0537H269.671V82.4137ZM271.908 94.8937H273.092V90.0217C273.401 90.4164 273.783 90.7284 274.236 90.9577C274.689 91.1817 275.209 91.2937 275.796 91.2937C276.607 91.2937 277.297 91.0937 277.868 90.6937C278.439 90.2884 278.873 89.7417 279.172 89.0537C279.476 88.3657 279.628 87.5897 279.628 86.7257C279.628 85.867 279.476 85.0937 279.172 84.4057C278.873 83.7177 278.441 83.1737 277.876 82.7737C277.311 82.3737 276.633 82.1737 275.844 82.1737C275.204 82.1737 274.641 82.3017 274.156 82.5577C273.676 82.8084 273.279 83.1577 272.964 83.6057V82.4137H271.908V94.8937ZM275.676 90.1977C275.063 90.1977 274.556 90.0484 274.156 89.7497C273.756 89.4457 273.457 89.0324 273.26 88.5097C273.063 87.987 272.964 87.3924 272.964 86.7257C272.964 85.707 273.185 84.8777 273.628 84.2377C274.076 83.5924 274.751 83.2697 275.652 83.2697C276.271 83.2697 276.78 83.4217 277.18 83.7257C277.585 84.0297 277.887 84.443 278.084 84.9657C278.281 85.4884 278.38 86.075 278.38 86.7257C278.38 87.3817 278.279 87.971 278.076 88.4937C277.879 89.0164 277.58 89.4324 277.18 89.7417C276.78 90.0457 276.279 90.1977 275.676 90.1977ZM284.993 91.2937C285.846 91.2937 286.577 91.1017 287.185 90.7177C287.798 90.3337 288.267 89.8004 288.593 89.1177C288.923 88.4297 289.089 87.6324 289.089 86.7257C289.089 85.835 288.926 85.0484 288.601 84.3657C288.281 83.6777 287.814 83.1417 287.201 82.7577C286.593 82.3684 285.857 82.1737 284.993 82.1737C284.15 82.1737 283.422 82.3657 282.809 82.7497C282.201 83.1284 281.731 83.659 281.401 84.3417C281.07 85.0244 280.905 85.819 280.905 86.7257C280.905 87.6164 281.065 88.4057 281.385 89.0937C281.71 89.7817 282.177 90.3204 282.785 90.7097C283.398 91.099 284.134 91.2937 284.993 91.2937ZM284.993 90.1657C284.059 90.1657 283.353 89.8537 282.873 89.2297C282.393 88.6004 282.153 87.7657 282.153 86.7257C282.153 85.7177 282.385 84.8964 282.849 84.2617C283.313 83.6217 284.027 83.3017 284.993 83.3017C285.947 83.3017 286.659 83.6137 287.129 84.2377C287.603 84.8564 287.841 85.6857 287.841 86.7257C287.841 87.7444 287.606 88.5737 287.137 89.2137C286.667 89.8484 285.953 90.1657 284.993 90.1657ZM290.845 91.0537H294.869C295.088 91.0537 295.32 91.0457 295.565 91.0297C295.816 91.0137 296.048 90.9764 296.261 90.9177C296.736 90.779 297.115 90.523 297.397 90.1497C297.68 89.7764 297.821 89.2937 297.821 88.7017C297.821 87.8484 297.507 87.2324 296.877 86.8537C296.685 86.7364 296.501 86.6617 296.325 86.6297C296.523 86.5444 296.704 86.411 296.869 86.2297C297.04 86.0537 297.171 85.8457 297.261 85.6057C297.357 85.3604 297.405 85.083 297.405 84.7737C297.405 84.219 297.256 83.747 296.957 83.3577C296.664 82.963 296.275 82.699 295.789 82.5657C295.565 82.507 295.323 82.467 295.061 82.4457C294.805 82.4244 294.587 82.4137 294.405 82.4137H290.845V91.0537ZM292.029 86.2297V83.4217H294.285C294.344 83.4217 294.483 83.427 294.701 83.4377C294.925 83.4484 295.133 83.4884 295.325 83.5577C295.608 83.6484 295.819 83.811 295.957 84.0457C296.101 84.275 296.173 84.539 296.173 84.8377C296.173 85.115 296.107 85.371 295.973 85.6057C295.845 85.8404 295.643 86.0057 295.365 86.1017C295.232 86.1497 295.08 86.1844 294.909 86.2057C294.739 86.2217 294.584 86.2297 294.445 86.2297H292.029ZM292.029 90.0537V87.2377H294.645C294.752 87.2377 294.872 87.2404 295.005 87.2457C295.144 87.251 295.272 87.267 295.389 87.2937C295.752 87.347 296.045 87.4964 296.269 87.7417C296.493 87.9817 296.605 88.291 296.605 88.6697C296.605 88.9577 296.531 89.2244 296.381 89.4697C296.237 89.7097 296.008 89.8697 295.693 89.9497C295.56 89.987 295.408 90.0137 295.237 90.0297C295.067 90.0457 294.925 90.0537 294.813 90.0537H292.029ZM301.888 91.2937C303.397 91.2937 304.493 90.7364 305.176 89.6217V91.0537H306.224V85.6857C306.224 85.3657 306.208 85.051 306.176 84.7417C306.144 84.4324 306.075 84.1524 305.968 83.9017C305.739 83.3417 305.347 82.915 304.792 82.6217C304.243 82.323 303.573 82.1737 302.784 82.1737C301.835 82.1737 301.061 82.387 300.464 82.8137C299.867 83.2404 299.467 83.8404 299.264 84.6137L300.408 84.9497C300.573 84.3737 300.859 83.9524 301.264 83.6857C301.675 83.419 302.176 83.2857 302.768 83.2857C303.589 83.2857 304.176 83.4777 304.528 83.8617C304.88 84.2404 305.061 84.819 305.072 85.5977C304.688 85.651 304.264 85.707 303.8 85.7657C303.341 85.8244 302.88 85.891 302.416 85.9657C301.952 86.0404 301.525 86.1257 301.136 86.2217C300.491 86.3924 299.963 86.6777 299.552 87.0777C299.141 87.4724 298.936 88.0244 298.936 88.7337C298.936 89.1924 299.045 89.6164 299.264 90.0057C299.483 90.395 299.811 90.707 300.248 90.9417C300.691 91.1764 301.237 91.2937 301.888 91.2937ZM302.024 90.2777C301.56 90.2777 301.187 90.203 300.904 90.0537C300.627 89.899 300.424 89.7044 300.296 89.4697C300.173 89.2297 300.112 88.9844 300.112 88.7337C300.112 88.2644 300.269 87.9124 300.584 87.6777C300.899 87.443 301.24 87.2724 301.608 87.1657C302.083 87.0377 302.635 86.9337 303.264 86.8537C303.893 86.7737 304.491 86.699 305.056 86.6297C305.056 86.827 305.048 87.0537 305.032 87.3097C305.021 87.5604 304.992 87.7924 304.944 88.0057C304.832 88.6564 304.523 89.1977 304.016 89.6297C303.515 90.0617 302.851 90.2777 302.024 90.2777ZM308.299 91.0537H309.475V87.2937H314.347V91.0537H315.523V82.4137H314.347V86.1657H309.475V82.4137H308.299V91.0537ZM324.624 82.4137H323.64L318.896 89.0857V82.4137H317.752V91.0537H318.744L323.48 84.3257V91.0537H324.624V82.4137ZM333.669 91.2937C334.528 91.2937 335.261 91.1017 335.869 90.7177C336.482 90.3284 336.952 89.7897 337.277 89.1017C337.602 88.4137 337.765 87.619 337.765 86.7177C337.765 85.8324 337.602 85.0484 337.277 84.3657C336.957 83.683 336.49 83.147 335.877 82.7577C335.269 82.3684 334.536 82.1737 333.677 82.1737C332.541 82.1737 331.621 82.531 330.917 83.2457C330.218 83.955 329.818 84.923 329.717 86.1497H328.037V82.4137H326.861V91.0537H328.037V87.3177H329.725C329.832 88.523 330.229 89.4884 330.917 90.2137C331.605 90.9337 332.522 91.2937 333.669 91.2937ZM333.645 90.1657C332.722 90.1657 332.021 89.8537 331.541 89.2297C331.066 88.6004 330.829 87.763 330.829 86.7177C330.829 85.651 331.072 84.8164 331.557 84.2137C332.042 83.6057 332.741 83.3017 333.653 83.3017C334.608 83.3017 335.322 83.611 335.797 84.2297C336.277 84.843 336.517 85.675 336.517 86.7257C336.517 87.755 336.28 88.587 335.805 89.2217C335.336 89.851 334.616 90.1657 333.645 90.1657Z" fill="#333333"/>
<path d="M96.994 127.054H98.17V121.294L103.834 127.054H105.37L99.562 121.094L104.93 115.534H103.426L98.17 120.974V115.534H96.994V127.054ZM108.966 127.294C110.475 127.294 111.571 126.736 112.254 125.622V127.054H113.302V121.686C113.302 121.366 113.286 121.051 113.254 120.742C113.222 120.432 113.153 120.152 113.046 119.902C112.817 119.342 112.425 118.915 111.87 118.622C111.321 118.323 110.651 118.174 109.862 118.174C108.913 118.174 108.139 118.387 107.542 118.814C106.945 119.24 106.545 119.84 106.342 120.614L107.486 120.95C107.651 120.374 107.937 119.952 108.342 119.686C108.753 119.419 109.254 119.286 109.846 119.286C110.667 119.286 111.254 119.478 111.606 119.862C111.958 120.24 112.139 120.819 112.15 121.598C111.766 121.651 111.342 121.707 110.878 121.766C110.419 121.824 109.958 121.891 109.494 121.966C109.03 122.04 108.603 122.126 108.214 122.222C107.569 122.392 107.041 122.678 106.63 123.078C106.219 123.472 106.014 124.024 106.014 124.734C106.014 125.192 106.123 125.616 106.342 126.006C106.561 126.395 106.889 126.707 107.326 126.942C107.769 127.176 108.315 127.294 108.966 127.294ZM109.102 126.278C108.638 126.278 108.265 126.203 107.982 126.054C107.705 125.899 107.502 125.704 107.374 125.47C107.251 125.23 107.19 124.984 107.19 124.734C107.19 124.264 107.347 123.912 107.662 123.678C107.977 123.443 108.318 123.272 108.686 123.166C109.161 123.038 109.713 122.934 110.342 122.854C110.971 122.774 111.569 122.699 112.134 122.63C112.134 122.827 112.126 123.054 112.11 123.31C112.099 123.56 112.07 123.792 112.022 124.006C111.91 124.656 111.601 125.198 111.094 125.63C110.593 126.062 109.929 126.278 109.102 126.278ZM120.673 127.054H121.849V118.414H120.673V122.734C120.411 122.92 120.089 123.07 119.705 123.182C119.321 123.288 118.915 123.342 118.489 123.342C117.806 123.342 117.275 123.192 116.897 122.894C116.523 122.595 116.283 122.155 116.177 121.574C116.139 121.366 116.115 121.15 116.105 120.926C116.094 120.702 116.089 120.499 116.089 120.318V118.414H114.905V120.318C114.905 120.446 114.91 120.694 114.921 121.062C114.937 121.424 114.982 121.771 115.057 122.102C115.217 122.838 115.569 123.4 116.113 123.79C116.662 124.179 117.374 124.374 118.249 124.374C118.734 124.374 119.187 124.323 119.609 124.222C120.03 124.115 120.385 123.987 120.673 123.838V127.054ZM127.744 127.294C128.581 127.294 129.33 127.088 129.992 126.678C130.658 126.267 131.162 125.683 131.504 124.926L130.408 124.502C129.858 125.611 128.954 126.166 127.696 126.166C126.832 126.166 126.154 125.896 125.664 125.358C125.178 124.819 124.912 124.054 124.864 123.062H131.672C131.714 121.536 131.381 120.342 130.672 119.478C129.968 118.608 128.976 118.174 127.696 118.174C126.864 118.174 126.141 118.36 125.528 118.734C124.92 119.107 124.448 119.638 124.112 120.326C123.776 121.014 123.608 121.83 123.608 122.774C123.608 123.686 123.776 124.48 124.112 125.158C124.453 125.835 124.933 126.36 125.552 126.734C126.176 127.107 126.906 127.294 127.744 127.294ZM127.728 119.254C129.354 119.254 130.258 120.195 130.44 122.078H124.888C124.978 121.166 125.266 120.467 125.752 119.982C126.237 119.496 126.896 119.254 127.728 119.254ZM137.031 127.294C137.89 127.294 138.626 127.094 139.239 126.694C139.858 126.288 140.33 125.702 140.655 124.934L139.471 124.582C139.034 125.638 138.22 126.166 137.031 126.166C136.103 126.166 135.404 125.854 134.935 125.23C134.466 124.6 134.226 123.768 134.215 122.734C134.226 121.726 134.458 120.902 134.911 120.262C135.37 119.622 136.076 119.302 137.031 119.302C137.596 119.302 138.098 119.446 138.535 119.734C138.978 120.016 139.3 120.416 139.503 120.934L140.655 120.566C140.415 119.824 139.97 119.24 139.319 118.814C138.674 118.387 137.914 118.174 137.039 118.174C136.18 118.174 135.45 118.366 134.847 118.75C134.244 119.128 133.783 119.662 133.463 120.35C133.143 121.032 132.978 121.827 132.967 122.734C132.978 123.619 133.138 124.406 133.447 125.094C133.762 125.782 134.22 126.32 134.823 126.71C135.426 127.099 136.162 127.294 137.031 127.294ZM144.432 127.054H145.608V119.502H148.672V118.414H141.368V119.502H144.432V127.054ZM150.189 127.054H154.213C154.432 127.054 154.664 127.046 154.909 127.03C155.16 127.014 155.392 126.976 155.605 126.918C156.08 126.779 156.458 126.523 156.741 126.15C157.024 125.776 157.165 125.294 157.165 124.702C157.165 123.848 156.85 123.232 156.221 122.854C156.029 122.736 155.845 122.662 155.669 122.63C155.866 122.544 156.048 122.411 156.213 122.23C156.384 122.054 156.514 121.846 156.605 121.606C156.701 121.36 156.749 121.083 156.749 120.774C156.749 120.219 156.6 119.747 156.301 119.358C156.008 118.963 155.618 118.699 155.133 118.566C154.909 118.507 154.666 118.467 154.405 118.446C154.149 118.424 153.93 118.414 153.749 118.414H150.189V127.054ZM151.373 122.23V119.422H153.629C153.688 119.422 153.826 119.427 154.045 119.438C154.269 119.448 154.477 119.488 154.669 119.558C154.952 119.648 155.162 119.811 155.301 120.046C155.445 120.275 155.517 120.539 155.517 120.838C155.517 121.115 155.45 121.371 155.317 121.606C155.189 121.84 154.986 122.006 154.709 122.102C154.576 122.15 154.424 122.184 154.253 122.206C154.082 122.222 153.928 122.23 153.789 122.23H151.373ZM151.373 126.054V123.238H153.989C154.096 123.238 154.216 123.24 154.349 123.246C154.488 123.251 154.616 123.267 154.733 123.294C155.096 123.347 155.389 123.496 155.613 123.742C155.837 123.982 155.949 124.291 155.949 124.67C155.949 124.958 155.874 125.224 155.725 125.47C155.581 125.71 155.352 125.87 155.037 125.95C154.904 125.987 154.752 126.014 154.581 126.03C154.41 126.046 154.269 126.054 154.157 126.054H151.373ZM162.368 127.294C163.221 127.294 163.952 127.102 164.56 126.718C165.173 126.334 165.642 125.8 165.968 125.118C166.298 124.43 166.464 123.632 166.464 122.726C166.464 121.835 166.301 121.048 165.976 120.366C165.656 119.678 165.189 119.142 164.576 118.758C163.968 118.368 163.232 118.174 162.368 118.174C161.525 118.174 160.797 118.366 160.184 118.75C159.576 119.128 159.106 119.659 158.776 120.342C158.445 121.024 158.28 121.819 158.28 122.726C158.28 123.616 158.44 124.406 158.76 125.094C159.085 125.782 159.552 126.32 160.16 126.71C160.773 127.099 161.509 127.294 162.368 127.294ZM162.368 126.166C161.434 126.166 160.728 125.854 160.248 125.23C159.768 124.6 159.528 123.766 159.528 122.726C159.528 121.718 159.76 120.896 160.224 120.262C160.688 119.622 161.402 119.302 162.368 119.302C163.322 119.302 164.034 119.614 164.504 120.238C164.978 120.856 165.216 121.686 165.216 122.726C165.216 123.744 164.981 124.574 164.512 125.214C164.042 125.848 163.328 126.166 162.368 126.166ZM178.296 118.414H177.312L172.568 125.086V118.414H171.424V127.054H172.416L177.152 120.326V127.054H178.296V118.414ZM183.653 127.294C184.261 127.294 184.808 127.187 185.293 126.974C185.784 126.755 186.17 126.448 186.453 126.054C186.741 125.654 186.885 125.179 186.885 124.63C186.885 124.214 186.792 123.811 186.605 123.422C186.418 123.027 186.13 122.734 185.741 122.542C186.034 122.318 186.261 122.051 186.421 121.742C186.581 121.427 186.661 121.067 186.661 120.662C186.661 120.139 186.528 119.694 186.261 119.326C186 118.952 185.642 118.667 185.189 118.47C184.741 118.272 184.24 118.174 183.685 118.174C182.981 118.174 182.338 118.299 181.757 118.55C181.181 118.795 180.677 119.155 180.245 119.63L180.997 120.422C181.312 120.091 181.696 119.822 182.149 119.614C182.602 119.4 183.085 119.294 183.597 119.294C184.104 119.294 184.538 119.414 184.901 119.654C185.269 119.888 185.453 120.251 185.453 120.742C185.453 121.211 185.272 121.552 184.909 121.766C184.546 121.979 184.064 122.086 183.461 122.086H182.453V123.094H183.477C184.213 123.094 184.765 123.2 185.133 123.414C185.501 123.622 185.685 123.99 185.685 124.518C185.685 125.03 185.493 125.432 185.109 125.726C184.725 126.019 184.216 126.166 183.581 126.166C182.365 126.166 181.434 125.622 180.789 124.534L179.845 125.134C180.218 125.811 180.728 126.342 181.373 126.726C182.024 127.104 182.784 127.294 183.653 127.294ZM188.65 127.054H189.826V119.542H194.57V118.414H188.65V127.054ZM199.54 127.294C200.393 127.294 201.124 127.102 201.732 126.718C202.345 126.334 202.814 125.8 203.14 125.118C203.47 124.43 203.636 123.632 203.636 122.726C203.636 121.835 203.473 121.048 203.148 120.366C202.828 119.678 202.361 119.142 201.748 118.758C201.14 118.368 200.404 118.174 199.54 118.174C198.697 118.174 197.969 118.366 197.356 118.75C196.748 119.128 196.278 119.659 195.948 120.342C195.617 121.024 195.452 121.819 195.452 122.726C195.452 123.616 195.612 124.406 195.932 125.094C196.257 125.782 196.724 126.32 197.332 126.71C197.945 127.099 198.681 127.294 199.54 127.294ZM199.54 126.166C198.606 126.166 197.9 125.854 197.42 125.23C196.94 124.6 196.7 123.766 196.7 122.726C196.7 121.718 196.932 120.896 197.396 120.262C197.86 119.622 198.574 119.302 199.54 119.302C200.494 119.302 201.206 119.614 201.676 120.238C202.15 120.856 202.388 121.686 202.388 122.726C202.388 123.744 202.153 124.574 201.684 125.214C201.214 125.848 200.5 126.166 199.54 126.166ZM207.526 127.054H208.702V119.502H211.766V118.414H204.462V119.502H207.526V127.054ZM216.743 127.294C217.596 127.294 218.327 127.102 218.935 126.718C219.548 126.334 220.017 125.8 220.343 125.118C220.673 124.43 220.839 123.632 220.839 122.726C220.839 121.835 220.676 121.048 220.351 120.366C220.031 119.678 219.564 119.142 218.951 118.758C218.343 118.368 217.607 118.174 216.743 118.174C215.9 118.174 215.172 118.366 214.559 118.75C213.951 119.128 213.481 119.659 213.151 120.342C212.82 121.024 212.655 121.819 212.655 122.726C212.655 123.616 212.815 124.406 213.135 125.094C213.46 125.782 213.927 126.32 214.535 126.71C215.148 127.099 215.884 127.294 216.743 127.294ZM216.743 126.166C215.809 126.166 215.103 125.854 214.623 125.23C214.143 124.6 213.903 123.766 213.903 122.726C213.903 121.718 214.135 120.896 214.599 120.262C215.063 119.622 215.777 119.302 216.743 119.302C217.697 119.302 218.409 119.614 218.879 120.238C219.353 120.856 219.591 121.686 219.591 122.726C219.591 123.744 219.356 124.574 218.887 125.214C218.417 125.848 217.703 126.166 216.743 126.166ZM222.595 127.054H226.619C226.838 127.054 227.07 127.046 227.315 127.03C227.566 127.014 227.798 126.976 228.011 126.918C228.486 126.779 228.865 126.523 229.147 126.15C229.43 125.776 229.571 125.294 229.571 124.702C229.571 123.848 229.257 123.232 228.627 122.854C228.435 122.736 228.251 122.662 228.075 122.63C228.273 122.544 228.454 122.411 228.619 122.23C228.79 122.054 228.921 121.846 229.011 121.606C229.107 121.36 229.155 121.083 229.155 120.774C229.155 120.219 229.006 119.747 228.707 119.358C228.414 118.963 228.025 118.699 227.539 118.566C227.315 118.507 227.073 118.467 226.811 118.446C226.555 118.424 226.337 118.414 226.155 118.414H222.595V127.054ZM223.779 122.23V119.422H226.035C226.094 119.422 226.233 119.427 226.451 119.438C226.675 119.448 226.883 119.488 227.075 119.558C227.358 119.648 227.569 119.811 227.707 120.046C227.851 120.275 227.923 120.539 227.923 120.838C227.923 121.115 227.857 121.371 227.723 121.606C227.595 121.84 227.393 122.006 227.115 122.102C226.982 122.15 226.83 122.184 226.659 122.206C226.489 122.222 226.334 122.23 226.195 122.23H223.779ZM223.779 126.054V123.238H226.395C226.502 123.238 226.622 123.24 226.755 123.246C226.894 123.251 227.022 123.267 227.139 123.294C227.502 123.347 227.795 123.496 228.019 123.742C228.243 123.982 228.355 124.291 228.355 124.67C228.355 124.958 228.281 125.224 228.131 125.47C227.987 125.71 227.758 125.87 227.443 125.95C227.31 125.987 227.158 126.014 226.987 126.03C226.817 126.046 226.675 126.054 226.563 126.054H223.779ZM230.366 127.054C230.91 127.16 231.337 127.168 231.646 127.078C231.955 126.987 232.19 126.8 232.35 126.518C232.51 126.235 232.635 125.856 232.726 125.382C232.811 124.96 232.891 124.438 232.966 123.814C233.041 123.19 233.11 122.51 233.174 121.774C233.238 121.038 233.297 120.294 233.35 119.542H236.966V127.054H238.134V118.414H232.262C232.177 119.784 232.089 120.987 231.998 122.022C231.913 123.056 231.803 123.963 231.67 124.742C231.59 125.211 231.473 125.563 231.318 125.798C231.169 126.032 230.851 126.107 230.366 126.022V127.054ZM244.025 127.294C244.862 127.294 245.612 127.088 246.273 126.678C246.94 126.267 247.444 125.683 247.785 124.926L246.689 124.502C246.14 125.611 245.236 126.166 243.977 126.166C243.113 126.166 242.436 125.896 241.945 125.358C241.46 124.819 241.193 124.054 241.145 123.062H247.953C247.996 121.536 247.662 120.342 246.953 119.478C246.249 118.608 245.257 118.174 243.977 118.174C243.145 118.174 242.422 118.36 241.809 118.734C241.201 119.107 240.729 119.638 240.393 120.326C240.057 121.014 239.889 121.83 239.889 122.774C239.889 123.686 240.057 124.48 240.393 125.158C240.734 125.835 241.214 126.36 241.833 126.734C242.457 127.107 243.188 127.294 244.025 127.294ZM244.009 119.254C245.636 119.254 246.54 120.195 246.721 122.078H241.169C241.26 121.166 241.548 120.467 242.033 119.982C242.518 119.496 243.177 119.254 244.009 119.254ZM249.72 127.054H250.896V123.294H255.768V127.054H256.944V118.414H255.768V122.166H250.896V118.414H249.72V127.054ZM266.046 118.414H265.062L260.318 125.086V118.414H259.174V127.054H260.166L264.902 120.326V127.054H266.046V118.414ZM267.811 127.054H269.099L271.283 123.79C271.422 123.795 271.558 123.798 271.691 123.798H273.707V127.054H274.891L274.883 118.414H271.579C271.387 118.414 271.158 118.419 270.891 118.43C270.63 118.44 270.371 118.475 270.115 118.534C269.555 118.667 269.078 118.955 268.683 119.398C268.288 119.835 268.091 120.416 268.091 121.142C268.091 121.846 268.28 122.403 268.659 122.814C269.043 123.224 269.515 123.502 270.075 123.646L267.811 127.054ZM271.627 122.79C271.488 122.79 271.323 122.787 271.131 122.782C270.939 122.771 270.747 122.742 270.555 122.694C270.198 122.603 269.899 122.427 269.659 122.166C269.424 121.904 269.307 121.558 269.307 121.126C269.307 120.667 269.43 120.31 269.675 120.054C269.926 119.792 270.182 119.622 270.443 119.542C270.646 119.483 270.859 119.448 271.083 119.438C271.312 119.427 271.494 119.422 271.627 119.422H273.707V122.79H271.627Z" fill="#333333"/>
<rect x="0.5" y="10.3047" width="83.5702" height="7.24951" rx="3.62476" fill="#F8F8F8" stroke="#E6E9EC"/>
<rect x="0.5" y="45.4287" width="83.5702" height="7.24951" rx="3.62476" fill="#F8F8F8" stroke="#E6E9EC"/>
<rect x="0.5" y="81.4287" width="83.5702" height="7.24951" rx="3.62476" fill="#F8F8F8" stroke="#E6E9EC"/>
<rect x="0.5" y="117.429" width="83.5702" height="7.24951" rx="3.62476" fill="#F8F8F8" stroke="#E6E9EC"/>
<rect y="9.80469" width="84.5702" height="8.24951" rx="4.12476" fill="#FADE56"/>
<rect y="44.9287" width="84.5702" height="8.24951" rx="4.12476" fill="#FADE56"/>
<rect y="80.9287" width="74.6479" height="8.24951" rx="4.12476" fill="#FADE56"/>
<rect y="116.929" width="63.5988" height="8.24951" rx="4.12476" fill="#FADE56"/>
</svg>
