<svg width="27" height="26" viewBox="0 0 27 26" fill="none" xmlns="http://www.w3.org/2000/svg">
<path fill-rule="evenodd" clip-rule="evenodd" d="M14.646 9.47917H4.51306C4.06433 9.47917 3.70056 9.11539 3.70056 8.66667C3.70056 8.21794 4.06433 7.85417 4.51306 7.85417H14.646C14.9997 6.60373 16.1494 5.6875 17.5131 5.6875C18.8768 5.6875 20.0264 6.60373 20.3801 7.85417H21.8464C22.2951 7.85417 22.6589 8.21794 22.6589 8.66667C22.6589 9.11539 22.2951 9.47917 21.8464 9.47917H20.3801C20.0264 10.7296 18.8768 11.6458 17.5131 11.6458C16.1494 11.6458 14.9997 10.7296 14.646 9.47917ZM16.1589 8.66667C16.1589 7.91878 16.7651 7.3125 17.5131 7.3125C18.261 7.3125 18.8672 7.91878 18.8672 8.66667C18.8672 9.41456 18.261 10.0208 17.5131 10.0208C16.7651 10.0208 16.1589 9.41456 16.1589 8.66667Z" fill="#252B2F"/>
<path fill-rule="evenodd" clip-rule="evenodd" d="M11.7134 18.1457H21.8464C22.2951 18.1457 22.6589 17.7819 22.6589 17.3332C22.6589 16.8845 22.2951 16.5207 21.8464 16.5207H11.7134C11.3597 15.2702 10.2101 14.354 8.84639 14.354C7.48272 14.354 6.33304 15.2702 5.97937 16.5207H4.51306C4.06433 16.5207 3.70056 16.8845 3.70056 17.3332C3.70056 17.7819 4.06433 18.1457 4.51306 18.1457H5.97937C6.33304 19.3962 7.48272 20.3123 8.84639 20.3123C10.2101 20.3123 11.3597 19.3962 11.7134 18.1457ZM7.49223 17.3332C7.49223 16.5852 8.0985 15.979 8.84639 15.979C9.59428 15.979 10.2006 16.5852 10.2006 17.3332C10.2006 18.0811 9.59428 18.6873 8.84639 18.6873C8.0985 18.6873 7.49223 18.0811 7.49223 17.3332Z" fill="#252B2F"/>
</svg>
