<svg width="316" height="135" viewBox="0 0 316 135" fill="none" xmlns="http://www.w3.org/2000/svg">
<path d="M96.578 19.0537H97.754V13.2937L103.418 19.0537H104.954L99.146 13.0937L104.514 7.53371H103.01L97.754 12.9737V7.53371H96.578V19.0537ZM109.045 19.2937C109.899 19.2937 110.629 19.1017 111.237 18.7177C111.851 18.3337 112.32 17.8004 112.645 17.1177C112.976 16.4297 113.141 15.6324 113.141 14.7257C113.141 13.835 112.979 13.0484 112.653 12.3657C112.333 11.6777 111.867 11.1417 111.253 10.7577C110.645 10.3684 109.909 10.1737 109.045 10.1737C108.203 10.1737 107.475 10.3657 106.861 10.7497C106.253 11.1284 105.784 11.659 105.453 12.3417C105.123 13.0244 104.957 13.819 104.957 14.7257C104.957 15.6164 105.117 16.4057 105.437 17.0937C105.763 17.7817 106.229 18.3204 106.837 18.7097C107.451 19.099 108.187 19.2937 109.045 19.2937ZM109.045 18.1657C108.112 18.1657 107.405 17.8537 106.925 17.2297C106.445 16.6004 106.205 15.7657 106.205 14.7257C106.205 13.7177 106.437 12.8964 106.901 12.2617C107.365 11.6217 108.08 11.3017 109.045 11.3017C110 11.3017 110.712 11.6137 111.181 12.2377C111.656 12.8564 111.893 13.6857 111.893 14.7257C111.893 15.7444 111.659 16.5737 111.189 17.2137C110.72 17.8484 110.005 18.1657 109.045 18.1657ZM114.898 19.0537H116.042V12.9257L118.946 19.0537H119.69L122.594 12.9257V19.0537H123.73V10.4137H122.69L119.314 17.4857L115.946 10.4137H114.898V19.0537ZM130.065 22.6537H131.153V19.2217C131.995 19.355 132.763 19.2644 133.457 18.9497C134.15 18.6297 134.702 18.1124 135.113 17.3977C135.523 16.683 135.729 15.7977 135.729 14.7417C135.729 13.6857 135.523 12.8004 135.113 12.0857C134.702 11.3657 134.15 10.8457 133.457 10.5257C132.763 10.2057 131.995 10.1124 131.153 10.2457V7.59771H130.065V10.2457C129.222 10.1124 128.454 10.2057 127.761 10.5257C127.067 10.8457 126.515 11.3657 126.105 12.0857C125.694 12.8004 125.489 13.6857 125.489 14.7417C125.489 15.7977 125.694 16.683 126.105 17.3977C126.515 18.1124 127.067 18.6297 127.761 18.9497C128.454 19.2644 129.222 19.355 130.065 19.2217V22.6537ZM131.153 18.1257V11.3497C131.729 11.2537 132.273 11.3097 132.785 11.5177C133.297 11.7204 133.713 12.0884 134.033 12.6217C134.353 13.155 134.513 13.8617 134.513 14.7417C134.513 15.6217 134.35 16.3284 134.025 16.8617C133.705 17.3897 133.289 17.755 132.777 17.9577C132.265 18.1604 131.723 18.2164 131.153 18.1257ZM130.065 18.1257C129.499 18.2164 128.958 18.1604 128.441 17.9577C127.929 17.7497 127.51 17.3817 127.185 16.8537C126.865 16.3204 126.705 15.6164 126.705 14.7417C126.705 13.867 126.865 13.163 127.185 12.6297C127.505 12.0964 127.921 11.7257 128.433 11.5177C128.945 11.3097 129.489 11.2537 130.065 11.3497V18.1257ZM141.092 19.2937C141.946 19.2937 142.676 19.1017 143.284 18.7177C143.898 18.3337 144.367 17.8004 144.692 17.1177C145.023 16.4297 145.188 15.6324 145.188 14.7257C145.188 13.835 145.026 13.0484 144.7 12.3657C144.38 11.6777 143.914 11.1417 143.3 10.7577C142.692 10.3684 141.956 10.1737 141.092 10.1737C140.25 10.1737 139.522 10.3657 138.908 10.7497C138.3 11.1284 137.831 11.659 137.5 12.3417C137.17 13.0244 137.004 13.819 137.004 14.7257C137.004 15.6164 137.164 16.4057 137.484 17.0937C137.81 17.7817 138.276 18.3204 138.884 18.7097C139.498 19.099 140.234 19.2937 141.092 19.2937ZM141.092 18.1657C140.159 18.1657 139.452 17.8537 138.972 17.2297C138.492 16.6004 138.252 15.7657 138.252 14.7257C138.252 13.7177 138.484 12.8964 138.948 12.2617C139.412 11.6217 140.127 11.3017 141.092 11.3017C142.047 11.3017 142.759 11.6137 143.228 12.2377C143.703 12.8564 143.94 13.6857 143.94 14.7257C143.94 15.7444 143.706 16.5737 143.236 17.2137C142.767 17.8484 142.052 18.1657 141.092 18.1657ZM146.945 22.8937H148.129V18.0217C148.438 18.4164 148.82 18.7284 149.273 18.9577C149.726 19.1817 150.246 19.2937 150.833 19.2937C151.644 19.2937 152.334 19.0937 152.905 18.6937C153.476 18.2884 153.91 17.7417 154.209 17.0537C154.513 16.3657 154.665 15.5897 154.665 14.7257C154.665 13.867 154.513 13.0937 154.209 12.4057C153.91 11.7177 153.478 11.1737 152.913 10.7737C152.348 10.3737 151.67 10.1737 150.881 10.1737C150.241 10.1737 149.678 10.3017 149.193 10.5577C148.713 10.8084 148.316 11.1577 148.001 11.6057V10.4137H146.945V22.8937ZM150.713 18.1977C150.1 18.1977 149.593 18.0484 149.193 17.7497C148.793 17.4457 148.494 17.0324 148.297 16.5097C148.1 15.987 148.001 15.3924 148.001 14.7257C148.001 13.707 148.222 12.8777 148.665 12.2377C149.113 11.5924 149.788 11.2697 150.689 11.2697C151.308 11.2697 151.817 11.4217 152.217 11.7257C152.622 12.0297 152.924 12.443 153.121 12.9657C153.318 13.4884 153.417 14.075 153.417 14.7257C153.417 15.3817 153.316 15.971 153.113 16.4937C152.916 17.0164 152.617 17.4324 152.217 17.7417C151.817 18.0457 151.316 18.1977 150.713 18.1977ZM158.766 19.0537H159.942V11.5017H163.006V10.4137H155.702V11.5017H158.766V19.0537ZM167.726 19.0537H168.902V11.5417H173.422V19.0537H174.598V10.4137H167.726V19.0537ZM176.836 22.8937H178.02V18.0217C178.329 18.4164 178.71 18.7284 179.164 18.9577C179.617 19.1817 180.137 19.2937 180.724 19.2937C181.534 19.2937 182.225 19.0937 182.796 18.6937C183.366 18.2884 183.801 17.7417 184.1 17.0537C184.404 16.3657 184.556 15.5897 184.556 14.7257C184.556 13.867 184.404 13.0937 184.1 12.4057C183.801 11.7177 183.369 11.1737 182.804 10.7737C182.238 10.3737 181.561 10.1737 180.772 10.1737C180.132 10.1737 179.569 10.3017 179.084 10.5577C178.604 10.8084 178.206 11.1577 177.892 11.6057V10.4137H176.836V22.8937ZM180.604 18.1977C179.99 18.1977 179.484 18.0484 179.084 17.7497C178.684 17.4457 178.385 17.0324 178.188 16.5097C177.99 15.987 177.892 15.3924 177.892 14.7257C177.892 13.707 178.113 12.8777 178.556 12.2377C179.004 11.5924 179.678 11.2697 180.58 11.2697C181.198 11.2697 181.708 11.4217 182.108 11.7257C182.513 12.0297 182.814 12.443 183.012 12.9657C183.209 13.4884 183.308 14.075 183.308 14.7257C183.308 15.3817 183.206 15.971 183.004 16.4937C182.806 17.0164 182.508 17.4324 182.108 17.7417C181.708 18.0457 181.206 18.1977 180.604 18.1977ZM193.176 10.4137H192.192L187.448 17.0857V10.4137H186.304V19.0537H187.296L192.032 12.3257V19.0537H193.176V10.4137ZM197.985 20.9737H199.113V19.0537H205.465V20.9737H206.601V18.0457H205.769V10.4137H200.057C200.02 11.3204 199.98 12.1124 199.937 12.7897C199.894 13.4617 199.844 14.059 199.785 14.5817C199.726 15.1044 199.652 15.5924 199.561 16.0457C199.428 16.7444 199.254 17.2537 199.041 17.5737C198.828 17.8884 198.476 18.0457 197.985 18.0457V20.9737ZM199.977 18.0457C200.164 17.8697 200.302 17.6457 200.393 17.3737C200.489 17.1017 200.577 16.7737 200.657 16.3897C200.753 15.995 200.83 15.5124 200.889 14.9417C200.953 14.371 201.004 13.7764 201.041 13.1577C201.084 12.539 201.118 11.9604 201.145 11.4217H204.601V18.0457H199.977ZM208.195 19.0537H212.219C212.438 19.0537 212.67 19.0457 212.915 19.0297C213.166 19.0137 213.398 18.9764 213.611 18.9177C214.086 18.779 214.464 18.523 214.747 18.1497C215.03 17.7764 215.171 17.2937 215.171 16.7017C215.171 15.8484 214.856 15.2324 214.227 14.8537C214.035 14.7364 213.851 14.6617 213.675 14.6297C213.872 14.5444 214.054 14.411 214.219 14.2297C214.39 14.0537 214.52 13.8457 214.611 13.6057C214.707 13.3604 214.755 13.083 214.755 12.7737C214.755 12.219 214.606 11.747 214.307 11.3577C214.014 10.963 213.624 10.699 213.139 10.5657C212.915 10.507 212.672 10.467 212.411 10.4457C212.155 10.4244 211.936 10.4137 211.755 10.4137H208.195V19.0537ZM209.379 14.2297V11.4217H211.635C211.694 11.4217 211.832 11.427 212.051 11.4377C212.275 11.4484 212.483 11.4884 212.675 11.5577C212.958 11.6484 213.168 11.811 213.307 12.0457C213.451 12.275 213.523 12.539 213.523 12.8377C213.523 13.115 213.456 13.371 213.323 13.6057C213.195 13.8404 212.992 14.0057 212.715 14.1017C212.582 14.1497 212.43 14.1844 212.259 14.2057C212.088 14.2217 211.934 14.2297 211.795 14.2297H209.379ZM209.379 18.0537V15.2377H211.995C212.102 15.2377 212.222 15.2404 212.355 15.2457C212.494 15.251 212.622 15.267 212.739 15.2937C213.102 15.347 213.395 15.4964 213.619 15.7417C213.843 15.9817 213.955 16.291 213.955 16.6697C213.955 16.9577 213.88 17.2244 213.731 17.4697C213.587 17.7097 213.358 17.8697 213.043 17.9497C212.91 17.987 212.758 18.0137 212.587 18.0297C212.416 18.0457 212.275 18.0537 212.163 18.0537H209.379ZM223.63 10.4137H222.646L217.902 17.0857V10.4137H216.758V19.0537H217.75L222.486 12.3257V19.0537H223.63V10.4137ZM224.915 19.0537H226.283L229.803 14.7897V19.0537H230.891V14.7897L234.403 19.0537H235.771L232.123 14.7337L235.619 10.4137H234.299L230.891 14.6777V10.4137H229.803V14.6777L226.395 10.4137H225.067L228.563 14.7337L224.915 19.0537ZM240.39 19.2937C241.228 19.2937 241.977 19.0884 242.638 18.6777C243.305 18.267 243.809 17.683 244.15 16.9257L243.054 16.5017C242.505 17.611 241.601 18.1657 240.342 18.1657C239.478 18.1657 238.801 17.8964 238.31 17.3577C237.825 16.819 237.558 16.0537 237.51 15.0617H244.318C244.361 13.5364 244.028 12.3417 243.318 11.4777C242.614 10.6084 241.622 10.1737 240.342 10.1737C239.51 10.1737 238.788 10.3604 238.174 10.7337C237.566 11.107 237.094 11.6377 236.758 12.3257C236.422 13.0137 236.254 13.8297 236.254 14.7737C236.254 15.6857 236.422 16.4804 236.758 17.1577C237.1 17.835 237.58 18.3604 238.198 18.7337C238.822 19.107 239.553 19.2937 240.39 19.2937ZM240.374 11.2537C242.001 11.2537 242.905 12.195 243.086 14.0777H237.534C237.625 13.1657 237.913 12.467 238.398 11.9817C238.884 11.4964 239.542 11.2537 240.374 11.2537ZM246.086 19.0537H247.262V15.2937H252.134V19.0537H253.31V10.4137H252.134V14.1657H247.262V10.4137H246.086V19.0537ZM262.411 10.4137H261.427L256.683 17.0857V10.4137H255.539V19.0537H256.531L261.267 12.3257V19.0537H262.411V10.4137ZM271.52 10.4137H270.536L265.792 17.0857V10.4137H264.648V19.0537H265.64L270.376 12.3257V19.0537H271.52V10.4137Z" fill="#333333"/>
<path d="M100.97 55.2937C102.106 55.2937 103.069 55.027 103.858 54.4937C104.647 53.9604 105.245 53.2404 105.65 52.3337C106.055 51.427 106.247 50.4137 106.226 49.2937C106.21 48.0937 105.997 47.0457 105.586 46.1497C105.175 45.2484 104.583 44.547 103.81 44.0457C103.037 43.5444 102.09 43.2937 100.97 43.2937C99.674 43.2937 98.5833 43.6404 97.698 44.3337C96.8127 45.027 96.226 46.0057 95.938 47.2697L97.13 47.4457C97.3487 46.5177 97.7887 45.787 98.45 45.2537C99.1113 44.7204 99.9353 44.4484 100.922 44.4377C101.754 44.427 102.461 44.603 103.042 44.9657C103.623 45.3284 104.074 45.835 104.394 46.4857C104.719 47.131 104.909 47.8777 104.962 48.7257H100.73V49.8537H104.954C104.933 50.371 104.855 50.8697 104.722 51.3497C104.594 51.8297 104.359 52.2937 104.018 52.7417C103.661 53.227 103.21 53.5844 102.666 53.8137C102.127 54.0377 101.546 54.155 100.922 54.1657C100.005 54.1764 99.2127 53.9257 98.546 53.4137C97.8847 52.9017 97.4287 52.203 97.178 51.3177L96.018 51.6217C96.322 52.7897 96.9113 53.6937 97.786 54.3337C98.6607 54.9737 99.722 55.2937 100.97 55.2937ZM111.924 58.6537H113.012V55.2217C113.855 55.355 114.623 55.2644 115.316 54.9497C116.009 54.6297 116.561 54.1124 116.972 53.3977C117.383 52.683 117.588 51.7977 117.588 50.7417C117.588 49.6857 117.383 48.8004 116.972 48.0857C116.561 47.3657 116.009 46.8457 115.316 46.5257C114.623 46.2057 113.855 46.1124 113.012 46.2457V43.5977H111.924V46.2457C111.081 46.1124 110.313 46.2057 109.62 46.5257C108.927 46.8457 108.375 47.3657 107.964 48.0857C107.553 48.8004 107.348 49.6857 107.348 50.7417C107.348 51.7977 107.553 52.683 107.964 53.3977C108.375 54.1124 108.927 54.6297 109.62 54.9497C110.313 55.2644 111.081 55.355 111.924 55.2217V58.6537ZM113.012 54.1257V47.3497C113.588 47.2537 114.132 47.3097 114.644 47.5177C115.156 47.7204 115.572 48.0884 115.892 48.6217C116.212 49.155 116.372 49.8617 116.372 50.7417C116.372 51.6217 116.209 52.3284 115.884 52.8617C115.564 53.3897 115.148 53.755 114.636 53.9577C114.124 54.1604 113.583 54.2164 113.012 54.1257ZM111.924 54.1257C111.359 54.2164 110.817 54.1604 110.3 53.9577C109.788 53.7497 109.369 53.3817 109.044 52.8537C108.724 52.3204 108.564 51.6164 108.564 50.7417C108.564 49.867 108.724 49.163 109.044 48.6297C109.364 48.0964 109.78 47.7257 110.292 47.5177C110.804 47.3097 111.348 47.2537 111.924 47.3497V54.1257ZM123.44 58.6537H124.528V55.2217C125.37 55.355 126.138 55.2644 126.832 54.9497C127.525 54.6297 128.077 54.1124 128.488 53.3977C128.898 52.683 129.104 51.7977 129.104 50.7417C129.104 49.6857 128.898 48.8004 128.488 48.0857C128.077 47.3657 127.525 46.8457 126.832 46.5257C126.138 46.2057 125.37 46.1124 124.528 46.2457V43.5977H123.44V46.2457C122.597 46.1124 121.829 46.2057 121.136 46.5257C120.442 46.8457 119.89 47.3657 119.48 48.0857C119.069 48.8004 118.864 49.6857 118.864 50.7417C118.864 51.7977 119.069 52.683 119.48 53.3977C119.89 54.1124 120.442 54.6297 121.136 54.9497C121.829 55.2644 122.597 55.355 123.44 55.2217V58.6537ZM124.528 54.1257V47.3497C125.104 47.2537 125.648 47.3097 126.16 47.5177C126.672 47.7204 127.088 48.0884 127.408 48.6217C127.728 49.155 127.888 49.8617 127.888 50.7417C127.888 51.6217 127.725 52.3284 127.4 52.8617C127.08 53.3897 126.664 53.755 126.152 53.9577C125.64 54.1604 125.098 54.2164 124.528 54.1257ZM123.44 54.1257C122.874 54.2164 122.333 54.1604 121.816 53.9577C121.304 53.7497 120.885 53.3817 120.56 52.8537C120.24 52.3204 120.08 51.6164 120.08 50.7417C120.08 49.867 120.24 49.163 120.56 48.6297C120.88 48.0964 121.296 47.7257 121.808 47.5177C122.32 47.3097 122.864 47.2537 123.44 47.3497V54.1257ZM134.515 55.2937C135.353 55.2937 136.102 55.0884 136.763 54.6777C137.43 54.267 137.934 53.683 138.275 52.9257L137.179 52.5017C136.63 53.611 135.726 54.1657 134.467 54.1657C133.603 54.1657 132.926 53.8964 132.435 53.3577C131.95 52.819 131.683 52.0537 131.635 51.0617H138.443C138.486 49.5364 138.153 48.3417 137.443 47.4777C136.739 46.6084 135.747 46.1737 134.467 46.1737C133.635 46.1737 132.913 46.3604 132.299 46.7337C131.691 47.107 131.219 47.6377 130.883 48.3257C130.547 49.0137 130.379 49.8297 130.379 50.7737C130.379 51.6857 130.547 52.4804 130.883 53.1577C131.225 53.835 131.705 54.3604 132.323 54.7337C132.947 55.107 133.678 55.2937 134.515 55.2937ZM134.499 47.2537C136.126 47.2537 137.03 48.195 137.211 50.0777H131.659C131.75 49.1657 132.038 48.467 132.523 47.9817C133.009 47.4964 133.667 47.2537 134.499 47.2537ZM140.211 55.0537H141.403V50.8937L145.643 55.0537H147.355L142.779 50.7337L146.827 46.4137H145.259L141.403 50.5737V46.4137H140.219L140.211 55.0537ZM150.5 55.0537H151.676V47.5017H154.74V46.4137H147.436V47.5017H150.5V55.0537ZM163.13 46.4137H162.146L157.402 53.0857V46.4137H156.258V55.0537H157.25L161.986 48.3257V55.0537H163.13V46.4137ZM165.367 55.0537H169.391C169.61 55.0537 169.842 55.0457 170.087 55.0297C170.338 55.0137 170.57 54.9764 170.783 54.9177C171.258 54.779 171.636 54.523 171.919 54.1497C172.202 53.7764 172.343 53.2937 172.343 52.7017C172.343 51.8484 172.028 51.2324 171.399 50.8537C171.207 50.7364 171.023 50.6617 170.847 50.6297C171.044 50.5444 171.226 50.411 171.391 50.2297C171.562 50.0537 171.692 49.8457 171.783 49.6057C171.879 49.3604 171.927 49.083 171.927 48.7737C171.927 48.219 171.778 47.747 171.479 47.3577C171.186 46.963 170.796 46.699 170.311 46.5657C170.087 46.507 169.844 46.467 169.583 46.4457C169.327 46.4244 169.108 46.4137 168.927 46.4137H165.367V55.0537ZM166.551 50.2297V47.4217H168.807C168.866 47.4217 169.004 47.427 169.223 47.4377C169.447 47.4484 169.655 47.4884 169.847 47.5577C170.13 47.6484 170.34 47.811 170.479 48.0457C170.623 48.275 170.695 48.539 170.695 48.8377C170.695 49.115 170.628 49.371 170.495 49.6057C170.367 49.8404 170.164 50.0057 169.887 50.1017C169.754 50.1497 169.602 50.1844 169.431 50.2057C169.26 50.2217 169.106 50.2297 168.967 50.2297H166.551ZM166.551 54.0537V51.2377H169.167C169.274 51.2377 169.394 51.2404 169.527 51.2457C169.666 51.251 169.794 51.267 169.911 51.2937C170.274 51.347 170.567 51.4964 170.791 51.7417C171.015 51.9817 171.127 52.291 171.127 52.6697C171.127 52.9577 171.052 53.2244 170.903 53.4697C170.759 53.7097 170.53 53.8697 170.215 53.9497C170.082 53.987 169.93 54.0137 169.759 54.0297C169.588 54.0457 169.447 54.0537 169.335 54.0537H166.551ZM173.929 55.0537H175.105V51.2937H179.977V55.0537H181.153V46.4137H179.977V50.1657H175.105V46.4137H173.929V55.0537ZM186.999 55.2937C187.852 55.2937 188.583 55.1017 189.191 54.7177C189.804 54.3337 190.273 53.8004 190.599 53.1177C190.929 52.4297 191.095 51.6324 191.095 50.7257C191.095 49.835 190.932 49.0484 190.607 48.3657C190.287 47.6777 189.82 47.1417 189.207 46.7577C188.599 46.3684 187.863 46.1737 186.999 46.1737C186.156 46.1737 185.428 46.3657 184.815 46.7497C184.207 47.1284 183.737 47.659 183.407 48.3417C183.076 49.0244 182.911 49.819 182.911 50.7257C182.911 51.6164 183.071 52.4057 183.391 53.0937C183.716 53.7817 184.183 54.3204 184.791 54.7097C185.404 55.099 186.14 55.2937 186.999 55.2937ZM186.999 54.1657C186.065 54.1657 185.359 53.8537 184.879 53.2297C184.399 52.6004 184.159 51.7657 184.159 50.7257C184.159 49.7177 184.391 48.8964 184.855 48.2617C185.319 47.6217 186.033 47.3017 186.999 47.3017C187.953 47.3017 188.665 47.6137 189.135 48.2377C189.609 48.8564 189.847 49.6857 189.847 50.7257C189.847 51.7444 189.612 52.5737 189.143 53.2137C188.673 53.8484 187.959 54.1657 186.999 54.1657ZM196.443 55.2937C197.302 55.2937 198.038 55.0937 198.651 54.6937C199.27 54.2884 199.742 53.7017 200.067 52.9337L198.883 52.5817C198.446 53.6377 197.633 54.1657 196.443 54.1657C195.515 54.1657 194.817 53.8537 194.347 53.2297C193.878 52.6004 193.638 51.7684 193.627 50.7337C193.638 49.7257 193.87 48.9017 194.323 48.2617C194.782 47.6217 195.489 47.3017 196.443 47.3017C197.009 47.3017 197.51 47.4457 197.947 47.7337C198.39 48.0164 198.713 48.4164 198.915 48.9337L200.067 48.5657C199.827 47.8244 199.382 47.2404 198.731 46.8137C198.086 46.387 197.326 46.1737 196.451 46.1737C195.593 46.1737 194.862 46.3657 194.259 46.7497C193.657 47.1284 193.195 47.6617 192.875 48.3497C192.555 49.0324 192.39 49.827 192.379 50.7337C192.39 51.619 192.55 52.4057 192.859 53.0937C193.174 53.7817 193.633 54.3204 194.235 54.7097C194.838 55.099 195.574 55.2937 196.443 55.2937ZM203.844 55.0537H205.02V47.5017H208.084V46.4137H200.78V47.5017H203.844V55.0537ZM209.617 55.0537H212.913C213.164 55.0537 213.417 55.0484 213.673 55.0377C213.929 55.0217 214.167 54.9897 214.385 54.9417C214.967 54.8137 215.447 54.5364 215.825 54.1097C216.209 53.683 216.401 53.099 216.401 52.3577C216.401 51.547 216.193 50.939 215.777 50.5337C215.361 50.1284 214.833 49.867 214.193 49.7497C214.001 49.7177 213.785 49.6964 213.545 49.6857C213.305 49.675 213.06 49.6697 212.809 49.6697H210.785V46.4137H209.601L209.617 55.0537ZM210.785 54.0457V50.6777H212.865C213.041 50.6777 213.225 50.683 213.417 50.6937C213.609 50.7044 213.788 50.7284 213.953 50.7657C214.327 50.8457 214.625 51.011 214.849 51.2617C215.073 51.507 215.185 51.8724 215.185 52.3577C215.185 52.8537 215.068 53.2217 214.833 53.4617C214.604 53.7017 214.348 53.8617 214.065 53.9417C213.889 53.9897 213.689 54.019 213.465 54.0297C213.241 54.0404 213.041 54.0457 212.865 54.0457H210.785ZM223.703 55.0537H224.879V47.5017H227.943V46.4137H220.639V47.5017H223.703V55.0537ZM232.92 55.2937C233.774 55.2937 234.504 55.1017 235.112 54.7177C235.726 54.3337 236.195 53.8004 236.52 53.1177C236.851 52.4297 237.016 51.6324 237.016 50.7257C237.016 49.835 236.854 49.0484 236.528 48.3657C236.208 47.6777 235.742 47.1417 235.128 46.7577C234.52 46.3684 233.784 46.1737 232.92 46.1737C232.078 46.1737 231.35 46.3657 230.736 46.7497C230.128 47.1284 229.659 47.659 229.328 48.3417C228.998 49.0244 228.832 49.819 228.832 50.7257C228.832 51.6164 228.992 52.4057 229.312 53.0937C229.638 53.7817 230.104 54.3204 230.712 54.7097C231.326 55.099 232.062 55.2937 232.92 55.2937ZM232.92 54.1657C231.987 54.1657 231.28 53.8537 230.8 53.2297C230.32 52.6004 230.08 51.7657 230.08 50.7257C230.08 49.7177 230.312 48.8964 230.776 48.2617C231.24 47.6217 231.955 47.3017 232.92 47.3017C233.875 47.3017 234.587 47.6137 235.056 48.2377C235.531 48.8564 235.768 49.6857 235.768 50.7257C235.768 51.7444 235.534 52.5737 235.064 53.2137C234.595 53.8484 233.88 54.1657 232.92 54.1657ZM238.773 58.8937H239.957V54.0217C240.266 54.4164 240.648 54.7284 241.101 54.9577C241.554 55.1817 242.074 55.2937 242.661 55.2937C243.472 55.2937 244.162 55.0937 244.733 54.6937C245.304 54.2884 245.738 53.7417 246.037 53.0537C246.341 52.3657 246.493 51.5897 246.493 50.7257C246.493 49.867 246.341 49.0937 246.037 48.4057C245.738 47.7177 245.306 47.1737 244.741 46.7737C244.176 46.3737 243.498 46.1737 242.709 46.1737C242.069 46.1737 241.506 46.3017 241.021 46.5577C240.541 46.8084 240.144 47.1577 239.829 47.6057V46.4137H238.773V58.8937ZM242.541 54.1977C241.928 54.1977 241.421 54.0484 241.021 53.7497C240.621 53.4457 240.322 53.0324 240.125 52.5097C239.928 51.987 239.829 51.3924 239.829 50.7257C239.829 49.707 240.05 48.8777 240.493 48.2377C240.941 47.5924 241.616 47.2697 242.517 47.2697C243.136 47.2697 243.645 47.4217 244.045 47.7257C244.45 48.0297 244.752 48.443 244.949 48.9657C245.146 49.4884 245.245 50.075 245.245 50.7257C245.245 51.3817 245.144 51.971 244.941 52.4937C244.744 53.0164 244.445 53.4324 244.045 53.7417C243.645 54.0457 243.144 54.1977 242.541 54.1977ZM248.242 55.0537H249.386V48.9257L252.29 55.0537H253.034L255.938 48.9257V55.0537H257.074V46.4137H256.034L252.658 53.4857L249.29 46.4137H248.242V55.0537ZM262.92 55.2937C263.774 55.2937 264.504 55.1017 265.112 54.7177C265.726 54.3337 266.195 53.8004 266.52 53.1177C266.851 52.4297 267.016 51.6324 267.016 50.7257C267.016 49.835 266.854 49.0484 266.528 48.3657C266.208 47.6777 265.742 47.1417 265.128 46.7577C264.52 46.3684 263.784 46.1737 262.92 46.1737C262.078 46.1737 261.35 46.3657 260.736 46.7497C260.128 47.1284 259.659 47.659 259.328 48.3417C258.998 49.0244 258.832 49.819 258.832 50.7257C258.832 51.6164 258.992 52.4057 259.312 53.0937C259.638 53.7817 260.104 54.3204 260.712 54.7097C261.326 55.099 262.062 55.2937 262.92 55.2937ZM262.92 54.1657C261.987 54.1657 261.28 53.8537 260.8 53.2297C260.32 52.6004 260.08 51.7657 260.08 50.7257C260.08 49.7177 260.312 48.8964 260.776 48.2617C261.24 47.6217 261.955 47.3017 262.92 47.3017C263.875 47.3017 264.587 47.6137 265.056 48.2377C265.531 48.8564 265.768 49.6857 265.768 50.7257C265.768 51.7444 265.534 52.5737 265.064 53.2137C264.595 53.8484 263.88 54.1657 262.92 54.1657ZM267.665 55.0537H269.033L272.553 50.7897V55.0537H273.641V50.7897L277.153 55.0537H278.521L274.873 50.7337L278.369 46.4137H277.049L273.641 50.6777V46.4137H272.553V50.6777L269.145 46.4137H267.817L271.313 50.7337L267.665 55.0537ZM283.14 55.2937C283.978 55.2937 284.727 55.0884 285.388 54.6777C286.055 54.267 286.559 53.683 286.9 52.9257L285.804 52.5017C285.255 53.611 284.351 54.1657 283.092 54.1657C282.228 54.1657 281.551 53.8964 281.06 53.3577C280.575 52.819 280.308 52.0537 280.26 51.0617H287.068C287.111 49.5364 286.778 48.3417 286.068 47.4777C285.364 46.6084 284.372 46.1737 283.092 46.1737C282.26 46.1737 281.538 46.3604 280.924 46.7337C280.316 47.107 279.844 47.6377 279.508 48.3257C279.172 49.0137 279.004 49.8297 279.004 50.7737C279.004 51.6857 279.172 52.4804 279.508 53.1577C279.85 53.835 280.33 54.3604 280.948 54.7337C281.572 55.107 282.303 55.2937 283.14 55.2937ZM283.124 47.2537C284.751 47.2537 285.655 48.195 285.836 50.0777H280.284C280.375 49.1657 280.663 48.467 281.148 47.9817C281.634 47.4964 282.292 47.2537 283.124 47.2537ZM288.836 55.0537H290.012V51.2937H294.884V55.0537H296.06V46.4137H294.884V50.1657H290.012V46.4137H288.836V55.0537ZM305.161 46.4137H304.177L299.433 53.0857V46.4137H298.289V55.0537H299.281L304.017 48.3257V55.0537H305.161V46.4137ZM306.926 55.0537H308.214L310.398 51.7897C310.537 51.795 310.673 51.7977 310.806 51.7977H312.822V55.0537H314.006L313.998 46.4137H310.694C310.502 46.4137 310.273 46.419 310.006 46.4297C309.745 46.4404 309.486 46.475 309.23 46.5337C308.67 46.667 308.193 46.955 307.798 47.3977C307.403 47.835 307.206 48.4164 307.206 49.1417C307.206 49.8457 307.395 50.403 307.774 50.8137C308.158 51.2244 308.63 51.5017 309.19 51.6457L306.926 55.0537ZM310.742 50.7897C310.603 50.7897 310.438 50.787 310.246 50.7817C310.054 50.771 309.862 50.7417 309.67 50.6937C309.313 50.603 309.014 50.427 308.774 50.1657C308.539 49.9044 308.422 49.5577 308.422 49.1257C308.422 48.667 308.545 48.3097 308.79 48.0537C309.041 47.7924 309.297 47.6217 309.558 47.5417C309.761 47.483 309.974 47.4484 310.198 47.4377C310.427 47.427 310.609 47.4217 310.742 47.4217H312.822V50.7897H310.742Z" fill="#333333"/>
<path d="M105.29 91.0537H104.106V81.6057L97.762 91.0537H96.578V79.5337H97.762V88.9737L104.106 79.5337H105.29V91.0537ZM110.643 91.2937C111.251 91.2937 111.798 91.187 112.283 90.9737C112.774 90.755 113.16 90.4484 113.443 90.0537C113.731 89.6537 113.875 89.179 113.875 88.6297C113.875 88.2137 113.782 87.811 113.595 87.4217C113.408 87.027 113.12 86.7337 112.731 86.5417C113.024 86.3177 113.251 86.051 113.411 85.7417C113.571 85.427 113.651 85.067 113.651 84.6617C113.651 84.139 113.518 83.6937 113.251 83.3257C112.99 82.9524 112.632 82.667 112.179 82.4697C111.731 82.2724 111.23 82.1737 110.675 82.1737C109.971 82.1737 109.328 82.299 108.747 82.5497C108.171 82.795 107.667 83.155 107.235 83.6297L107.987 84.4217C108.302 84.091 108.686 83.8217 109.139 83.6137C109.592 83.4004 110.075 83.2937 110.587 83.2937C111.094 83.2937 111.528 83.4137 111.891 83.6537C112.259 83.8884 112.443 84.251 112.443 84.7417C112.443 85.211 112.262 85.5524 111.899 85.7657C111.536 85.979 111.054 86.0857 110.451 86.0857H109.443V87.0937H110.467C111.203 87.0937 111.755 87.2004 112.123 87.4137C112.491 87.6217 112.675 87.9897 112.675 88.5177C112.675 89.0297 112.483 89.4324 112.099 89.7257C111.715 90.019 111.206 90.1657 110.571 90.1657C109.355 90.1657 108.424 89.6217 107.779 88.5337L106.835 89.1337C107.208 89.811 107.718 90.3417 108.363 90.7257C109.014 91.1044 109.774 91.2937 110.643 91.2937ZM115.633 91.0537H116.809V87.2937H121.681V91.0537H122.857V82.4137H121.681V86.1657H116.809V82.4137H115.633V91.0537ZM128.702 91.2937C129.555 91.2937 130.286 91.1017 130.894 90.7177C131.507 90.3337 131.976 89.8004 132.302 89.1177C132.632 88.4297 132.798 87.6324 132.798 86.7257C132.798 85.835 132.635 85.0484 132.31 84.3657C131.99 83.6777 131.523 83.1417 130.91 82.7577C130.302 82.3684 129.566 82.1737 128.702 82.1737C127.859 82.1737 127.131 82.3657 126.518 82.7497C125.91 83.1284 125.44 83.659 125.11 84.3417C124.779 85.0244 124.614 85.819 124.614 86.7257C124.614 87.6164 124.774 88.4057 125.094 89.0937C125.419 89.7817 125.886 90.3204 126.494 90.7097C127.107 91.099 127.843 91.2937 128.702 91.2937ZM128.702 90.1657C127.768 90.1657 127.062 89.8537 126.582 89.2297C126.102 88.6004 125.862 87.7657 125.862 86.7257C125.862 85.7177 126.094 84.8964 126.558 84.2617C127.022 83.6217 127.736 83.3017 128.702 83.3017C129.656 83.3017 130.368 83.6137 130.838 84.2377C131.312 84.8564 131.55 85.6857 131.55 86.7257C131.55 87.7444 131.315 88.5737 130.846 89.2137C130.376 89.8484 129.662 90.1657 128.702 90.1657ZM138.146 91.2937C139.005 91.2937 139.741 91.0937 140.354 90.6937C140.973 90.2884 141.445 89.7017 141.77 88.9337L140.586 88.5817C140.149 89.6377 139.336 90.1657 138.146 90.1657C137.218 90.1657 136.52 89.8537 136.05 89.2297C135.581 88.6004 135.341 87.7684 135.33 86.7337C135.341 85.7257 135.573 84.9017 136.026 84.2617C136.485 83.6217 137.192 83.3017 138.146 83.3017C138.712 83.3017 139.213 83.4457 139.65 83.7337C140.093 84.0164 140.416 84.4164 140.618 84.9337L141.77 84.5657C141.53 83.8244 141.085 83.2404 140.434 82.8137C139.789 82.387 139.029 82.1737 138.154 82.1737C137.296 82.1737 136.565 82.3657 135.962 82.7497C135.36 83.1284 134.898 83.6617 134.578 84.3497C134.258 85.0324 134.093 85.827 134.082 86.7337C134.093 87.619 134.253 88.4057 134.562 89.0937C134.877 89.7817 135.336 90.3204 135.938 90.7097C136.541 91.099 137.277 91.2937 138.146 91.2937ZM146.795 91.2937C147.649 91.2937 148.379 91.1017 148.987 90.7177C149.601 90.3337 150.07 89.8004 150.395 89.1177C150.726 88.4297 150.891 87.6324 150.891 86.7257C150.891 85.835 150.729 85.0484 150.403 84.3657C150.083 83.6777 149.617 83.1417 149.003 82.7577C148.395 82.3684 147.659 82.1737 146.795 82.1737C145.953 82.1737 145.225 82.3657 144.611 82.7497C144.003 83.1284 143.534 83.659 143.203 84.3417C142.873 85.0244 142.707 85.819 142.707 86.7257C142.707 87.6164 142.867 88.4057 143.187 89.0937C143.513 89.7817 143.979 90.3204 144.587 90.7097C145.201 91.099 145.937 91.2937 146.795 91.2937ZM146.795 90.1657C145.862 90.1657 145.155 89.8537 144.675 89.2297C144.195 88.6004 143.955 87.7657 143.955 86.7257C143.955 85.7177 144.187 84.8964 144.651 84.2617C145.115 83.6217 145.83 83.3017 146.795 83.3017C147.75 83.3017 148.462 83.6137 148.931 84.2377C149.406 84.8564 149.643 85.6857 149.643 86.7257C149.643 87.7444 149.409 88.5737 148.939 89.2137C148.47 89.8484 147.755 90.1657 146.795 90.1657ZM153.576 94.8937H154.752L159.392 82.4137H158.192L155.576 89.5177L152.736 82.4137H151.488L155 91.0297L153.576 94.8937ZM164.053 91.2937C164.911 91.2937 165.647 91.0937 166.261 90.6937C166.879 90.2884 167.351 89.7017 167.677 88.9337L166.493 88.5817C166.055 89.6377 165.242 90.1657 164.053 90.1657C163.125 90.1657 162.426 89.8537 161.957 89.2297C161.487 88.6004 161.247 87.7684 161.237 86.7337C161.247 85.7257 161.479 84.9017 161.933 84.2617C162.391 83.6217 163.098 83.3017 164.053 83.3017C164.618 83.3017 165.119 83.4457 165.557 83.7337C165.999 84.0164 166.322 84.4164 166.525 84.9337L167.677 84.5657C167.437 83.8244 166.991 83.2404 166.341 82.8137C165.695 82.387 164.935 82.1737 164.061 82.1737C163.202 82.1737 162.471 82.3657 161.869 82.7497C161.266 83.1284 160.805 83.6617 160.485 84.3497C160.165 85.0324 159.999 85.827 159.989 86.7337C159.999 87.619 160.159 88.4057 160.469 89.0937C160.783 89.7817 161.242 90.3204 161.845 90.7097C162.447 91.099 163.183 91.2937 164.053 91.2937ZM171.453 91.0537H172.629V83.5017H175.693V82.4137H168.389V83.5017H171.453V91.0537ZM180.67 91.2937C181.524 91.2937 182.254 91.1017 182.862 90.7177C183.476 90.3337 183.945 89.8004 184.27 89.1177C184.601 88.4297 184.766 87.6324 184.766 86.7257C184.766 85.835 184.604 85.0484 184.278 84.3657C183.958 83.6777 183.492 83.1417 182.878 82.7577C182.27 82.3684 181.534 82.1737 180.67 82.1737C179.828 82.1737 179.1 82.3657 178.486 82.7497C177.878 83.1284 177.409 83.659 177.078 84.3417C176.748 85.0244 176.582 85.819 176.582 86.7257C176.582 87.6164 176.742 88.4057 177.062 89.0937C177.388 89.7817 177.854 90.3204 178.462 90.7097C179.076 91.099 179.812 91.2937 180.67 91.2937ZM180.67 90.1657C179.737 90.1657 179.03 89.8537 178.55 89.2297C178.07 88.6004 177.83 87.7657 177.83 86.7257C177.83 85.7177 178.062 84.8964 178.526 84.2617C178.99 83.6217 179.705 83.3017 180.67 83.3017C181.625 83.3017 182.337 83.6137 182.806 84.2377C183.281 84.8564 183.518 85.6857 183.518 86.7257C183.518 87.7444 183.284 88.5737 182.814 89.2137C182.345 89.8484 181.63 90.1657 180.67 90.1657ZM190.115 81.3897C190.499 81.3897 190.846 81.299 191.155 81.1177C191.47 80.931 191.718 80.6804 191.899 80.3657C192.086 80.051 192.179 79.7044 192.179 79.3257H191.203C191.203 79.6244 191.096 79.8804 190.883 80.0937C190.675 80.307 190.419 80.4137 190.115 80.4137C189.816 80.4137 189.56 80.307 189.347 80.0937C189.134 79.8804 189.027 79.6244 189.027 79.3257H188.051C188.051 79.7044 188.142 80.051 188.323 80.3657C188.51 80.6804 188.76 80.931 189.075 81.1177C189.39 81.299 189.736 81.3897 190.115 81.3897ZM193.395 82.4137H192.411L187.667 89.0857V82.4137H186.523V91.0537H187.515L192.251 84.3257V91.0537H193.395V82.4137ZM200.929 91.0537H202.105V82.4137H200.929V86.7337C200.667 86.9204 200.345 87.0697 199.961 87.1817C199.577 87.2884 199.171 87.3417 198.745 87.3417C198.062 87.3417 197.531 87.1924 197.153 86.8937C196.779 86.595 196.539 86.155 196.433 85.5737C196.395 85.3657 196.371 85.1497 196.361 84.9257C196.35 84.7017 196.345 84.499 196.345 84.3177V82.4137H195.161V84.3177C195.161 84.4457 195.166 84.6937 195.177 85.0617C195.193 85.4244 195.238 85.771 195.313 86.1017C195.473 86.8377 195.825 87.4004 196.369 87.7897C196.918 88.179 197.63 88.3737 198.505 88.3737C198.99 88.3737 199.443 88.323 199.865 88.2217C200.286 88.115 200.641 87.987 200.929 87.8377V91.0537ZM211.208 82.4137H210.224L205.48 89.0857V82.4137H204.336V91.0537H205.328L210.064 84.3257V91.0537H211.208V82.4137ZM213.445 91.0537H217.469C217.688 91.0537 217.92 91.0457 218.165 91.0297C218.416 91.0137 218.648 90.9764 218.861 90.9177C219.336 90.779 219.714 90.523 219.997 90.1497C220.28 89.7764 220.421 89.2937 220.421 88.7017C220.421 87.8484 220.106 87.2324 219.477 86.8537C219.285 86.7364 219.101 86.6617 218.925 86.6297C219.122 86.5444 219.304 86.411 219.469 86.2297C219.64 86.0537 219.77 85.8457 219.861 85.6057C219.957 85.3604 220.005 85.083 220.005 84.7737C220.005 84.219 219.856 83.747 219.557 83.3577C219.264 82.963 218.874 82.699 218.389 82.5657C218.165 82.507 217.922 82.467 217.661 82.4457C217.405 82.4244 217.186 82.4137 217.005 82.4137H213.445V91.0537ZM214.629 86.2297V83.4217H216.885C216.944 83.4217 217.082 83.427 217.301 83.4377C217.525 83.4484 217.733 83.4884 217.925 83.5577C218.208 83.6484 218.418 83.811 218.557 84.0457C218.701 84.275 218.773 84.539 218.773 84.8377C218.773 85.115 218.706 85.371 218.573 85.6057C218.445 85.8404 218.242 86.0057 217.965 86.1017C217.832 86.1497 217.68 86.1844 217.509 86.2057C217.338 86.2217 217.184 86.2297 217.045 86.2297H214.629ZM214.629 90.0537V87.2377H217.245C217.352 87.2377 217.472 87.2404 217.605 87.2457C217.744 87.251 217.872 87.267 217.989 87.2937C218.352 87.347 218.645 87.4964 218.869 87.7417C219.093 87.9817 219.205 88.291 219.205 88.6697C219.205 88.9577 219.13 89.2244 218.981 89.4697C218.837 89.7097 218.608 89.8697 218.293 89.9497C218.16 89.987 218.008 90.0137 217.837 90.0297C217.666 90.0457 217.525 90.0537 217.413 90.0537H214.629ZM225.624 91.2937C226.477 91.2937 227.208 91.1017 227.816 90.7177C228.429 90.3337 228.898 89.8004 229.224 89.1177C229.554 88.4297 229.72 87.6324 229.72 86.7257C229.72 85.835 229.557 85.0484 229.232 84.3657C228.912 83.6777 228.445 83.1417 227.832 82.7577C227.224 82.3684 226.488 82.1737 225.624 82.1737C224.781 82.1737 224.053 82.3657 223.44 82.7497C222.832 83.1284 222.362 83.659 222.032 84.3417C221.701 85.0244 221.536 85.819 221.536 86.7257C221.536 87.6164 221.696 88.4057 222.016 89.0937C222.341 89.7817 222.808 90.3204 223.416 90.7097C224.029 91.099 224.765 91.2937 225.624 91.2937ZM225.624 90.1657C224.69 90.1657 223.984 89.8537 223.504 89.2297C223.024 88.6004 222.784 87.7657 222.784 86.7257C222.784 85.7177 223.016 84.8964 223.48 84.2617C223.944 83.6217 224.658 83.3017 225.624 83.3017C226.578 83.3017 227.29 83.6137 227.76 84.2377C228.234 84.8564 228.472 85.6857 228.472 86.7257C228.472 87.7444 228.237 88.5737 227.768 89.2137C227.298 89.8484 226.584 90.1657 225.624 90.1657ZM235.068 91.2937C235.927 91.2937 236.663 91.0937 237.276 90.6937C237.895 90.2884 238.367 89.7017 238.692 88.9337L237.508 88.5817C237.071 89.6377 236.258 90.1657 235.068 90.1657C234.14 90.1657 233.442 89.8537 232.972 89.2297C232.503 88.6004 232.263 87.7684 232.252 86.7337C232.263 85.7257 232.495 84.9017 232.948 84.2617C233.407 83.6217 234.114 83.3017 235.068 83.3017C235.634 83.3017 236.135 83.4457 236.572 83.7337C237.015 84.0164 237.338 84.4164 237.54 84.9337L238.692 84.5657C238.452 83.8244 238.007 83.2404 237.356 82.8137C236.711 82.387 235.951 82.1737 235.076 82.1737C234.218 82.1737 233.487 82.3657 232.884 82.7497C232.282 83.1284 231.82 83.6617 231.5 84.3497C231.18 85.0324 231.015 85.827 231.004 86.7337C231.015 87.619 231.175 88.4057 231.484 89.0937C231.799 89.7817 232.258 90.3204 232.86 90.7097C233.463 91.099 234.199 91.2937 235.068 91.2937ZM242.469 91.0537H243.645V83.5017H246.709V82.4137H239.405V83.5017H242.469V91.0537ZM248.242 91.0537H251.538C251.789 91.0537 252.042 91.0484 252.298 91.0377C252.554 91.0217 252.792 90.9897 253.01 90.9417C253.592 90.8137 254.072 90.5364 254.45 90.1097C254.834 89.683 255.026 89.099 255.026 88.3577C255.026 87.547 254.818 86.939 254.402 86.5337C253.986 86.1284 253.458 85.867 252.818 85.7497C252.626 85.7177 252.41 85.6964 252.17 85.6857C251.93 85.675 251.685 85.6697 251.434 85.6697H249.41V82.4137H248.226L248.242 91.0537ZM249.41 90.0457V86.6777H251.49C251.666 86.6777 251.85 86.683 252.042 86.6937C252.234 86.7044 252.413 86.7284 252.578 86.7657C252.952 86.8457 253.25 87.011 253.474 87.2617C253.698 87.507 253.81 87.8724 253.81 88.3577C253.81 88.8537 253.693 89.2217 253.458 89.4617C253.229 89.7017 252.973 89.8617 252.69 89.9417C252.514 89.9897 252.314 90.019 252.09 90.0297C251.866 90.0404 251.666 90.0457 251.49 90.0457H249.41Z" fill="#333333"/>
<path d="M101.242 127.294C102.394 127.294 103.365 127.04 104.154 126.534C104.943 126.027 105.541 125.323 105.946 124.422C106.351 123.515 106.554 122.472 106.554 121.294C106.554 120.11 106.351 119.067 105.946 118.166C105.541 117.264 104.943 116.56 104.154 116.054C103.365 115.547 102.394 115.294 101.242 115.294C100.095 115.294 99.1273 115.547 98.338 116.054C97.5487 116.56 96.9513 117.264 96.546 118.166C96.1407 119.067 95.938 120.11 95.938 121.294C95.938 122.472 96.1407 123.515 96.546 124.422C96.9513 125.323 97.5487 126.027 98.338 126.534C99.1273 127.04 100.095 127.294 101.242 127.294ZM101.242 126.166C100.341 126.16 99.586 125.952 98.978 125.542C98.3753 125.131 97.9247 124.56 97.626 123.83C97.3273 123.099 97.1807 122.254 97.186 121.294C97.1967 120.334 97.3513 119.488 97.65 118.758C97.9487 118.022 98.3967 117.448 98.994 117.038C99.5913 116.622 100.341 116.416 101.242 116.422C102.143 116.427 102.895 116.635 103.498 117.046C104.101 117.456 104.551 118.027 104.85 118.758C105.154 119.488 105.306 120.334 105.306 121.294C105.306 122.254 105.154 123.102 104.85 123.838C104.551 124.568 104.101 125.139 103.498 125.55C102.895 125.96 102.143 126.166 101.242 126.166ZM108.148 127.054H109.324V119.542H113.844V127.054H115.02V118.414H108.148V127.054ZM117.258 130.894H118.442V126.022C118.751 126.416 119.132 126.728 119.586 126.958C120.039 127.182 120.559 127.294 121.146 127.294C121.956 127.294 122.647 127.094 123.218 126.694C123.788 126.288 124.223 125.742 124.522 125.054C124.826 124.366 124.978 123.59 124.978 122.726C124.978 121.867 124.826 121.094 124.522 120.406C124.223 119.718 123.791 119.174 123.226 118.774C122.66 118.374 121.983 118.174 121.194 118.174C120.554 118.174 119.991 118.302 119.506 118.558C119.026 118.808 118.628 119.158 118.314 119.606V118.414H117.258V130.894ZM121.026 126.198C120.412 126.198 119.906 126.048 119.506 125.75C119.106 125.446 118.807 125.032 118.61 124.51C118.412 123.987 118.314 123.392 118.314 122.726C118.314 121.707 118.535 120.878 118.978 120.238C119.426 119.592 120.1 119.27 121.002 119.27C121.62 119.27 122.13 119.422 122.53 119.726C122.935 120.03 123.236 120.443 123.434 120.966C123.631 121.488 123.73 122.075 123.73 122.726C123.73 123.382 123.628 123.971 123.426 124.494C123.228 125.016 122.93 125.432 122.53 125.742C122.13 126.046 121.628 126.198 121.026 126.198ZM129.206 127.294C130.716 127.294 131.812 126.736 132.494 125.622V127.054H133.542V121.686C133.542 121.366 133.526 121.051 133.494 120.742C133.462 120.432 133.393 120.152 133.286 119.902C133.057 119.342 132.665 118.915 132.11 118.622C131.561 118.323 130.892 118.174 130.102 118.174C129.153 118.174 128.38 118.387 127.782 118.814C127.185 119.24 126.785 119.84 126.582 120.614L127.726 120.95C127.892 120.374 128.177 119.952 128.582 119.686C128.993 119.419 129.494 119.286 130.086 119.286C130.908 119.286 131.494 119.478 131.846 119.862C132.198 120.24 132.38 120.819 132.39 121.598C132.006 121.651 131.582 121.707 131.118 121.766C130.66 121.824 130.198 121.891 129.734 121.966C129.27 122.04 128.844 122.126 128.454 122.222C127.809 122.392 127.281 122.678 126.87 123.078C126.46 123.472 126.254 124.024 126.254 124.734C126.254 125.192 126.364 125.616 126.582 126.006C126.801 126.395 127.129 126.707 127.566 126.942C128.009 127.176 128.556 127.294 129.206 127.294ZM129.342 126.278C128.878 126.278 128.505 126.203 128.222 126.054C127.945 125.899 127.742 125.704 127.614 125.47C127.492 125.23 127.43 124.984 127.43 124.734C127.43 124.264 127.588 123.912 127.902 123.678C128.217 123.443 128.558 123.272 128.926 123.166C129.401 123.038 129.953 122.934 130.582 122.854C131.212 122.774 131.809 122.699 132.374 122.63C132.374 122.827 132.366 123.054 132.35 123.31C132.34 123.56 132.31 123.792 132.262 124.006C132.15 124.656 131.841 125.198 131.334 125.63C130.833 126.062 130.169 126.278 129.342 126.278ZM135.617 127.054H139.641C139.86 127.054 140.092 127.046 140.337 127.03C140.588 127.014 140.82 126.976 141.033 126.918C141.508 126.779 141.886 126.523 142.169 126.15C142.452 125.776 142.593 125.294 142.593 124.702C142.593 123.848 142.278 123.232 141.649 122.854C141.457 122.736 141.273 122.662 141.097 122.63C141.294 122.544 141.476 122.411 141.641 122.23C141.812 122.054 141.942 121.846 142.033 121.606C142.129 121.36 142.177 121.083 142.177 120.774C142.177 120.219 142.028 119.747 141.729 119.358C141.436 118.963 141.046 118.699 140.561 118.566C140.337 118.507 140.094 118.467 139.833 118.446C139.577 118.424 139.358 118.414 139.177 118.414H135.617V127.054ZM136.801 122.23V119.422H139.057C139.116 119.422 139.254 119.427 139.473 119.438C139.697 119.448 139.905 119.488 140.097 119.558C140.38 119.648 140.59 119.811 140.729 120.046C140.873 120.275 140.945 120.539 140.945 120.838C140.945 121.115 140.878 121.371 140.745 121.606C140.617 121.84 140.414 122.006 140.137 122.102C140.004 122.15 139.852 122.184 139.681 122.206C139.51 122.222 139.356 122.23 139.217 122.23H136.801ZM136.801 126.054V123.238H139.417C139.524 123.238 139.644 123.24 139.777 123.246C139.916 123.251 140.044 123.267 140.161 123.294C140.524 123.347 140.817 123.496 141.041 123.742C141.265 123.982 141.377 124.291 141.377 124.67C141.377 124.958 141.302 125.224 141.153 125.47C141.009 125.71 140.78 125.87 140.465 125.95C140.332 125.987 140.18 126.014 140.009 126.03C139.838 126.046 139.697 126.054 139.585 126.054H136.801ZM143.547 128.974H144.675V127.054H151.027V128.974H152.163V126.046H151.331V118.414H145.619C145.582 119.32 145.542 120.112 145.499 120.79C145.457 121.462 145.406 122.059 145.347 122.582C145.289 123.104 145.214 123.592 145.123 124.046C144.99 124.744 144.817 125.254 144.603 125.574C144.39 125.888 144.038 126.046 143.547 126.046V128.974ZM145.539 126.046C145.726 125.87 145.865 125.646 145.955 125.374C146.051 125.102 146.139 124.774 146.219 124.39C146.315 123.995 146.393 123.512 146.451 122.942C146.515 122.371 146.566 121.776 146.603 121.158C146.646 120.539 146.681 119.96 146.707 119.422H150.163V126.046H145.539ZM155.753 127.294C157.262 127.294 158.358 126.736 159.041 125.622V127.054H160.089V121.686C160.089 121.366 160.073 121.051 160.041 120.742C160.009 120.432 159.94 120.152 159.833 119.902C159.604 119.342 159.212 118.915 158.657 118.622C158.108 118.323 157.438 118.174 156.649 118.174C155.7 118.174 154.926 118.387 154.329 118.814C153.732 119.24 153.332 119.84 153.129 120.614L154.273 120.95C154.438 120.374 154.724 119.952 155.129 119.686C155.54 119.419 156.041 119.286 156.633 119.286C157.454 119.286 158.041 119.478 158.393 119.862C158.745 120.24 158.926 120.819 158.937 121.598C158.553 121.651 158.129 121.707 157.665 121.766C157.206 121.824 156.745 121.891 156.281 121.966C155.817 122.04 155.39 122.126 155.001 122.222C154.356 122.392 153.828 122.678 153.417 123.078C153.006 123.472 152.801 124.024 152.801 124.734C152.801 125.192 152.91 125.616 153.129 126.006C153.348 126.395 153.676 126.707 154.113 126.942C154.556 127.176 155.102 127.294 155.753 127.294ZM155.889 126.278C155.425 126.278 155.052 126.203 154.769 126.054C154.492 125.899 154.289 125.704 154.161 125.47C154.038 125.23 153.977 124.984 153.977 124.734C153.977 124.264 154.134 123.912 154.449 123.678C154.764 123.443 155.105 123.272 155.473 123.166C155.948 123.038 156.5 122.934 157.129 122.854C157.758 122.774 158.356 122.699 158.921 122.63C158.921 122.827 158.913 123.054 158.897 123.31C158.886 123.56 158.857 123.792 158.809 124.006C158.697 124.656 158.388 125.198 157.881 125.63C157.38 126.062 156.716 126.278 155.889 126.278ZM162.164 127.054H163.34V123.294H168.212V127.054H169.388V118.414H168.212V122.166H163.34V118.414H162.164V127.054ZM171.617 127.054H172.793V123.294H177.665V127.054H178.841V118.414H177.665V122.166H172.793V118.414H171.617V127.054ZM184.686 127.294C185.539 127.294 186.27 127.102 186.878 126.718C187.491 126.334 187.961 125.8 188.286 125.118C188.617 124.43 188.782 123.632 188.782 122.726C188.782 121.835 188.619 121.048 188.294 120.366C187.974 119.678 187.507 119.142 186.894 118.758C186.286 118.368 185.55 118.174 184.686 118.174C183.843 118.174 183.115 118.366 182.502 118.75C181.894 119.128 181.425 119.659 181.094 120.342C180.763 121.024 180.598 121.819 180.598 122.726C180.598 123.616 180.758 124.406 181.078 125.094C181.403 125.782 181.87 126.32 182.478 126.71C183.091 127.099 183.827 127.294 184.686 127.294ZM184.686 126.166C183.753 126.166 183.046 125.854 182.566 125.23C182.086 124.6 181.846 123.766 181.846 122.726C181.846 121.718 182.078 120.896 182.542 120.262C183.006 119.622 183.721 119.302 184.686 119.302C185.641 119.302 186.353 119.614 186.822 120.238C187.297 120.856 187.534 121.686 187.534 122.726C187.534 123.744 187.299 124.574 186.83 125.214C186.361 125.848 185.646 126.166 184.686 126.166ZM194.131 127.294C194.989 127.294 195.725 127.094 196.339 126.694C196.957 126.288 197.429 125.702 197.755 124.934L196.571 124.582C196.133 125.638 195.32 126.166 194.131 126.166C193.203 126.166 192.504 125.854 192.035 125.23C191.565 124.6 191.325 123.768 191.315 122.734C191.325 121.726 191.557 120.902 192.011 120.262C192.469 119.622 193.176 119.302 194.131 119.302C194.696 119.302 195.197 119.446 195.635 119.734C196.077 120.016 196.4 120.416 196.603 120.934L197.755 120.566C197.515 119.824 197.069 119.24 196.419 118.814C195.773 118.387 195.013 118.174 194.139 118.174C193.28 118.174 192.549 118.366 191.947 118.75C191.344 119.128 190.883 119.662 190.563 120.35C190.243 121.032 190.077 121.827 190.067 122.734C190.077 123.619 190.237 124.406 190.547 125.094C190.861 125.782 191.32 126.32 191.923 126.71C192.525 127.099 193.261 127.294 194.131 127.294ZM201.531 127.054H202.707V119.502H205.771V118.414H198.467V119.502H201.531V127.054ZM207.305 127.054H210.601C210.851 127.054 211.105 127.048 211.361 127.038C211.617 127.022 211.854 126.99 212.073 126.942C212.654 126.814 213.134 126.536 213.513 126.11C213.897 125.683 214.089 125.099 214.089 124.358C214.089 123.547 213.881 122.939 213.465 122.534C213.049 122.128 212.521 121.867 211.881 121.75C211.689 121.718 211.473 121.696 211.233 121.686C210.993 121.675 210.747 121.67 210.497 121.67H208.473V118.414H207.289L207.305 127.054ZM208.473 126.046V122.678H210.553C210.729 122.678 210.913 122.683 211.105 122.694C211.297 122.704 211.475 122.728 211.641 122.766C212.014 122.846 212.313 123.011 212.537 123.262C212.761 123.507 212.873 123.872 212.873 124.358C212.873 124.854 212.755 125.222 212.521 125.462C212.291 125.702 212.035 125.862 211.753 125.942C211.577 125.99 211.377 126.019 211.153 126.03C210.929 126.04 210.729 126.046 210.553 126.046H208.473ZM226.471 128.55H227.647V125.966H225.911V118.414H224.735V125.926H220.215V118.414H219.039V127.054H226.471V128.55ZM232.578 127.294C233.415 127.294 234.164 127.088 234.826 126.678C235.492 126.267 235.996 125.683 236.338 124.926L235.242 124.502C234.692 125.611 233.788 126.166 232.53 126.166C231.666 126.166 230.988 125.896 230.498 125.358C230.012 124.819 229.746 124.054 229.698 123.062H236.506C236.548 121.536 236.215 120.342 235.506 119.478C234.802 118.608 233.81 118.174 232.53 118.174C231.698 118.174 230.975 118.36 230.362 118.734C229.754 119.107 229.282 119.638 228.946 120.326C228.61 121.014 228.442 121.83 228.442 122.774C228.442 123.686 228.61 124.48 228.946 125.158C229.287 125.835 229.767 126.36 230.386 126.734C231.01 127.107 231.74 127.294 232.578 127.294ZM232.562 119.254C234.188 119.254 235.092 120.195 235.274 122.078H229.722C229.812 121.166 230.1 120.467 230.586 119.982C231.071 119.496 231.73 119.254 232.562 119.254ZM238.273 127.054H239.449V123.294H244.321V127.054H245.497V118.414H244.321V122.166H239.449V118.414H238.273V127.054ZM247.742 127.054H250.518C250.764 127.054 251.014 127.048 251.27 127.038C251.532 127.022 251.769 126.99 251.982 126.942C252.569 126.814 253.052 126.536 253.43 126.11C253.814 125.683 254.006 125.099 254.006 124.358C254.006 123.547 253.796 122.942 253.374 122.542C252.958 122.142 252.433 121.878 251.798 121.75C251.606 121.718 251.39 121.696 251.15 121.686C250.91 121.675 250.665 121.67 250.414 121.67H248.91V118.414H247.726L247.742 127.054ZM255.038 127.054H256.214V118.414H255.038V127.054ZM248.91 126.046V122.678H250.47C250.641 122.678 250.822 122.683 251.014 122.694C251.206 122.704 251.388 122.728 251.558 122.766C251.932 122.846 252.23 123.011 252.454 123.262C252.678 123.507 252.79 123.872 252.79 124.358C252.79 124.854 252.673 125.222 252.438 125.462C252.204 125.702 251.945 125.862 251.662 125.942C251.492 125.99 251.294 126.019 251.07 126.03C250.846 126.04 250.646 126.046 250.47 126.046H248.91Z" fill="#333333"/>
<rect x="1.08398" y="10.3047" width="83.7356" height="7.24951" rx="3.62476" fill="#F8F8F8" stroke="#E6E9EC"/>
<rect x="1.08398" y="45.4287" width="83.7356" height="7.24951" rx="3.62476" fill="#F8F8F8" stroke="#E6E9EC"/>
<rect x="1.08398" y="81.4287" width="83.7356" height="7.24951" rx="3.62476" fill="#F8F8F8" stroke="#E6E9EC"/>
<rect x="1.08398" y="117.429" width="83.7356" height="7.24951" rx="3.62476" fill="#F8F8F8" stroke="#E6E9EC"/>
<rect x="0.583984" y="9.80469" width="84.7356" height="8.24951" rx="4.12476" fill="#FADE56"/>
<rect x="0.583984" y="44.9287" width="84.7356" height="8.24951" rx="4.12476" fill="#FADE56"/>
<rect x="0.583984" y="80.9287" width="84.7356" height="8.24951" rx="4.12476" fill="#FADE56"/>
<rect x="0.583984" y="116.929" width="84.7356" height="8.24951" rx="4.12476" fill="#FADE56"/>
</svg>
